P2
100 100
255
  0   0   0   0   0   0   0   0   0   0   0   0   0   0   0   0   0   0   0   0   0   0   0   0   0   0   0   0   0   0   0   0 
  0   0   0   0   0   0   0   0   0   0   0   0   0   0   0   0   0   0   0   0   0   0   0   0   0   0   0   0   0   0   0   0 
  0   0   0   0   0   0   0   0   0   0   0   0   0   0   0   0   0   0   0   0   0   0   0   0   0   0   0   0   0   0   0   0 
  0   0   0   0 
  0  60 106 106  84 104 132 144 144 134 112  94  86  82  80  80  74  60  42  30  52  86 116 126 126 118 132 158 180 188 188 192 
198 200 200 200 200 200 210 250  54 114 160 186 198 198 198 186 172 164 158 154 152 156 162 166 166 162 138 104 106 138 142 142 
 98  26 222 228  14  46  62  68  68  52   6 196 136 102  98 132 196  20  92 140 166 178 178 178 162 112  22 182 126 144 156 156 
150   0   0   0 
  0 116 142 110 114 152 196 218 208 168 146 118 108 110 116 122 122  80  58  66 104 152 190 196 180 126 142 176 194 192 188 196 
204  46  52  58  58  54  72 142 230 164 164 142 134 144 156 176 172 108 102 100 102 110 116 122 112 186 174 126 132 166 130 168 
140  46  44  92 152 190 212 218 188  88  66   0 172 114 108 178  32 216  60 112 136 142 138 104  10 190 102 224 122 160 158 152 
148   0   0   0 
  0 112 134  38  52  96 142 162 152  48  58  40  38  56  60  64  80  72  58  78 116 152 164 148 120  22  18  44  50  34  10   8 
 10 198 208 220 222 220 244  68 150 110  38 106 146 174 130  46   8 156 154 156 162 166 172 172 158  42  52  40  48  42  44 158 
200 124 166 230  20  36  36  34   6 100 122 106  72  30  26 106 200 192 244 238 212 194 174 126  22 224 226 130  18  44  36  34 
 30   0   0   0 
  0 116 138  40  48  88 138 166 164  32  54  38  34  42  32  32  52  76  74  96 132 156 162 146 122  22  18  40  40  30  14   6 
  4 184 192 204 206 212   6 116 208 128  58 132 122 162 164  80  18 172 168 170 172 174 176 176 162  36  48  36  40  20  68 164 
174 132 166 208 240 252   2   8 248  80  90 104  98  56  48 144 236 232   6 236 202 182 160 102 242 242 228 126  28  56  42  24 
 12   0   0   0 
  0 128 154  46  46  86 136 170 174  16  52  44  26  24   6  22  40  78  88 114 144 164 164 150 128  22  20  42  46  36  18   2 
 12 176 184 194 190 206  28 172  18 128 124 148  90 106 148  96  42 188 184 184 186 182 184 184 168  36  46  34  28   4  76 140 
126 154 164 178 198 214 236   0   0  40  66 110 118  88  84 190  12   8  12 226 184 162 126  54 192 254 218 114  30  64  46  16 
  6   0   0   0 
  0 146 174  48  44  78 130 166 178  10  34  42  24  10  12  36  40  90 106 130 156 168 170 158 140  28  18  34  44  38  20   6 
 10 178 188 194 190 208  56 220  62  98 152 172  72  74 138 116  58 200 196 196 198 194 196 198 178  42  48  30  16   6  66  98 
116 178 162 148 158 186 228  14  26  24  66 104 124 102 118 226  24  24   6 212 170 130  70 230 122   2 198  96  22  58  50  18 
 14   0   0   0 
  0 168 198  52  38  70 116 152 170  28  10  26  24  14  30  42  30 102 124 146 164 174 176 170 156  40  24  24  38  38  24  12 
 20 192 202 206 196 220  82 252  80  54 144 186  88  96 162 134  64 208 204 208 210 208 210 212 192  54  56  34   6  12  52  86 
110 180 144 116 126 174 234  36  54  32  64  96 114  92 136 240  10  30 248 204 158  98   2 146  70 242 166  74  16  44  46  30 
 22   0   0   0 
  0 192 224  60  34  58 102 140 162  42   6  14  20  34  48  46  24 106 126 148 166 182 188 186 172  42  30   8  34  46  32  16 
 26 210 218 220 210 236  98   8  82  28 158 194  92 110 172 138  64 214 212 214 218 218 220 224 204  56  60  42  10  14  48  80 
 96 158 114  92 116 178 254  56  78  44  50  84  92  62 136 228 230  22 238 196 150  68 204 122  54 198 122  50  18  52  56  42 
 28   0   0   0 
  0 210 242  68  26  48  90 136 162  40  10  32  42  52  60  50  24  96 118 140 164 188 202 196 176  32  38  18  44  56  42  12 
 10 216 228 230 220 244 100   6  88  38 144 208 114 122 178 138  64 226 220 224 224 226 230 232 214  54  60  42  14  14  48  92 
126 126  92  86 122 196  12  70  92  46  36  68  76  32 132 210 190   8 220 184 128  34 168 120  52 140  74  18  32  62  62  44 
 28   0   0   0 
  0 222   6  84  28  46  92 138 168  32  12  42  48  54  58  44  20  92 110 134 162 188 206 196 160  62  72  38  60  72  58  32 
 14 210 222 230 218 238  86 244  92  64 146 232 142 122 178 136  66 242 232 234 234 234 236 240 220  54  64  50  22  14  48 102 
144 108  84  94 136 202  14  68  92  40  22  60  70  22 134 194 156 250 204 158  88 244 140 100  44  96  38  18  48  66  60  42 
 28   0   0   0 
  0 238  34 106  50  52  96 146 172  30  16  38  38  36  36  24   4  96 114 138 164 190 204 188 140  90  92  48  74  86  64  36 
 16 204 214 218 208 222  62 220  90  94 122 244 178 114 172 134  68   2 248 246 246 242 244 244 228  50  68  58  30  28  66 116 
144 110  98 112 150 206   8  56  84  44  14  64  68  20 130 180 136 242 192 128  34 186 100  60  22  78  24  26  56  62  52  38 
 26   0   0   0 
  0   2  64 122  70  56 100 148 172  28   8  26  30  32  44  42  20 106 124 142 168 192 204 184 126 102  98  46  78  94  70  30 
 12 204 206 206 196 208  44 202  92 132  80 234 206 102 162 130  64  16   8   4   2 254 254 254 238  52  76  72  54  68 100 126 
130 130 120 134 168 210   4  50  74  52  12  62  66  14 124 174 128 236 176  90 232 132  70  26  12  74  20  32  56  58  50  36 
 20   0   0   0 
  0  18  84 124  70  48  94 142 168  30   6  28  34  34  46  54  34 114 128 142 162 184 196 176 122 100  90  36  68 100  90  46 
  8 200 202 200 196 212  42 200 100 170  40 202 214  96 150 126  62  28  18  12  12  10   8  10 252  54  82  82  90 112 122 114 
 96 156 144 152 184 222  10  50  74  46  14  56  66  14 122 172 126 232 154  48 186 122  52  22  22  62  16  30  50  56  50  32 
 16   0   0   0 
  0  20  76 106  50  32  84 136 164  34   4  20  26  22  30  44  34 116 126 136 146 166 178 164 116  94  82  34  48  98 108  94 
 56 220 190 198 206 234  64 214 116 200  38 162 190  94 118 110  58  38  26  22  20  22  24  26  12  56  84  94 120 132 110  68 
 44 186 160 158 192 236  20  62  82  48  12  54  70  14 120 174 124 220 126   6 176 106  38  26  30  38  18  30  48  56  48  26 
 12   0   0   0 
  0   8  48  88  26  24  80 134 162  36  10  16  22  20  22  16  20 118 126 132 136 146 158 146 108  88  78  34  22  78 102 114 
110  16 226 200 224   8  90 230 122 198  32 110 146  54  72  92  58  50  38  34  34  40  42  44  28  62  90 112 128 116  62  10 
 12 200 160 152 194 242  32  70  90  48   4  66  82   0 118 172 108 190  78 212 154  86  22  24  42  22   8  24  44  56  46  24 
 16   0   0   0 
  0 250  22  82  16  36  82 132 160  38  14  16  36  36  30  20   4 122 132 136 134 138 144 136 106  76  72  40  20  42  66  84 
108  54  16 206 242  30 106 222  92 176  76 142 154  46  62  98  68  66  58  56  56  60  62  60  42  68  96 116 116  92  72  46 
 38 200 150 146 196 252  38  72  88  34  16  88  98  20 116 162 102 142  14 176 122  60  10  30  54  18   8  14  36  54  44  22 
 12   0   0   0 
  0 240   6  80  18  36  84 126 156  46  18  18  42  40  28  14  12 130 140 142 140 140 144 138 112  60  62  38  20  32  18  30 
 58  56  34 210 248  28  90 184  34 200 112 134 122  60 102 120  74  78  74  78  80  82  80  74  52  66 100 118 106  94  70  50 
 48 190 146 154 210  10  48  74  80  20  50 120 116  42 122 154  96  86 208 152  92  36   8  38  60  22  22  26  38  56  48  24 
 24   0   0   0 
  0 232 252  78  20  44  86 122 150  46  28  16  42  38  22   8  18 134 146 148 148 150 154 148 124  46  54  38  26  42  18  24 
 12  32  24 216 250  14  58 136 230 202 138  78  84  92 130 116  64  82  80  86  90  94  92  86  58  64 110 126 102  78  48  30 
 48 174 146 172 240  36  64  76  66  30 102 160 128  68 134 154  96  32 186 136  72  16  20  42  64  22  28  34  46  66  56  34 
 44   0   0   0 
  0 224 244  70  18  48  86 116 146  48  30  14  42  38  18   4  22 140 148 154 154 160 164 160 134  48  58  40  38  50  20  36 
 28   4   6 222 244 250  26 104 192 184 144  54  38  74  80  44  40  48  56  72  82  88  90  84  54  78 134 148 128  90  54  48 
 76 158 150 202  20  68  82  74  38  80 152 184 118  90 148 170 114 232 168 122  54   2  34  48  68  12  22  32  56  70  56  40 
 60   0   0   0 
  0 218 238  66  14  48  78 108 138  50  36  14  44  42  18   8  26 140 148 152 158 164 170 164 140  50  58  40  44  52  22  40 
 30 236 248 226 238 236  12  90 176 150 128  86  38  22  52  86 104 220 246  20  44  60  66  64  28 114 164 178 164 124  80  66 
 86 148 164 234  56  90  86  60   4 124 182 176  80  98 146 174 130 190 148 108  40  16  44  56  74   4   8  32  60  70  52  40 
 62   0   0   0 
  0 216 236  64  12  42  72  98 134  52  34  16  48  46  20   8  24 140 144 152 158 166 174 170 140  48  52  30  44  50  22  44 
 30 220 240 228 238 240  14  92 170 124 110  94  82 114 170 184 156 130 172 210 240   8  18  12 230 158 194 200 178 122  70  62 
 82 148 182  10  80  98  78  40 228 150 180 136  42  92 128 160 132 168 134 102  32  28  52  62  78  18  12  36  62  68  48  36 
 52   0   0   0 
  0 214 234  66  16  42  70 100 138  58  30  14  48  50  24  14  22 138 142 148 158 170 180 174 142  56  56  20  42  44  14  46 
 30 212 230 228 244 254  30  96 160 108  96  78  90 146 200 196 154  64 102 134 158 186 196 194 164 174 190 180 146  88  48  52 
 68 160 208  36  90  88  56  16 204 152 154  92  24  76 100 124 108 182 138 116  42  28  56  64  80  20  12  32  56  62  50  38 
 48   0   0   0 
  0 208 228  60  20  48  78 110 146  64  34  10  46  46  18  10  24 134 136 142 154 168 180 174 138  62  58  18  42  42  10  44 
 32 200 218 224 252  12  40 100 150  88  76  50  72 124 168 150 100  28  50  62  78  98 110 112 110 146 140 120  96  72  42  50 
 50 182 236  48  78  54  22 248 190 140 134  72  16  62  72  84  84 216 148 134  66  22  52  64  76  12  12  26  52  60  50  34 
 42   0   0   0 
  0 200 220  54  24  54  88 122 162  74  44  22  46  54  32  20  26 134 134 140 152 164 174 166 134  64  58  14  44  40   8  48 
 36 190 204 216 248   8  36  90 136  76  66  36  46  88 120  94  38  28  40  44  48  54  52  60  76  90  76  66 102  96  62  60 
 34 204 254  42  40   2 236 226 188 124 126  68  18  60  52  56  70 242 182 144  86  30  42  56  70   8   8  22  52  62  50  38 
 54   0   0   0 
  0 194 216  52  26  54  88 128 170  74  40  20  48  58  50  34  32 140 138 142 152 162 168 160 128  64  56  18  42  36  12  52 
 32 182 196 200 226 240  16  76 126  68  56  28  24  62  94  78  22  48  68  82  82  66  46  42  64  96  38  46  86 100  90  66 
 20 218   8  26 252 204 196 212 186 116 126  66  24  66  50  44  64 250 196 138  92  28  40  54  70  10   6  20  52  66  64  66 
 94   0   0   0 
  0 194 218  48  24  48  80 118 160  52  24  16  32  32  32  32  32 148 142 144 152 162 170 156 124  64  58  10  40  36  12  50 
 34 174 190 180 196 208 252  72 132  82  58  20  18  60  90  84  38  82 124 148 144 114  74  50  52  96  78  54 104 124 100  56 
  8 234  18  12 214 158 166 200 180 116 128  64  30  72  50  40  56 250 202 132  94  24  34  56  78  10   6  24  58  80  92 108 
134   0   0   0 
  0 200 226  52  26  46  72 106 144  66  40  26  46  36  12   8  14 146 144 146 156 168 174 158 122  58  54   8  42  36  10  46 
 36 170 184 172 180 196 252  92 160 104  66  18  28  76 100  60  34 128 182 208 198 156 102  62  48  52  84  66 120 128  92  42 
 18 246  26   4 186 126 142 186 172 108 120  56  36  74  50  46  70   8 218 138  96  24  34  66  92   8  12  40  76 108 132 146 
148   0   0   0 
  0 206 236  60  40  54  76 104 140  62  38  26  54  50  30  44  38 136 140 148 160 174 178 158 126  50  48  12  44  36   8  46 
 34 174 182 178 188 210  30 138 204 120  60  14  36  86 106  50  42 160 210 228 208 162 110  72  52  16  38  66 116 116  80  34 
 22 252  30   0 170 104 122 172 164  92 104  44  38  68  50  64 102  44 242 152  96  22  48  80 102  12  20  56  96 136 158 152 
128   0   0   0 
  0 206 240  58  54  68  86 112 144  54  30  18  46  42  26  38  54 126 134 150 162 172 176 164 136  54  54  22  42  34   8  48 
 34 184 188 188 206 240  74 192 252 120  40  28  44  92 110  48  48 174 222 222 194 152 108  82  64  60  24  64 104 102  74  36 
 14 250  28 248 154  88 106 162 164  70  86  44  36  64  58  90 132  74 254 158  90  24  68 100 116  14  28  64 108 146 152 126 
 88   0   0   0 
  0 204 246  72  70  84 102 128 154  58  28  10  34  42  22   6  30 128 136 150 160 166 172 168 152  58  72  46  42  36   8  50 
 36 192 194 196 220   8 108 230  30 108  52  46  50  88  98  30  72 196 236 220 188 148 120  98  76  70  48  78 102  98  76  44 
 36 238  10 230 142  80 106 166 180  38  66  52  44  66  66 106 138  80 236 146  68  26  86 114 128   6  28  64 106 134 128  96 
 58   0   0   0 
  0 204 250  82  84 100 122 146 166  52  22  10  26  40  36  20  24 138 146 152 160 162 170 174 162  46  70  54  38  38   6  42 
 38 192 194 190 216   6 112 240  44  94  72  78  46  64  98  74 110 226 244 208 170 148 136 128  98  86  76  98 110 102  76  40 
 48 218 238 210 136  86 114 180 200  32  80  70  52  58  60 104 120  54 198 124  40  44  98 122 132  10  22  58  98 118 106  74 
 44   0   0   0 
  0 202 248  86  92 112 134 158 174  44  16  12  24  26  28  20  26 146 152 156 160 164 170 176 170  28  52  42  28  38  12  52 
 58 186 182 180 196 236  84 218  46  92  70 110  76  66 102 110 156   4 240 178 136 128 138 140 106  92 108 122 124 102  62  32 
 50 186 204 190 134  90 120 190 220  30  86  86  54  38  56 110 108  26 158 106  28  46  90 112 126  12  28  60  92 104  92  66 
 44   0   0   0 
  0 200 248  90 100 120 140 166 186  42  24  24  24  22  18   8  18 144 152 156 162 166 172 176 168  32  54  30  20  42  26  54 
 72 176 170 174 178 208  50 190  36  96  42 110  94  62  78 124 178  30 228 146 102  98 108 106  74 110 136 142 130  88  38  22 
 40 152 180 180 138  96 122 194 236  40  76  96  72  32  70 132 108   4 140  92  40  66  78  82 102  28  36  58  82  96  92  72 
 50   0   0   0 
  0 198 244  92 102 120 140 170 196  38  28  36  28  18  12   8  12 140 148 156 160 168 172 176 164  38  56  34  16  42  32  36 
 66 174 178 178 174 196  30 170  26 136  26  92  78  22  60 134 156  40 216 134  90  72  58  48  28 122 142 144 116  60  12   8 
 18 134 176 190 152 108 128 200 248  56  54  86  76  38  88 148 100 250 140  90 106 132 134 118  98  40  20  38  68  92  92  72 
 48   0   0   0 
  0 200 248  94 102 118 138 172 198  28  22  34  32  16  10  12  12 140 146 152 158 164 170 174 164  32  44  30  16  42  36  14 
 42 176 184 180 178 202  32 164   8 156  76 168 154  64  86  98  98  24 208 140  98  60  24   6 254 102 130 136  98  36   4   8 
 24 128 184 204 168 124 142 214  10  68  28  70  70  28  98 146  78 242 162 152 184 204 184 144 102  50  12  36  72  94  96  76 
 52   0   0   0 
  0 210   4 100 102 114 136 172 198  20  22  44  32  14  10   8  10 144 148 152 156 158 166 170 166  22  46  46  24  50  46  20 
 22 170 172 172 184 222  50 168 244 138 130 230 202 128 170 174 130 234 176 130 100  62  20   2 254  66 108 126  88  36   6  18 
 28 126 190 216 186 150 168 234  26  70  18  54  66  20  94 130  58   0 208 220 252 250 206 146  84  58  38  38  74  94  92  78 
 56   0   0   0 
  0 226  24 102  94 106 134 172 196  20  26  42  26  14  10   8  12 148 154 154 156 156 160 168 168  12  38  46  32  60  56  26 
 18 158 148 156 186 236  64 164 216 102 152 228 174 110 172 212 200 162 118  86  74  54  22   6   2  42  88 112  76  32  12  22 
 26 126 194 228 214 190 202 252  32  56  12  66  80  14  86 120  62  38  16  32  40  10 204 128  62  84  44  36  78 102  96  76 
 58   0   0   0 
  0 244  46 106  86 100 132 172 196  18  20  34  26  14  10  10  16 152 154 152 152 152 160 170 170   6  26  36  38  62  56  24 
 20 146 132 140 180 234  54 144 186  68 134 168  86  26  86 156 194  88  48  26  32  24 250 236 240  42  74  90  62  38  28  32 
 28 130 198 244 244 224 226 254  20  34  18  72  82  16  88 130  92  88  72  74  58   8 192 116  52  86  34  34  88 106  96  76 
 58   0   0   0 
  0   4  70 112  84  96 132 174 198  20  16  34  26  10   6   8  14 152 154 150 148 154 162 170 170   4  14  22  38  52  44  14 
 24 142 124 134 172 216  26 116 164  52  94  90  76  74  64  42 116  38   2 240 246 238 204 194 214  38  56  66  68  48  36  52 
 48 140 208   0   8 242 228 240   4  30  18  68  74  26 104 156 124 126 104  86  58   0 188 116  52  84  38  38  92 108  98  82 
 62   0   0   0 
  0  16  88 122  88 100 138 180 202  20  18  36  26  12   8  10  16 158 156 154 154 164 172 174 172   2   6  14  30  34  24   0 
 24 140 124 134 162 190 252  92 156  56  58  84  72  98  82  52   8  36   0 228 226 202 168 170 204  36  32  60  66  42  26  42 
 58 166 224  10  12 242 222 228 246  28  16  62  64  30 126 176 134 142 104  74  38 242 182 116  58  84  42  36  92 110 104  90 
 68   0   0   0 
  0  24 106 136 100 108 148 186 204  22  14  34  30  18  14  18  22 166 168 166 170 176 180 178 176   6   6  10  14  16  18  10 
 26 144 136 142 156 176 240  90 158  62  38  60  64  88  80  96  74  66  26 246 224 192 158 166 204  46  14  46  58  40  12  16 
 42 198 242   8   4 232 216 222 244  22  12  56  54  30 136 176 124 136  82  40   0 212 164 114  62  84  50  38  96 116 110  92 
 68   0   0   0 
  0  32 122 148 108 114 148 186 206  28  18  44  40  24  24  28  28 178 182 182 184 184 186 184 180  12  12   2   8  16  16  10 
 24 150 152 158 166 182 252 106 174  56  24  42  62  80  54  96 102  90  46   6 234 200 170 178 212  44  20  30  54  48  16  18 
 50 228 250   2 248 228 218 230 248  24  10  54  46  38 134 164 104 120  54 252 206 170 146 112  68  84  50  40 100 122 116  94 
 68   0   0   0 
  0  38 130 152 106 108 144 180 206  34  14  42  50  30  26  30  32 196 198 196 194 194 196 198 190  20  16   6  10  12  10  16 
 32 152 162 176 182 200  18 130 194  72  32  40  64  78  44  70  84  80  36   8 248 222 196 200 222  34  20  20  50  64  40  38 
 62 242 250 250 244 232 230 242 254  20  14  54  40  42 130 150  86 106  26 206 152 132 134 122  78  82  52  40 102 126 116  90 
 64   0   0   0 
  0  42 136 152 102 104 140 178 204  38  14  34  44  34  22  30  34 208 210 208 204 202 204 204 194  24  20  10  14  14   2  28 
 44 138 166 186 192 210  32 148 216  92  52  62  58  62  20  30  62  42  14  12  14 254 232 224 236  38  18  10  40  64  58  46 
 60 246 244 244 242 240 244 254  10  22  20  50  36  44 128 142  78  98   4 166 106 106 134 134  90  82  54  40 104 124 106  80 
 56   0   0   0 
  0  46 140 150 100 102 138 174 202  40  16  20  36  30  22  34  38 224 224 218 210 208 206 202 190  16  16  12  14  14   8  36 
 52 142 152 176 184 206  30 150 232 110  60  84  42  34  20  68 104  12   8  32  48  32   4 240 242  28  14   4  22  48  58  38 
 50 246 244 244 246 250   2  14  24  30  38  58  44  48 130 142  78  98 248 162  86 100 144 148 100  84  52  38 102 116  98  76 
 54   0   0   0 
  0  50 144 150  98 102 136 170 198  40  18  12  26  26  22  32  38 236 236 222 210 206 206 202 192  16  14  12  14  14  10  36 
 52 146 164 162 162 188  14 134 228 108  34  74  52   4  34  78  96  20  32  62  72  50  10 238 234  14   6   0   8  22  34  26 
 36 248 246 248 250 250   4  20  38  34  46  70  52  52 132 142  72  92 240 162  84 110 160 164 110  84  54  34  96 110  96  76 
 56   0   0   0 
  0  54 148 148  98 100 134 168 198  44  22   8  18  16  12  22  32 242 236 218 202 200 200 198 192  16  14  10  16  18  16  40 
 60 138 160 166 160 170 246 100 192 138  44  46  38  24  36  58  50  64  70  82  70  32 248 218 222   4   2   2   8  16  14   6 
 22 244 248 250 244 236 246  16  42  26  36  78  48  48 132 138  60  82 234 160  90 120 172 174 114  88  56  32  94 110  96  76 
 56   0   0   0 
  0  56 146 142  92  94 130 166 198  48  22   8  20  12   6  22  34 242 234 212 198 198 202 202 194  16  12   6  14  16   8  36 
 66 136 138 148 152 166 232  60 126 188 128  82  62  38  40  46  24  94  88  74  40 250 212 194 206  14   6   2  12  26  28  16 
 24 238 242 238 220 208 226  10  40  16  68 110  62  50 138 138  56  80 236 162 100 132 182 180 118  88  54  30  92 112 100  80 
 60   0   0   0 
  0  50 132 126  80  86 124 164 196  50  28  10  24  16  12  32  36 238 222 202 194 200 204 206 196  14  12   2   6  16  14  10 
 44 154 144 142 150 182 234  28  58 190 174 120  74  38  44  40  16  96  72  40   0 210 180 172 194  28  10   4  26  42  38  24 
 34 234 234 214 186 176 206   0  28  28 104 126  52  72 154 138  48  76 236 158 108 140 188 184 120  88  56  22  84 108  96  74 
 58   0   0   0 
  0  36 110 106  70  84 124 162 194  52  30   8  26  16  28  38  20 210 190 178 178 190 196 194 182  24  14  16  24  32  40  22 
 16 166 150 148 168 208 248  10   6 134 160 140  94  44  14  16  10  90  52  12 230 194 168 162 194  42  16  14  40  50  34  22 
 32 234 218 186 150 148 188 242   4  50 120 112  16 108 170 130  34  68 234 154 114 144 188 182 116  96  64  14  76  96 100  88 
 76   0   0   0 
  0  18  82  92  68  88 126 160 194  56  32   4  26  24  36  24  18 162 138 136 152 170 174 166 160  26  14  28  46  44  62  52 
 12 174 158 158 182 220 254 252 232  66 106 122  98  52  24  36  44  94  42   2 230 198 172 170 202  44  26  22  40  38  16  18 
 34 228 200 158 128 136 182 228 238  56 106  74  32 144 176 114  24  54 228 150 116 146 190 184 118  96  64  14  70  92 104 104 
108   0   0   0 
  0   0  58  88  74  98 130 162 194  60  38   6  26  24  16  20  72 102  86  94 120 140 138 128 134  44  24  36  62  50  58  72 
 42 178 164 162 182 216 240 234 216  24  60  88  92  70  32  24  38  96  42   4 234 206 182 182 214  44  24  20  30  26  24  30 
 32 214 176 140 122 140 186 228 232  36  70  32  70 160 162  82  22  22 206 138 112 146 190 182 118  96  64  16  66  74  86  96 
112   0   0   0 
  0 238  38  92  86 104 134 164 200  66  50  24  34  30  14  60 104  60  50  70  96 106  98  92 110  66  48  48  70  44  42  70 
 58 184 170 162 168 194 218 218 210  14  60  84  70  72  70  56  32  78  38   2 236 206 184 186 214  36  24  16  20  24  24  24 
 14 194 158 134 132 156 202 240 242  10  38  38  86 152 132  48  66 230 168 118 102 140 186 176 116  98  64  14  62  62  56  60 
 84   0   0   0 
  0 220  20  94  90 108 136 168 204  76  68  42  38  48  34  76 106  46  48  64  78  80  70  70  96  70  62  56  68  38  32  60 
 62 192 178 152 148 166 196 212 224  40  78  86  52  56  78 104  90  44  16 250 228 202 182 184 206  26  32  16  16  14  16  12 
  8 186 160 150 156 184 228   4   0  18  42  34  82 132  98  44 102 186 140 102  98 138 182 176 116  94  60  16  64  68  44  26 
 42   0   0   0 
  0 214   2  98  94 110 138 172 212  84  78  48  36  56  64  84 100  48  54  64  68  62  58  64  84  68  62  56  60  32  24  48 
 54 200 180 146 134 158 202 234 252  60  76  70  30  32  64  88 106  10 252 240 230 210 196 196 206  16  28  22   8   6  12  10 
 16 196 178 174 180 208 242  10   2  20  36  24  70 110  72  34 120 156 126 104 108 146 188 178 118  92  58  20  68  72  46  16 
 14   0   0   0 
  0 210 246 106 100 114 140 174 216  84  72  38  18  42  66  98  96  52  58  60  60  60  58  62  76  56  58  48  44  18  24  54 
 60 208 182 146 140 176 228  10  20  54  58  52  20  30  46  42  58   4 250 246 242 230 224 222 214   8  14  24  10  10   8   6 
 12 210 196 188 192 212 240 252 246  18  32  16  62  94  64  52 122 148 134 126 134 170 198 180 114  92  52  24  68  68  34  14 
 10   0   0   0 
  0 208 242 118 110 118 146 178 218  74  54  34  30  68 104 118  98  52  58  60  60  62  62  64  68  36  44  34  24  22  40  64 
 68 214 186 154 158 200   0  26  26  34  38  38  24  20  30  22  12   8 252 250 242 228 226 222 208  18   8  26  24  10  12   2 
  2 214 198 188 188 206 226 238 234  22  30  10  54  78  60  64 116 150 154 160 172 198 212 180 112  88  46  28  66  58  28  18 
 14   0   0   0 
  0 206 240 126 114 122 150 182 212  58  58  48  80 116 136 128  96  48  58  62  64  64  66  68  70  12  24  22  20  22  50  70 
 76 226 194 160 168 212   4  20  10  16  30  46  32  24  36  24  10   2 240 224 202 180 184 194 188  30   8  22  28   8  14   6 
  6 212 196 182 184 200 220 230 230  14  24   6  42  64  58  74 112 148 168 188 206 218 212 168 104  84  40  28  58  48  22  10 
 14   0   0   0 
  0 202 236 126 114 122 152 182 204  48  54  70 116 136 132 110  78  48  60  66  66  68  72  74  74   4   2  12  12  28  50  70 
 80 236 198 160 162 196 232 240 232  40  42  54  46  50  58  38  20 242 210 170 128 104 126 158 174  24   4  22  28  20  20  10 
  8 212 196 182 182 200 218 230 230  10  24  12  36  72  66  86 108 144 178 210 224 220 190 142  90  76  38  30  52  42  18   8 
 12   0   0   0 
  0 192 222 118 108 120 152 178 194  40  42  94 122 116  92  70  50  54  60  64  66  68  74  76  74   6   4   8  16  24  40  62 
 68 224 184 144 138 166 192 200 198  56  58  58  60  90  88  62  48 210 162 102  58  72  92 146 180  22  10  18  20  20  24  14 
 14 210 192 178 180 200 216 224 222  18  32  26  32  74  78  88  94 144 184 224 230 202 158 122  94  44  44  42  56  36  18  18 
 18   0   0   0 
  0 178 200 100  96 114 148 176 182  26  54  96 100  72  42  28  24  62  58  58  62  66  70  70  74   6   4   6  14  20  42  68 
 92 180 144 112 114 144 170 176 178  62  66  62  90 114  94  92  74 170 110  52  46  70 102 160 192  38   8   6  14  20  32  22 
 30 200 184 168 172 192 206 210 206  26  34  30  20  52  72  74  74 146 186 224 222 186 142 120 118  44  52  50  46  14  20  28 
 22   0   0   0 
  0 158 180  90  92 112 146 170 174  18  52  74  58  24   6  14  22  66  58  54  58  64  64  62  72  12   8   8  14  22  38  66 
 96 120  94  84 106 144 168 168 166  56  60  50  98 102  66  78  66 132  68  30  56  80 128 168 186  60  38  22  22  40  46  36 
 44 186 166 150 154 176 190 190 186  28  26  22  24  36  50  52  52 142 176 204 202 170 140 134 140  30  38  36  24  18  40  34 
 34   0   0   0 
  0 142 176  96 100 118 148 168 166  14  42  50  28  16  12  12  18  68  60  56  60  60  56  50  58  14  12  10  12  16  30  54 
 80  88  86  76 116 160 176 166 156  40  54  48  88  68  42  54  40 104  48  40  62 108 140 156 158  66  62  42  44  60  60  48 
 62 160 142 126 136 162 174 168 166  34  20  12  26  40  36  34  30 138 158 174 174 158 142 142 144  10   8  12  20  40  46  28 
 32   0   0   0 
  0 138 182 114 110 126 150 164 160  16  40  46  32  22  22  24  24  62  56  54  54  52  48  42  46  14  10   8   8  14  18  32 
 54  80  84  86 142 186 188 164 148  26  44  40  64  26  32  48  10 112  74  76 104 136 150 148 148  38  50  50  64  76  70  56 
 72 126 110 102 122 150 158 150 154  38  30  14  36  46  30  22  18 134 140 148 148 144 138 132 126  24  20  10  22  40  32   8 
 12   0   0   0 
  0 138 196 130 124 134 150 158 148  24  48  60  56  50  44  36  34  50  46  46  44  42  36  38  46  12  10  10   8   8  14  20 
 20  62  70 108 168 206 196 160 144  10  26   6  36  40  76  80  36 170 148 152 162 174 172 164 160  14  12  48  78  84  72  58 
 72  88  78  84 110 134 140 136 144  38  40  26  50  54  34  20  22 128 126 124 126 130 128 118 106  30  30  22  10  40  46  26 
 36   0   0   0 
  0 138 208 144 136 138 148 148 140  32  60  76  72  58  44  36  38  36  38  38  36  34  34  40  54  14   8   2   2   4   6  10 
 20  82  96 132 182 210 194 162 152  28  56  50  66  88 122 122  94   6 244 238 230 218 204 194 192  46  36  54  76  76  64  54 
 66  74  76  72  96 116 118 120 130  42  46  46  66  64  42  26  28 120 112 100 102 108 108 102 100  14  20  28  10  42  50  34 
 48   0   0   0 
  0 134 208 144 136 136 140 144 132  38  66  76  62  38  24  22  22  40  46  46  44  48  56  68  80  36  30  28  32  36  38  48 
 60 120 124 148 184 202 186 166 176  58  92  96 102 128 148 148 132  92  70  54  30   6 240 230 224  72  78  62  60  52  42  38 
 44  72  74  72  78  92  94 100 108  48  52  60  70  64  42  36  34 104  86  74  74  80  84  88  96  18  34  34   8  24  36  26 
 36   0   0   0 
  0 128 196 130 122 118 124 130 122  38  52  48  26  20  24  24  24  82  90  90  92 100 112 120 128  70  68  64  60  58  60  70 
 72 144 134 144 164 176 170 172 202  80 108 118 124 134 140 140 126 140 114  90  64  32  10   0 248  70  94  98  82  58  36  16 
 20  52  58  58  62  66  72  78  82  54  52  58  58  50  32  38  38  86  66  52  54  62  72  84  98  30  30  30  18  36  28   6 
 12   0   0   0 
  0 116 168 102  94  88  92 104 110  26  28  52  60  64  68  74  70 138 148 154 160 166 170 170 168  80  76  64  64  48  38  44 
 34 128 110 110 122 134 148 178 230  94 110 118 116 110 108 108  92 156 126 104  74  44  20   8 252  58  82 102 106  96  80  58 
 36  50  46  46  50  54  56  58  58  50  52  50  44  36  28  34  34  78  60  48  50  62  78  90 102  32  42  44  42  54  42  26 
 28   0   0   0 
  0 106 132  68  60  54  58  76  98  26  18  52  76  90  86  88  84 176 186 196 200 198 188 176 164  32  24  18  20  24  14  28 
 26  82  94 124 150 164 170 186 254 104 106 108 102  92  88  88  74 176 140 114  86  54  30  14   0  50  68  88 100 104 102  88 
 72  82  70  64  64  64  62  56  46  34  36  38  32  28  22  26  28  78  64  52  58  72  88  94  92  32  46  50  56  58  46  42 
 42   0   0   0 
  0  98  98  40  40  44  52  60  86  62  38  52  54  50  40  40  38 164 176 184 182 168 146 128 114  40  48  66  78  74  56  62 
 64 106 126 150 170 188 200 202  26 120 108 102  96  90  92  96  84 210 168 138 110  80  54  32  14  58  64  74  80  90  94  90 
 82 116 102  96  94  94  82  68  56  12  12  14  18  16  20  20  24  78  68  58  62  78  86  84  74  28  42  46  52  48  42  42 
 50   0   0   0 
  0  96  76  56  60  64  70  80  86  84  68  42  24  22  38  46  44 110 120 128 118  96  74  60  52  88  92  98  94  80  62  62 
 68 126 142 160 176 192 212 228  58 136 108  94  92  94 102 106  88 238 188 156 136 110  84  60  38  72  72  66  64  64  72  72 
 70 138 124 122 122 122 108  90  76  32  20  12   6   4  12  20  24  70  60  52  58  66  72  62  52  32  32  34  32  30  32  36 
 42   0   0   0 
  0  88  80  66  66  68  68  74  80  82  88  82  70  74  84  84  78  58  64  64  52  32  20  20  16  86  82  74  62  50  38  38 
 38 136 150 164 176 192 212   8  84 136  96  82  88  96 102  98  68 242 188 158 144 126 100  76  52  76  68  60  50  46  48  46 
 46 148 134 132 134 134 126 110 100  52  44  36  24  14   2  10  18  60  52  44  46  52  50  44  36  28  22  24  14  16  20  22 
 22   0   0   0 
  0  72  64  52  54  54  56  58  60  60  74  74  68  76  76  72  66  30  30  28  16  10  10  12  10  48  40  28  18  12  12   8 
  2 136 150 168 182 194 210  36 102 128  86  74  82  92  94  80  38 230 180 158 154 142 120  96  66  76  72  58  44  38  28  24 
 20 148 138 132 136 138 132 124 120  56  52  48  44  36  18   6   4  60  50  42  40  40  40  36  34  16  16  18  12  14  14  10 
  2   0   0   0 
  0  54  48  26  28  34  36  38  42  40  46  46  46  48  46  44  40  24  22  18  12   8  10  16  24  10   4   6  12  16  24  28 
 30 128 144 166 184 198 234  56 114 120  80  70  80  92  94  74  28 236 196 186 188 182 164 138 106 108  98  78  52  46  32  16 
 10 152 138 136 136 140 138 136 134  46  48  48  50  46  36  22  14  68  54  42  38  40  40  38  32  10  14  14  10  16  12   6 
 10   0   0   0 
  0  48  60  26  14  18  24  28  36  26  32  30  32  32  28  24  20  30  32  32  30  32  34  40  48  20  22  26  28  30  36  40 
 40 124 140 162 186 202   0  74 126 114  74  64  80 100 108  88  46  18 246 240 238 224 206 186 150 134 130 102  62  48  32  16 
  4 154 144 138 140 144 146 146 144  32  36  38  40  44  42  36  28  74  60  48  46  46  48  42  34   4  10  12  10  16  12  18 
 14   0   0   0 
  0  54  74  34  16  10  16  22  30  22  24  18  18  16  14   8   2  44  50  56  60  64  64  64  68  32  32  32  30  28  34  40 
 38 124 138 160 188 210  16  88 136 104  68  66  96 126 134 112  72  72  46  30  10 242 224 206 170 124 132 112  74  48  32  14 
  0 160 148 142 142 150 154 156 152  24  28  28  30  38  40  40  40  86  70  58  56  58  56  48  42  10   6   4   4  12  10  14 
 24   0   0   0 
  0  62  84  38  20  10  12  22  26  16  16   4   6  12  20  22  20  66  74  82  88  90  84  78  78  28  28  26  20  18  26  34 
 30 130 136 154 190 220  22  94 140  94  66  78 120 148 142 114  78 112  80  44   8 232 216 202 162  88 114 110  78  54  36  12 
  4 164 154 146 144 150 158 160 158  22  28  24  24  24  36  40  38  96  82  72  68  68  64  56  48  18   8   6   2   8   6   2 
 16   0   0   0 
  0  64  88  36  20  14  20  28  38  26  28  24  28  34  36  32  30  84  94 100 104 102  90  80  78  18  20  16  14  12  18  26 
 26 134 138 160 198 234  22  96 148  96  74  94 134 148 130 104  76 140 104  56  12 236 220 202 160  90 116 110  84  62  38  10 
  4 166 154 146 142 148 158 162 162  18  26  24  18  22  26  36  36 102  88  80  76  72  68  60  56  16  16  10   8  10   8   8 
  4   0   0   0 
  0  60  82  36  26  26  32  44  56  42  40  34  34  34  28  20  20  88  96 102 102  94  82  72  72   8  12   8   6   8  16  26 
 28 142 146 170 208 244  20 102 160 104  82 100 128 130 116 100  76 166 134  90  56  26   2 234 194 100 132 130  98  64  34  10 
  4 166 154 144 140 144 156 164 162  10  22  20  14  20  20  30  36 108  94  86  80  76  72  68  62  20  14  16  16  18  16  12 
  6   0   0   0 
  0  52  76  42  40  42  46  58  74  46  40  34  30  24  14  12   6  84  92  96  90  80  72  66  68   4   8   4   4   2  14  24 
 24 150 156 180 216 250  24 110 170 104  78  86 108 118 120 108  80 190 166 142 116  80  40  10 226 120 152 156 120  68  38  16 
  2 164 154 144 140 142 156 164 162  10  18  16   6  18  18  26  38 116 102  92  84  80  78  74  68  18  16  14  18  22  20  14 
 12   0   0   0 
  0  54  74  52  54  54  58  68  82  40  32  26  20  14  10   8   2  82  88  88  80  70  62  64  70   6   8   4   2   4  16  22 
 20 160 164 186 218   0  28 116 176  98  66  70 102 130 142 126  94 222 208 190 166 116  58  18 240 100 144 166 142  90  46  24 
  6 164 154 144 140 144 158 166 162   8  18  14   4  20  22  18  40 128 112  98  92  88  84  80  76  22  18  20  20  24  22  18 
 16   0   0   0 
  0  58  78  62  64  64  66  72  86  34  28  20  12  10  10  12   6  80  82  82  74  64  60  66  74   8   8   4   0   6  16  22 
 22 160 166 184 218   4  32 112 172  88  54  62 106 146 158 134  94 244 234 222 190 134  70  30 254  94 132 168 156 110  60  30 
 10 160 154 144 140 146 158 168 166   8  18  18   4  22  28  22  34 140 122 110 106 102  98  92  86  20  20  22  24  26  28  24 
 22   0   0   0 
  0  64  80  68  72  72  72  82  90  32  26  16  14  14  10  14  12  78  78  76  70  62  62  70  78   8   6   2   2   8  16  22 
 22 162 168 186 222  12  44 102 162  82  52  64 110 148 150 114  64 238 228 222 198 154 102  64  34 114 138 166 160 116  68  36 
 16 154 150 142 142 150 162 172 172  12  20  20   6  28  34  24  24 150 134 122 118 114 110 102  94  20  14  14  22  24  26  24 
 22   0   0   0 
  0  68  84  72  78  82  86  92 104  36  28  14  12  12  12  14  14  78  76  76  70  64  64  72  80  12   8   4   6  12  18  20 
 18 160 166 186 226  18  50  92 154  90  64  84 134 166 154 106  50 228 214 200 188 164 132  92  50 116 128 148 142 110  72  42 
 26 148 148 146 148 156 168 178 176  12  20  18   6  28  32  22  12 158 140 128 122 122 116 106  96  18   6   8  12  20  18  18 
 18   0   0   0 
  0  72  90  78  86  92 100 110 120  40  28  18  18  12   8  10  10  78  80  78  74  72  72  76  84  14  10   8   8  14  18  18 
 20 158 164 186 226  14  46  86 148 100 100 136 186 204 176 120  62 240 212 190 178 164 134  88  24 126 168 182 154 104  66  48 
 32 146 152 154 154 158 168 176 172  10  18  20   6  24  28  20   4 162 144 128 124 124 118 108  94  18   6   4   6  12  16  14 
 16   0   0   0 
  0  80  96  82  90  98 106 118 130  34  20  20  22  22  12   8   8  78  80  82  84  82  80  86  92  16  12  10  10  18  22  24 
 26 152 168 196 236  20  48  88 160 142 164 202 232 226 184 130  84  24 248 218 200 176 132  62 232 186 206 196 156 110  80  58 
 32 150 158 158 154 156 164 168 168   8  16  18   8  20  26  18   8 160 140 124 122 124 118 108  94  18   8   2   2   8  16  16 
 18   0   0   0 
  0  86 104  86  94 102 110 122 132  24  16  20  22  24  20  14  10  82  84  88  90  92  94  96 102  20  16  14  14  20  26  28 
 24 154 184 220   4  40  58 108 194 194 210 220 220 202 166 130 100  74  48  20 242 196 126  38 198 204 210 190 152 114  86  58 
 28 152 158 158 152 152 158 164 168   2  16  26  12  16  26  18   6 158 134 122 120 124 120 108  96  18   6   0   2   6  14  16 
 14   0   0   0 
  0  96 110  88  94 102 110 122 134  20   8  20  20  20  20  18  14  88  90  94  98 100 100 104 108  16  12  12  12  18  24  22 
 16 170 208 248  28  60  74 130 228 202 180 154 142 132 112  88  60  76  66  44   4 188  98   6 174 196 196 178 146 112  82  50 
 22 152 156 154 150 150 156 164 172   8  12  26  22  22  36  28   6 162 140 126 126 128 122 112  96  20   8   2   4   6   6  10 
 10   0   0   0 
  0 100 118  90  98 104 112 124 136  18   4  12  16  16  18  20  16  92  94  98 102 100 102 104 104   6   4   4   6  12  14  12 
  8 190 226   8  48  76  88 152 236 154 100 132 168 170 126  78  58  26  34  24 236 154  58 236 168 168 168 154 122  90  64  38 
 18 152 158 152 148 146 154 166 174   6   6  14  18  30  48  40  20 176 154 140 132 128 122 106  92  24  14   4   6   4   0   4 
  4   0   0   0 
  0 106 128  98 104 112 118 128 136  14   2  12  14  12  14  20  20  98  98 100 102 100  98  98  98   4   4   4   4   8  14  12 
 14 198 224   2  42  74  86 152 210 112 120 150 194 204 162 110  84 240   8  10 222 134  44 244 200 120 154 160 132  88  56  26 
 12 156 158 152 144 146 154 166 170  10  16  16   2  32  50  40  20 188 170 152 136 128 116 100  84  28  14   4   8   6   4   4 
  4   0   0   0 
  0 110 140 104 112 114 122 130 136  12   2  12  12  10  10  12  18 100 102 102 104  98  94  92  90   8   8   8   6  10  10  10 
  8 182 200 230  20  60  72 128 166 112 108 126 166 186 160 112  74 244  28  36 252 170  92  50  18 158 194 206 182 142 100  52 
 16 152 154 146 144 146 156 166 164  12  22  20  18  26  36  26   8 196 178 158 140 128 114  98  84  24   8   8  14  16  16  16 
 16   0   0   0 
  0 114 154 110 112 114 120 130 134  10   2  10  12  10   8   8  12 102 104 106 106 104  98  96  94   0   4   6   6  12  14  12 
  8 156 170 204 252  32  48  98 140  94  70  80 136 142 122  74  36  32  70  74  32 216 148 112  76 164 186 190 168 132 104  66 
 28 150 150 146 144 150 160 168 164  12  20  16  18  36  46  36  12 202 186 164 144 128 114  96  82  22   4  14  22  24  24  24 
 26   0   0   0 
  0 120 164 110 108 110 118 128 134  10   2   8  14  16  18  14  12 106 110 110 110 110 108 108 108  14  14  12  12  16  16  14 
 10 146 162 196 238  12  32  76 132  88  82 114 160 166 130  92  84  72  92  74  26 212 148 104  58 106 148 174 160 128  92  56 
 32 150 152 150 150 156 166 174 170  14  20  12   4  26  40  40  20 210 190 166 142 126 112  98  84  18   4  20  28  26  22  22 
 28   0   0   0 
  0 124 172 106 104 108 118 128 136  10   2   6  10  14  18  20  20 114 114 114 114 116 118 116 114  18  16  10  12  14  12  10 
  8 150 170 204 240  12  28  76 140 106 104 132 172 172 134  94  78  68  68  40 250 184 114  52 248 182 224 242 214 158 106  66 
 32 146 150 152 152 158 168 174 172  12  20  20   6  24  34  36  28 216 192 160 134 120 114 104  92  26  10  26  30  22  14  16 
 22   0   0   0 
  0 128 174 102 102 110 122 132 138   8   0   2   2   2   8  10  14 118 116 114 114 116 118 118 118  12  12  10  10  10   8   8 
  8 152 178 214 254  24  36  90 156 124 128 158 186 168 116  68  60  24  14 244 210 154  74 254 184 220 250   0 212 142  90  56 
 28 144 150 152 152 156 164 168 166  12  20  14   4  24  36  38  28 212 184 150 126 118 118 112  96  26  14  26  26  14   6  10 
 16   0   0   0 
  0 128 122 118 118 120 122 124 124 134 132 134 134 132 132 130 124 114 110 110 112 112 116 118 120 114 114 110 108 114 114 118 
124  20  50  92 144 194 240  28  72 178 234  36 106 164 204 238  10 102  56   6 224 184 138  98  62 114  58 236 128  28 224 192 
172 154 152 150 152 162 174 186 192 172 172 160 152 162 184 206 220 150 140 134 128 126 126 124 120 114  94 104 116 120 122 128 
138   0   0   0 
  0  66  66  64  64  64  62  60  60 132 132 132 130 128 128 126 122  60  60  58  56  58  58  60  62 116 114 112 112 112 116 116 
120 220 252  32  66  88 102 114 124 124 184 248  64 132 176 204 228 114 124 130 130 124 114  88  52   4 192 114  32 224 188 170 
160  78  76  74  78  84  94 102 106 164 160 152 148 156 168 188 204 102 106 104  92  80  70  66  66 108  98 100 112 116 120 120 
128   0   0   0 
  0   0   0   0   0   0   0   0   0   0   0   0   0   0   0   0   0   0   0   0   0   0   0   0   0   0   0   0   0   0   0   0 
  0   0   0   0   0   0   0   0   0   0   0   0   0   0   0   0   0   0   0   0   0   0   0   0   0   0   0   0   0   0   0   0 
  0   0   0   0   0   0   0   0   0   0   0   0   0   0   0   0   0   0   0   0   0   0   0   0   0   0   0   0   0   0   0   0 
  0   0   0   0 
