P2
100 100
255
  0   0   0   0   0   0   0   0   0   0   0   0   0   0   0   0   0   0   0   0   0   0   0   0   0   0   0   0   0   0   0   0 
  0   0   0   0   0   0   0   0   0   0   0   0   0   0   0   0   0   0   0   0   0   0   0   0   0   0   0   0   0   0   0   0 
  0   0   0   0   0   0   0   0   0   0   0   0   0   0   0   0   0   0   0   0   0   0   0   0   0   0   0   0   0   0   0   0 
  0   0   0   0 
  0   0   0   0   0   0   0   0   0   0   0   0   0   0   0   0   0   0   0   0   0   0   0   0   0   0   0   0   0   0   0   0 
  0   0   0   0   0   0   0   0   0   0   0   0   0   0   0   0   0   0   0   0   0   0   0   0   0   0   0   0   0   0   0   0 
  0   0   0   0   0   0   0   0   0   0   0   0   0   0   0   0   0   0   0   0   0   0   0   0   0   0   0   0   0   0   0   0 
  0   0   0   0 
  0   0  38  38  29  23  21  21  21  24  21  19  13   8   7  11  19  28  33  30  24  27  35  42  46  46  46  47  47  48  51  49 
 49  52  54  70  86  99 103 105 112 103 102 103 108  98 107 102 104 105 105 106 103  93  85  85  98 108  96  79  62  49  50  73 
 81  81  82  79  67  54  39  27  30  29  31  47  65  79  88 100  99  99  98 100  77  56  36  34  43  50  46  41  36  55 108 178 
231 217   0   0 
  0   0  38  40  33  26  23  24  27  31  30  26  19  12  11  16  23  31  35  31  25  26  33  40  46  46  47  47  47  49  54  53 
 52  53  55  72  87  93  89  85  95  98 102 103 107  97 103 100 104 105 105 105 103  94  87  88  99 105  88  71  56  47  53  71 
 76  77  79  75  64  56  38  27  29  29  32  52  74  88  95 102  99  99  98  98  76  52  33  34  42  48  43  38  34  56 109 179 
230 213   0   0 
  0   0  37  42  37  28  26  27  31  35  36  30  23  16  16  21  27  33  36  32  26  26  32  39  45  46  47  46  45  46  52  53 
 53  54  60  79  94  92  77  67  77  90 103 106 108  98 100  99 104 106 106 106 103  96  90  91 100 100  81  65  52  45  53  66 
 69  72  73  69  62  57  40  30  29  29  33  57  82  96 102 102  99  99  98  95  72  46  30  32  40  45  41  36  33  56 109 180 
230 210   0   0 
  0   0  35  42  41  32  29  29  33  36  37  31  25  20  20  25  30  34  36  33  28  28  33  40  45  46  47  46  43  44  49  51 
 51  55  67  91 106  95  71  56  65  83 106 111 110 101 100  99 105 107 107 107 103  97  92  94 101  96  78  62  51  44  51  58 
 62  66  66  65  61  60  44  36  33  31  38  66  91 103 107 102  99  98  97  90  67  40  27  29  36  42  40  36  32  56 110 179 
229 209   0   0 
  0   0  34  43  44  36  31  31  33  34  34  30  26  23  25  29  33  36  37  34  30  30  34  40  46  47  47  45  43  43  47  48 
 49  54  74 103 118 100  70  53  60  80 109 116 112 105 103 101 107 109 109 110 105  99  94  95 101  94  79  66  54  46  48  49 
 53  60  63  67  64  63  50  43  39  37  48  77  98 107 110 102  98  95  90  80  60  36  25  26  33  38  39  36  33  56 110 178 
228 210   0   0 
  0   0  33  42  44  38  33  34  34  33  31  29  27  27  30  33  35  37  38  36  34  33  33  39  46  48  48  46  44  45  47  47 
 48  54  79 111 126 104  70  53  62  81 112 120 114 107 106 103 110 112 112 113 107 102  96  96 101  94  84  72  60  48  45  41 
 46  55  63  71  68  67  57  50  45  47  61  90 105 110 111 102  97  90  78  64  50  33  24  25  30  35  37  36  34  57 111 178 
228 214   0   0 
  0   0  31  41  43  40  35  35  34  31  28  28  27  30  33  36  37  39  40  39  38  36  33  38  45  50  51  49  46  47  49  49 
 50  56  82 115 130 106  70  55  66  84 114 123 116 108 109 106 113 115 115 116 110 105  98  96 101  94  87  75  62  48  42  35 
 42  53  64  75  72  72  62  55  50  55  74 101 111 111 112 103  95  85  66  47  37  28  23  25  29  33  35  36  35  59 111 178 
228 219   0   0 
  0   0  28  39  42  40  34  33  31  27  24  26  26  30  33  36  39  42  42  42  40  36  32  37  45  51  54  52  49  50  52  51 
 53  59  83 115 133 110  73  57  70  88 116 125 118 109 110 109 115 118 118 118 113 107  99  96 100  94  87  74  60  46  39  34 
 42  53  64  76  75  76  67  56  53  62  83 109 114 113 112 103  93  81  58  37  28  23  22  25  29  33  34  35  36  61 112 179 
229 223   0   0 
  0   0  27  39  42  40  32  30  27  23  20  24  24  27  30  35  39  43  45  43  39  32  28  35  43  50  53  52  49  51  54  53 
 54  60  83 114 137 116  80  62  73  93 119 128 122 113 111 112 117 120 121 120 116 108  99  95  99  96  87  71  55  42  37  36 
 43  54  65  76  76  78  69  57  54  65  89 114 116 114 111 100  88  77  54  35  24  20  22  26  29  34  34  35  38  62 112 179 
229 225   0   0 
  0   0  27  40  43  41  30  27  26  22  18  22  23  25  28  33  39  44  46  43  36  26  22  30  40  48  50  50  47  49  53  53 
 52  58  80 111 140 125  91  69  75  96 121 131 127 119 113 115 119 122 123 122 118 109  99  94  98  96  86  69  52  39  36  38 
 44  53  65  74  76  78  71  58  55  67  91 116 117 114 109  95  79  69  51  36  24  19  22  26  28  35  35  36  38  62 111 178 
229 226   0   0 
  0   0  28  40  42  42  30  27  27  24  19  22  23  25  29  33  39  44  46  42  32  21  17  26  37  47  49  49  46  46  50  52 
 51  55  77 108 140 134 104  79  79 100 121 135 132 126 116 119 121 124 124 124 120 111 101  94  94  91  82  70  54  39  37  40 
 45  51  65  71  75  78  73  59  56  67  92 116 117 114 106  87  67  58  45  35  24  19  22  24  27  35  35  35  38  61 110 177 
229 225   0   0 
  0   0  29  41  42  44  32  29  30  28  23  24  25  26  30  34  39  44  46  41  31  19  13  21  33  46  52  51  46  45  47  49 
 50  53  74 105 139 142 116  91  85 105 122 137 135 132 120 123 124 127 127 127 123 114 103  93  87  81  74  69  60  43  39  43 
 46  49  65  70  73  78  75  61  57  67  93 116 117 113 102  79  56  47  39  32  24  20  22  22  26  34  35  35  37  60 109 177 
229 223   0   0 
  0   0  29  41  42  45  34  31  31  32  27  27  27  27  30  33  37  43  45  40  30  18  11  18  28  42  50  50  46  45  46  46 
 51  55  73 104 139 149 127 103  94 111 123 139 138 136 125 127 127 130 129 130 126 117 105  92  81  71  67  68  65  48  42  44 
 48  50  66  72  73  77  76  62  57  67  93 117 118 112  98  71  47  39  35  29  23  22  21  20  25  33  34  35  37  60 110 177 
229 220   0   0 
  0   0  30  40  41  44  36  31  31  32  29  29  29  28  31  32  34  39  42  39  30  19  11  15  23  35  41  42  41  44  46  45 
 53  59  75 106 140 152 133 110  98 114 125 142 140 139 129 129 130 134 133 134 129 120 105  90  78  67  65  68  69  53  43  45 
 51  52  69  75  74  77  76  62  57  68  94 117 117 108  91  64  41  36  32  27  24  23  20  19  25  33  34  35  36  60 111 178 
229 218   0   0 
  0   0  30  40  41  43  36  31  29  30  28  29  31  30  31  31  31  35  38  36  30  19  11  14  19  26  29  29  32  41  46  47 
 56  63  77 106 137 151 133 111  97 111 125 144 143 142 133 131 133 138 137 137 133 122 106  90  79  70  70  71  70  53  43  45 
 53  55  72  78  75  77  74  59  56  69  94 116 113 101  82  56  35  33  29  24  22  23  19  19  25  32  34  34  36  62 114 180 
230 216   0   0 
  0   0  30  39  40  41  37  30  27  27  26  29  32  32  33  31  31  33  35  34  30  20  12  15  18  22  22  19  23  35  45  49 
 58  66  78 101 129 146 129 111  98 111 126 146 144 145 138 135 137 142 141 141 137 125 107  92  83  76  77  74  70  52  42  46 
 56  58  73  78  75  76  71  55  52  68  94 114 107  90  68  47  30  29  25  22  19  20  17  18  24  31  34  33  36  65 118 183 
230 214   0   0 
  0   0  30  37  39  41  38  31  26  25  25  29  33  34  35  33  33  33  34  34  30  21  14  17  20  23  22  16  17  30  42  50 
 58  64  74  92 116 138 125 115 109 118 128 146 145 147 142 141 143 146 144 144 139 127 109  95  87  81  80  76  69  50  43  49 
 60  61  74  77  73  72  64  49  49  67  93 111  99  79  55  37  25  25  21  20  15  15  14  17  23  31  35  34  39  70 124 186 
230 211   0   0 
  0   0  29  35  37  40  38  31  27  24  24  28  33  35  36  35  35  36  36  35  31  22  15  19  23  26  24  15  16  28  41  50 
 57  59  69  85 106 129 123 123 123 129 130 144 143 146 145 146 147 149 147 147 140 127 109  95  88  81  80  76  67  49  46  54 
 64  67  76  76  69  63  52  41  46  65  89 104  89  69  44  30  21  22  17  18  12  11  12  16  23  32  35  36  43  75 128 188 
230 211   0   0 
  0   0  28  34  36  39  38  32  27  25  24  28  33  35  37  36  37  38  38  37  33  24  17  22  26  29  25  16  17  28  41  50 
 55  55  65  80  99 122 121 126 130 132 125 135 135 139 142 147 146 148 146 147 138 124 106  90  84  77  76  73  64  46  50  60 
 69  72  78  73  63  52  40  34  44  61  80  92  77  60  36  24  18  20  14  17  10   8  10  16  24  33  35  38  47  80 131 189 
230 212   0   0 
  0   0  27  33  35  39  38  32  27  25  24  28  33  35  36  36  37  40  40  38  34  25  18  24  29  31  26  18  19  30  42  50 
 53  53  63  79  96 116 115 119 122 119 107 117 119 124 132 139 139 142 141 141 132 117 100  81  76  71  71  69  60  44  53  66 
 73  75  79  69  56  42  30  29  42  55  69  77  65  53  30  18  15  17  12  18  11   8   9  15  23  32  35  38  48  80 131 188 
230 215   0   0 
  0   0  26  32  35  38  37  31  26  23  24  29  33  34  36  36  38  41  41  39  35  25  19  26  32  33  27  18  20  32  43  50 
 54  55  63  77  92 111 107 108 109 100  87  98 101 107 117 124 126 131 130 129 121 108  93  74  70  66  65  63  57  44  57  71 
 76  77  77  65  52  36  26  28  41  48  58  65  58  49  27  14  12  15  12  18  13   8   9  14  23  32  34  37  46  77 129 187 
229 217   0   0 
  0   0  26  32  35  39  37  30  24  22  23  29  34  34  35  35  37  41  42  40  35  25  19  26  33  35  29  18  20  32  43  51 
 57  58  64  76  90 108 101 101  99  85  71  82  85  90 100 104 106 113 114 114 110  99  88  72  68  64  60  59  56  47  60  74 
 76  74  74  63  50  36  24  27  39  44  51  59  56  50  30  13  12  14  12  18  16   8   8  14  22  31  34  36  43  73 126 186 
229 217   0   0 
  0   0  26  33  36  40  38  31  25  22  23  28  34  34  34  34  36  40  42  40  34  25  19  26  34  36  30  18  20  30  42  52 
 59  61  66  75  87 104  97  99  97  80  64  75  76  79  86  88  88  93  95 100 100  96  88  75  68  60  54  54  56  52  64  74 
 71  67  69  61  50  36  23  26  37  42  48  56  57  55  37  16  13  14  12  17  18  10   8  13  22  30  33  35  42  72 124 186 
229 217   0   0 
  0   0  28  36  39  42  40  34  29  26  26  29  33  33  34  35  36  39  41  39  34  25  19  27  34  36  30  18  19  29  39  50 
 58  61  67  75  85 102  95  99  99  80  65  73  73  75  83  81  79  80  81  87  93  95  92  81  68  56  48  50  57  57  67  70 
 63  56  64  60  50  36  22  24  34  42  47  54  56  58  44  20  14  15  12  15  19  11   8  13  21  29  33  38  47  76 125 186 
229 217   0   0 
  0   0  28  37  41  43  40  35  32  31  31  32  35  34  33  35  37  39  40  38  33  24  20  27  33  36  30  18  19  28  37  45 
 52  56  64  75  85 101  94  99  99  83  68  74  74  78  89  88  84  78  74  78  85  92  93  83  67  53  45  47  56  60  70  66 
 54  46  57  59  50  36  22  23  33  42  45  52  53  57  47  24  15  15  11  14  18  12   8  13  21  30  37  45  55  82 128 186 
229 218   0   0 
  0   0  26  35  39  41  39  34  31  33  34  36  37  36  33  35  38  40  40  38  32  23  20  27  33  36  30  18  19  28  35  41 
 45  50  62  77  87 102  94  98  97  82  72  77  79  85 100  99  95  83  77  74  77  86  90  82  66  53  45  46  54  61  72  62 
 47  38  51  55  49  35  22  22  32  41  45  51  51  57  48  26  16  16  11  14  17  13   9  14  23  34  44  53  63  87 130 187 
229 218   0   0 
  0   0  25  32  36  39  38  32  27  29  31  35  38  37  33  35  38  41  41  38  32  23  20  27  33  36  31  19  20  28  35  40 
 43  47  63  81  93 104  94  97  94  79  74  82  88  94 109 108 104  90  83  77  74  80  84  77  65  54  48  47  53  61  73  60 
 43  33  45  49  47  35  22  22  31  40  45  53  55  60  49  27  16  17  13  16  18  15  11  17  28  41  52  62  68  90 132 188 
230 217   0   0 
  0   0  25  31  35  38  38  31  24  24  26  31  35  37  34  36  38  41  41  38  33  24  20  27  33  36  31  19  20  28  36  42 
 45  50  68  89 100 107  95  98  92  74  73  83  93  99 112 110 106  93  88  83  77  78  77  70  61  54  49  48  54  60  73  58 
 40  29  40  44  46  34  22  23  30  38  47  59  63  65  50  27  16  18  14  19  20  17  14  21  33  48  59  66  70  90 132 188 
231 217   0   0 
  0   0  27  32  35  38  38  32  26  23  24  27  31  36  36  37  38  40  41  40  36  27  21  27  33  35  31  20  21  29  37  45 
 50  57  76  97 108 108  95  98  93  73  72  81  96 105 114 110 107  94  90  88  82  78  72  64  57  51  47  49  54  59  70  56 
 38  26  36  42  46  34  23  24  31  37  48  65  71  70  49  26  16  18  16  22  22  18  17  25  38  52  61  67  71  90 131 188 
231 219   0   0 
  0   0  31  36  37  38  38  33  29  26  25  27  30  34  36  37  37  39  41  41  39  32  24  27  33  35  31  20  21  28  37  46 
 52  61  82 104 115 112  96  96  94  77  75  81  98 111 117 109 107  96  93  92  87  77  68  59  52  47  43  47  53  56  65  54 
 36  25  36  43  47  36  27  28  32  35  49  67  74  71  46  24  16  17  15  23  21  18  18  27  40  53  61  67  70  90 131 188 
232 220   0   0 
  0   0  35  39  38  38  37  33  31  28  27  29  32  34  36  37  38  39  40  42  41  35  27  28  34  36  32  22  22  27  36  44 
 50  61  82 106 121 118 100  96  95  84  84  90 104 114 115 105 105 100  99 100  91  76  63  54  46  43  40  45  50  51  58  52 
 36  25  37  46  50  40  34  33  33  34  49  67  72  66  41  22  15  15  14  22  19  17  19  28  41  53  61  66  70  90 131 188 
232 222   0   0 
  0   0  38  42  41  39  36  33  32  30  29  32  34  35  36  37  38  39  41  43  41  35  28  29  36  38  36  27  25  28  35  41 
 45  56  78 105 124 126 107  97  96  92  97 107 115 116 111 100 100  99 101 102  93  74  58  47  40  39  38  42  44  44  52  50 
 35  26  37  47  52  47  42  38  34  34  51  69  71  61  37  22  16  17  17  23  19  17  20  28  40  53  61  67  71  90 131 188 
232 221   0   0 
  0   0  39  44  45  43  37  33  32  30  29  33  34  35  36  38  39  39  41  42  40  34  27  29  36  41  41  34  30  31  36  39 
 41  51  72 102 124 130 111 100  98 100 110 125 127 118 107  96  95  93  95  97  91  73  56  42  35  36  38  39  37  39  48  48 
 36  26  37  48  54  54  51  42  35  37  55  73  71  56  36  27  23  25  25  27  20  19  20  28  40  53  61  67  71  90 131 188 
232 220   0   0 
  0   0  40  45  47  45  37  33  32  30  30  33  35  35  36  38  39  40  41  42  40  33  27  28  35  41  43  40  36  36  39  39 
 39  49  68  97 120 127 107  96  95 102 117 136 137 121 106  95  92  85  85  87  84  72  56  40  34  34  38  35  33  36  46  47 
 37  27  36  49  56  60  57  44  36  41  61  77  72  54  39  36  34  37  36  31  21  19  19  27  40  52  61  67  71  91 132 188 
231 221   0   0 
  0   0  40  46  48  45  37  33  33  31  31  34  35  34  35  37  39  40  40  42  41  35  28  28  34  41  44  43  40  39  40  41 
 42  52  68  94 113 117  93  82  83  94 112 136 138 122 107  97  92  80  77  79  78  70  55  41  35  34  37  31  31  36  46  48 
 40  31  38  51  58  64  59  44  36  44  66  80  73  55  47  47  47  49  45  33  20  17  18  27  40  52  60  67  71  91 133 189 
231 222   0   0 
  0   0  40  46  49  44  37  33  33  32  32  34  35  35  36  37  38  39  39  41  42  37  31  30  36  42  45  45  41  39  39  41 
 47  57  71  92 106 105  76  67  69  82 100 124 129 118 103  96  94  80  75  76  75  66  53  41  36  33  35  29  30  35  47  50 
 45  37  42  54  60  66  60  44  36  45  66  80  76  61  57  58  56  55  50  34  19  15  17  27  40  51  59  65  70  91 134 189 
231 220   0   0 
  0   0  40  46  49  45  37  33  34  33  32  35  36  36  37  37  37  38  39  41  42  39  34  34  39  44  47  45  41  36  35  40 
 50  60  73  90 100  95  66  60  64  72  86 107 112 105  92  89  92  80  74  74  72  63  51  41  39  35  35  28  29  34  48  53 
 51  44  47  55  60  66  59  45  36  44  65  81  81  71  69  66  62  57  51  34  20  14  18  28  40  51  58  64  69  90 134 189 
231 217   0   0 
  0   0  40  46  50  46  37  33  34  33  33  35  37  37  37  36  36  37  39  41  42  40  38  38  42  47  48  45  42  35  32  38 
 49  58  72  88  97  90  64  63  69  72  77  91  94  89  78  80  86  74  66  68  68  61  51  43  42  37  37  30  29  33  49  57 
 57  51  51  54  58  65  59  46  37  44  66  84  88  80  78  72  65  59  51  36  22  16  19  28  40  50  58  64  68  90 134 189 
231 216   0   0 
  0   0  40  47  51  47  37  33  33  33  34  36  38  37  37  37  37  38  40  41  41  41  40  41  44  49  48  45  42  36  32  36 
 44  52  67  85  96  90  68  72  80  79  76  82  82  78  69  72  77  64  57  61  64  61  52  46  44  38  39  33  33  35  50  59 
 61  54  53  53  57  64  59  48  40  47  69  88  93  87  83  75  68  62  53  37  25  17  18  29  40  51  59  64  68  89 133 189 
231 215   0   0 
  0   0  40  47  51  49  37  33  34  35  36  37  39  38  38  38  39  40  41  41  41  41  41  42  44  48  48  45  42  37  33  36 
 40  46  62  83  96  91  73  80  89  87  82  83  80  75  67  67  69  55  50  57  62  61  55  47  44  37  40  38  39  40  53  58 
 60  55  54  53  57  63  58  48  43  51  74  91  94  88  82  74  67  62  53  39  26  17  18  28  40  52  60  66  69  90 133 190 
231 215   0   0 
  0   0  41  48  52  51  39  35  36  37  39  39  41  40  40  41  41  42  43  43  42  42  42  43  44  47  48  45  42  39  36  36 
 39  44  59  83  95  91  77  84  94  94  91  92  85  78  70  67  66  52  48  54  60  60  57  50  43  35  40  43  47  47  55  57 
 57  54  55  56  58  63  57  48  45  55  77  93  94  87  78  68  61  60  53  41  27  18  17  28  41  53  62  67  70  90 133 190 
231 216   0   0 
  0   0  42  48  52  53  43  38  38  39  41  42  44  43  43  44  44  44  45  46  44  42  42  43  44  46  47  44  41  41  41  39 
 41  46  61  85  96  92  80  88  98 100 100 100  91  80  74  69  68  55  50  54  59  59  59  53  45  36  41  47  53  53  57  56 
 55  54  56  58  60  63  57  48  46  58  80  94  93  85  73  59  52  55  52  43  29  18  17  27  41  55  63  68  71  91 133 190 
231 217   0   0 
  0   0  42  48  53  55  46  41  40  41  43  45  48  47  46  46  46  46  47  48  46  44  42  44  44  45  45  41  39  41  45  44 
 44  49  64  88  99  96  84  91  99 104 105 103  92  78  75  71  71  62  54  55  59  59  59  58  49  41  44  51  55  56  58  57 
 55  56  58  60  61  63  56  48  47  60  81  94  92  84  67  48  42  49  51  44  30  19  16  26  42  56  64  68  71  91 133 190 
231 218   0   0 
  0   0  42  47  53  57  48  44  42  43  45  48  51  51  49  49  48  48  49  49  47  45  44  44  46  46  44  37  34  39  46  47 
 46  52  67  90 103 103  92  94  98 104 104  99  88  75  77  74  77  70  59  58  61  59  58  63  54  47  49  53  56  56  59  59 
 57  58  61  63  64  64  57  48  47  61  83  95  93  83  63  40  34  45  50  45  31  19  16  26  42  57  64  68  71  91 133 190 
232 216   0   0 
  0   0  42  47  53  57  49  46  44  45  47  50  54  55  52  51  50  50  51  50  47  46  45  45  46  47  43  35  30  33  42  46 
 45  51  67  91 107 110 101  97  96 101 100  93  85  75  79  78  83  76  63  59  63  60  57  66  57  52  52  56  57  57  60  60 
 59  60  63  66  67  67  59  49  48  63  85  96  94  82  61  36  31  42  50  46  32  19  16  25  41  57  63  67  71  91 134 190 
232 213   0   0 
  0   0  41  46  52  57  50  47  45  47  48  51  56  57  54  52  50  50  51  50  48  47  46  45  47  49  44  36  30  30  36  41 
 42  48  64  88 107 112 105  98  94  98  97  90  87  79  83  80  86  78  63  59  64  59  56  67  58  53  53  58  57  58  62  61 
 60  60  63  69  71  70  61  50  47  64  87  96  94  82  60  36  31  42  51  47  32  19  16  25  41  57  63  67  71  92 134 190 
231 211   0   0 
  0   0  41  46  52  56  49  47  46  46  48  52  57  59  55  52  50  50  51  51  49  47  47  46  48  50  47  40  34  30  33  36 
 39  45  60  80  98 104 101  96  93  96  95  91  92  86  86  79  83  75  62  58  65  60  57  66  57  52  53  58  57  59  62  61 
 57  57  61  70  72  70  59  48  46  65  88  96  94  80  59  37  33  43  52  48  32  20  16  25  41  57  64  68  72  92 135 190 
231 213   0   0 
  0   0  40  46  52  57  50  46  44  45  49  54  57  59  55  51  50  50  51  52  49  47  47  46  48  50  49  45  39  34  33  34 
 37  45  57  70  82  90  91  91  91  93  91  90  93  89  86  75  75  67  58  56  65  60  57  64  54  48  50  57  56  59  61  57 
 52  53  58  70  71  66  53  44  46  67  90  96  93  79  58  38  36  44  53  49  32  20  16  25  40  58  65  69  72  93 136 190 
231 216   0   0 
  0   0  39  46  52  57  50  46  43  45  51  56  57  56  53  50  49  51  52  51  49  47  46  45  46  48  49  48  44  38  35  35 
 37  48  57  62  66  74  80  85  90  91  87  87  90  87  83  71  69  60  52  52  64  61  58  60  52  44  47  55  57  59  57  51 
 44  48  54  68  68  61  45  40  47  69  91  96  92  77  58  39  37  46  53  49  33  20  16  25  39  57  63  68  72  94 136 190 
231 217   0   0 
  0   0  39  45  51  56  51  47  45  48  53  55  53  50  48  46  48  51  51  47  46  47  45  42  41  42  46  50  47  41  38  38 
 40  52  58  57  56  64  71  82  90  94  90  89  87  84  78  69  68  58  50  49  63  60  58  57  50  42  46  55  57  57  53  45 
 38  44  50  63  63  55  40  39  50  73  92  95  89  75  58  40  39  47  54  49  33  20  15  23  37  53  58  63  68  93 136 190 
231 214   0   0 
  0   0  39  44  50  56  51  49  47  50  53  51  46  41  39  39  45  48  46  41  42  46  43  38  35  36  42  49  48  43  40  40 
 41  53  59  55  52  58  67  79  90  97  96  94  88  84  74  69  68  59  50  50  62  60  58  56  50  44  47  55  56  55  49  41 
 35  43  48  59  58  51  38  42  55  77  92  92  85  72  58  42  40  48  54  49  33  20  15  23  34  47  50  54  62  89 135 190 
230 210   0   0 
  0   0  39  43  49  56  53  51  50  50  49  43  36  31  30  32  38  41  37  33  37  43  41  35  30  31  38  46  48  45  41  39 
 40  51  57  53  52  58  66  78  87  93  96  96  91  86  73  69  67  59  52  54  60  59  58  56  51  47  50  55  53  52  45  39 
 35  43  47  57  56  50  40  46  60  80  91  87  78  66  56  41  40  48  53  47  32  19  16  23  32  43  44  47  53  81 130 188 
230 210   0   0 
  0   0  39  43  49  57  56  55  52  49  45  37  29  25  25  27  31  32  29  27  32  39  38  31  26  27  33  42  47  47  42  38 
 36  46  54  52  54  61  67  76  82  85  87  90  89  86  73  70  64  58  52  55  58  58  57  57  53  50  52  54  50  49  43  40 
 38  46  50  59  56  52  44  49  63  81  89  81  69  58  50  39  40  47  52  46  31  19  16  23  32  42  42  42  45  73 124 186 
230 213   0   0 
  0   0  38  43  50  60  59  59  56  50  42  33  26  24  23  24  25  25  22  22  27  33  32  28  24  26  31  38  46  48  42  36 
 33  41  52  54  57  64  69  75  76  75  75  79  81  81  72  70  61  55  51  54  55  56  55  57  54  51  54  54  50  49  45  42 
 42  50  54  61  58  53  46  52  65  80  86  75  61  50  45  37  39  47  51  45  30  19  17  23  33  43  42  41  40  66 118 183 
230 217   0   0 
  0   0  37  43  52  62  62  63  60  53  42  31  25  24  23  22  22  21  18  20  23  27  27  24  22  25  30  37  45  47  41  35 
 32  41  53  57  61  66  69  74  74  70  66  70  73  74  70  71  61  57  53  53  54  54  53  58  55  52  55  55  51  51  48  46 
 46  53  56  61  59  54  48  53  65  79  81  69  56  46  42  37  40  47  50  44  28  20  18  25  34  44  42  40  37  62 115 181 
230 218   0   0 
  0   0  37  42  52  62  62  63  61  52  41  30  25  24  22  21  21  19  16  18  20  22  22  21  21  25  32  38  46  46  41  36 
 35  46  57  61  63  66  68  74  74  70  65  68  69  69  69  72  63  61  59  55  53  51  52  59  57  54  56  55  52  53  50  47 
 47  53  55  60  58  54  49  54  66  76  77  64  52  45  43  40  44  49  49  43  28  21  19  27  36  42  40  39  36  61 113 180 
230 216   0   0 
  0   0  37  42  52  61  58  58  55  47  37  28  24  23  21  20  20  18  16  17  18  19  18  19  21  26  33  40  47  47  41  37 
 39  51  61  63  64  66  66  74  75  71  66  68  67  66  67  69  61  59  61  55  52  49  51  59  58  55  55  55  52  53  50  47 
 47  52  54  58  58  54  50  54  65  74  73  59  50  45  46  45  50  52  49  41  28  22  21  29  37  41  38  38  36  60 113 180 
229 212   0   0 
  0   0  38  42  50  58  52  49  44  37  32  26  22  22  21  19  19  18  17  18  17  17  17  18  21  26  34  42  50  49  41  38 
 40  51  60  61  62  64  64  72  73  69  65  68  65  63  62  58  50  49  54  53  52  49  49  56  57  54  54  55  53  53  50  47 
 47  52  53  57  57  54  49  53  62  69  68  55  47  45  49  51  55  53  46  39  27  22  23  31  37  40  37  36  35  59 113 179 
230 211   0   0 
  0   0  39  41  48  53  44  39  34  29  27  24  22  20  19  18  18  19  18  18  18  17  17  19  21  26  33  43  52  51  42  37 
 38  47  55  57  58  61  62  66  66  62  61  64  63  60  53  44  36  36  44  50  53  49  48  52  53  52  52  55  53  53  50  47 
 47  52  53  57  56  54  48  50  57  63  61  51  45  44  50  54  58  50  41  36  27  24  26  33  36  38  35  35  33  58 113 179 
230 214   0   0 
  0   0  38  41  46  47  35  30  27  25  25  24  21  19  18  17  18  19  19  19  17  17  17  19  21  24  31  40  50  49  40  34 
 34  40  48  51  52  56  57  56  54  50  53  58  59  53  43  30  24  27  37  48  52  50  47  48  50  49  50  53  54  52  49  46 
 47  51  52  55  55  52  46  47  50  54  53  48  44  43  49  56  57  45  38  36  30  29  32  36  34  35  33  33  32  58 113 179 
229 217   0   0 
  0   0  37  40  43  42  30  26  26  25  26  24  21  18  16  15  17  18  18  17  16  17  17  18  19  22  27  33  41  40  35  31 
 31  37  43  45  46  52  52  47  42  40  46  53  53  44  33  22  20  26  35  45  48  48  48  46  47  46  46  48  53  51  47  44 
 45  49  49  52  52  50  46  45  45  45  46  44  43  42  47  54  54  42  37  38  34  34  38  38  32  31  30  31  31  57 111 177 
229 220   0   0 
  0   0  36  39  41  39  29  27  27  26  27  26  22  18  16  15  16  17  16  16  15  16  16  17  18  19  22  25  29  29  28  28 
 32  38  40  40  40  47  47  40  36  35  43  50  46  34  26  19  21  29  36  40  40  43  46  43  42  43  40  42  50  48  42  40 
 42  46  46  47  48  48  47  45  41  40  40  41  41  40  43  50  50  41  39  40  35  36  41  39  30  28  26  28  29  55 109 176 
228 218   0   0 
  0   0  35  37  40  38  29  28  27  26  26  26  22  19  16  15  16  16  14  14  14  15  16  16  16  17  17  17  19  19  22  27 
 35  41  40  36  35  43  43  37  33  34  43  47  40  28  24  19  23  32  36  35  33  38  42  37  37  37  33  35  45  42  36  35 
 38  42  41  43  44  46  46  45  40  36  36  39  39  37  39  44  45  40  41  39  33  35  40  37  29  26  24  25  27  54 107 174 
228 216   0   0 
  0   0  35  36  39  37  28  26  24  23  22  24  21  18  16  15  14  13  12  13  13  15  16  15  15  15  13  13  15  15  19  27 
 38  44  40  34  33  40  41  37  36  37  44  48  41  31  29  25  27  35  37  34  33  36  37  31  30  31  27  29  37  34  30  31 
 35  38  37  39  41  44  44  44  38  34  34  37  38  35  36  37  38  38  39  36  30  32  38  37  31  27  24  26  29  56 108 175 
228 213   0   0 
  0   0  35  34  36  35  25  21  20  19  18  20  18  16  14  13  12  11  11  12  13  14  15  13  14  14  12  12  15  15  19  28 
 40  45  41  34  34  40  43  43  44  44  50  54  50  44  42  37  36  40  41  40  38  36  33  25  23  24  22  23  28  25  23  27 
 31  34  33  35  38  40  39  39  35  31  32  35  36  34  33  32  32  34  35  33  28  31  36  38  34  30  27  28  32  60 111 176 
229 211   0   0 
  0   0  34  34  34  31  22  16  16  16  14  16  15  13  12  11  10  10  11  12  14  15  15  14  15  16  16  17  19  20  22  30 
 40  46  42  37  39  45  50  53  56  57  61  67  66  61  59  53  49  48  48  48  47  41  32  23  19  19  17  18  21  18  18  22 
 26  29  28  30  33  34  33  33  30  27  28  32  34  30  28  27  26  28  30  30  29  32  37  39  36  32  30  31  36  63 113 177 
229 212   0   0 
  0   0  34  34  32  28  20  15  15  15  13  15  14  13  14  14  13  14  16  17  19  20  21  20  21  22  23  25  27  26  26  32 
 39  44  42  41  45  52  58  65  69  71  75  81  81  77  74  69  64  59  56  57  55  47  36  26  20  17  16  16  16  14  14  18 
 20  23  23  25  27  27  26  27  25  23  25  28  29  26  23  21  21  22  25  27  28  33  36  37  35  32  31  32  36  62 112 177 
230 214   0   0 
  0   0  31  32  31  27  21  18  20  20  19  21  20  20  22  22  23  24  26  26  28  30  31  29  28  29  30  33  33  30  28  31 
 35  39  42  46  52  58  65  74  79  82  85  91  92  88  84  80  74  68  64  63  61  52  42  34  26  21  18  17  15  12  12  15 
 16  18  19  20  21  20  20  21  20  20  22  24  25  22  19  17  16  19  22  25  27  31  33  33  31  30  30  30  32  58 108 175 
229 215   0   0 
  0   0  25  29  30  29  27  27  29  30  29  30  29  31  33  35  36  36  36  34  35  38  38  34  31  30  32  34  32  29  25  26 
 28  33  40  49  57  63  70  78  84  88  92  97  98  94  89  86  81  74  69  67  65  56  48  43  35  28  23  21  18  15  13  14 
 14  15  15  16  16  15  16  17  17  18  19  21  22  20  17  15  15  18  22  24  24  28  28  27  25  26  26  26  26  51 104 173 
229 215   0   0 
  0   0  18  23  28  33  35  36  37  37  37  37  36  38  42  43  43  41  39  35  35  36  36  32  28  26  27  28  25  22  19  18 
 19  26  37  50  62  67  73  81  87  93 100 105 105 100  94  91  86  80  74  71  68  60  54  51  44  36  31  29  25  21  18  18 
 17  17  15  15  14  13  13  15  15  16  17  19  21  20  17  15  16  19  22  22  20  22  22  21  20  21  20  20  20  45 100 171 
228 216   0   0 
  0   0  11  17  24  32  37  38  37  36  35  36  35  37  41  42  40  36  33  29  28  27  26  23  20  19  19  19  17  14  12  12 
 13  20  34  51  66  72  77  84  90  98 107 114 114 108 100  97  93  87  81  76  72  64  59  56  49  42  38  36  32  28  25  24 
 23  23  19  17  15  14  13  15  15  15  16  17  19  19  18  16  16  19  20  19  17  18  17  17  17  17  16  15  14  40  97 170 
227 216   0   0 
  0   0   8  12  19  27  32  32  31  28  27  27  27  29  32  32  29  25  22  19  18  17  15  13  12  12  12  12  11   9   9  10 
 12  20  34  53  70  76  81  88  95 103 114 122 122 113 105 102  99  94  88  83  77  68  62  59  53  46  43  41  38  34  31  30 
 29  29  24  22  19  17  16  17  15  15  15  15  17  17  16  15  14  16  16  15  14  15  15  15  15  14  13  11  11  38  96 170 
227 217   0   0 
  0   0   6   9  14  20  23  22  21  20  18  18  19  19  21  20  17  15  13  12  11  10   9   9   9   9   9   9   9   9   9  12 
 16  25  38  56  72  78  83  91  99 108 118 125 124 115 106 105 102  98  92  87  80  70  64  60  53  48  46  44  41  38  34  33 
 32  33  29  27  25  23  20  20  17  15  15  15  16  16  14  13  12  13  13  12  12  13  13  14  14  13  12  11  11  38  96 170 
227 217   0   0 
  0   0   6   8  11  15  16  15  15  15  13  13  14  13  12  11  10   9   8   9   8   8   8   8   9   9  10  11  11  11  12  16 
 21  31  44  60  74  80  84  94 103 111 121 127 124 115 108 108 107 103  99  92  85  73  65  61  54  48  47  46  43  39  36  34 
 34  35  32  32  30  28  25  24  20  17  16  16  17  16  14  12  11  12  12  11  10  11  12  13  13  11  11  12  13  39  96 170 
227 218   0   0 
  0   0   5   7  10  13  12  11  11  11  11  10  11  10   9   8   8   8   8   8   9   9   9  10  11  12  14  15  16  15  16  20 
 27  37  50  65  77  82  86  96 105 115 125 130 126 119 114 114 114 111 107 102  93  78  67  61  54  48  49  47  44  41  37  35 
 34  36  34  35  34  31  28  27  23  20  19  19  19  17  14  12  11  12  12  11  10  10  11  12  11  10  11  13  14  40  96 169 
226 220   0   0 
  0   0   5   7   9  11  10   8   8   9   9   9  10  10   9  10  10  10  10  11  12  12  13  13  14  15  17  19  19  18  19  23 
 30  42  55  71  80  84  87  97 107 121 132 136 132 128 123 123 122 119 115 112 104  85  71  63  54  48  50  48  45  42  38  36 
 35  37  36  37  36  33  30  29  26  24  23  22  21  18  16  14  13  13  13  11  10  10  11  11  10   9   9  11  14  40  96 169 
226 222   0   0 
  0   0   4   6   8   9   9   8   8   9  10  10  11  12  13  14  15  14  14  14  15  16  17  17  16  17  19  22  23  22  22  25 
 32  45  59  75  84  87  90 101 113 128 140 144 142 139 132 128 127 123 119 118 109  89  73  65  54  49  50  49  46  43  39  37 
 36  38  38  39  38  35  31  30  29  28  28  26  24  21  18  16  16  15  14  12  11  11  11  11  10   9   8  10  12  38  95 169 
226 220   0   0 
  0   0   4   6   8  10  10  10  11  12  13  14  14  15  18  19  20  19  18  16  17  18  19  19  18  18  21  23  25  24  24  26 
 33  46  61  77  87  89  93 105 118 134 145 149 150 148 137 131 129 123 120 120 110  90  74  66  54  49  49  49  46  44  40  37 
 36  38  39  40  39  36  32  32  32  32  31  29  26  23  20  19  18  17  16  14  13  12  12  11  11  10   9   9  10  37  94 169 
226 216   0   0 
  0   0   6   8  11  13  13  14  15  16  16  17  17  18  21  22  22  21  19  17  18  19  20  20  19  19  21  24  26  26  25  27 
 33  46  62  79  90  93  98 110 123 137 148 154 157 155 144 137 133 125 123 121 112  94  77  65  55  50  49  50  46  45  40  37 
 35  37  39  41  40  37  33  33  34  35  34  31  28  25  23  21  20  19  18  16  14  14  13  12  12  11  10  10  10  36  94 168 
227 213   0   0 
  0   0   8  11  14  16  16  16  18  18  18  18  18  20  22  23  22  21  19  18  18  20  21  20  19  20  22  25  27  27  26  27 
 33  46  63  80  93  97 101 112 125 138 150 158 162 161 153 149 143 134 131 127 118 103  83  66  57  51  48  51  48  45  40  37 
 36  37  40  41  40  37  34  34  35  37  36  34  30  27  24  23  21  20  20  18  16  15  15  14  13  12  11  11  11  36  94 169 
227 210   0   0 
  0   0  11  13  16  18  18  19  19  19  18  18  19  20  22  22  21  20  18  18  19  20  20  20  19  20  22  25  27  27  26  28 
 33  46  64  81  95  98 104 114 127 142 156 163 167 165 162 162 155 143 137 131 124 111  90  68  59  53  49  50  50  45  41  38 
 36  37  39  41  40  37  35  34  36  38  39  37  33  29  26  24  23  22  21  20  18  17  17  16  15  14  12  12  11  37  94 169 
227 208   0   0 
  0   0  13  15  18  20  21  21  21  19  19  18  19  20  21  21  20  18  17  18  19  20  20  20  19  20  23  25  27  27  27  28 
 34  47  64  82  95  99 103 113 129 148 162 170 172 171 170 172 165 152 141 135 128 117  97  74  62  55  50  50  51  46  41  38 
 37  37  39  41  41  38  35  34  36  40  42  41  36  31  28  26  25  24  24  21  19  20  20  18  17  16  14  13  13  38  95 169 
227 206   0   0 
  0   0  14  16  19  21  22  22  22  20  19  19  19  20  21  20  19  17  17  18  19  20  20  20  20  21  23  26  27  28  28  29 
 34  46  64  81  94  98 103 113 132 153 168 174 176 175 174 177 171 160 148 140 132 121 103  80  66  58  52  49  51  46  41  39 
 38  37  40  42  41  38  35  34  36  41  44  44  39  34  30  28  28  27  27  24  22  22  23  21  20  18  16  15  15  39  96 170 
227 204   0   0 
  0   0  17  18  21  23  24  23  22  21  20  20  20  20  20  19  18  17  17  18  20  20  20  20  20  22  24  26  28  29  29  30 
 34  45  62  80  93  98 103 113 132 152 168 174 176 175 175 178 176 169 158 149 139 126 107  84  70  61  54  50  49  46  41  40 
 38  39  41  42  42  39  36  35  37  42  45  45  41  36  32  30  30  30  29  26  23  23  24  23  22  20  18  17  16  41  97 171 
228 204   0   0 
  0   0  20  21  24  25  25  24  23  22  21  21  21  20  19  19  19  18  18  19  20  21  21  20  21  22  24  26  28  29  29  30 
 35  45  61  77  91  99 107 118 138 156 171 176 177 174 173 174 176 174 165 153 141 125 104  86  72  63  55  50  47  45  42  41 
 39  40  41  43  42  39  36  35  37  42  46  46  43  39  34  32  32  32  31  27  24  23  24  23  23  21  19  18  18  42  98 171 
228 205   0   0 
  0   0  23  25  27  27  26  25  24  23  22  22  21  20  20  20  19  19  19  19  20  21  22  21  22  23  25  27  28  29  29  31 
 36  46  60  75  90 102 116 131 148 162 174 179 181 177 175 172 174 174 166 153 137 119  99  85  73  64  54  50  46  45  43  41 
 40  39  41  42  42  40  36  35  37  41  45  46  44  40  35  32  32  32  32  28  25  24  24  23  23  22  20  19  20  44 100 172 
228 207   0   0 
  0   0  25  27  29  29  28  26  25  23  23  22  22  21  21  21  21  20  20  21  22  22  23  23  24  25  27  28  29  30  30  32 
 37  47  62  78  95 111 127 145 161 172 182 188 190 189 185 179 178 174 164 149 131 112  93  82  72  63  52  49  45  44  43  41 
 39  39  40  41  42  40  38  36  37  41  45  46  44  40  35  32  32  33  32  29  25  24  24  24  24  24  22  21  22  46 101 173 
228 211   0   0 
  0   0  25  28  30  31  29  28  26  24  23  22  22  22  22  23  23  23  23  23  24  24  24  24  25  27  28  30  30  30  30  32 
 38  49  64  82 102 119 134 151 167 178 189 196 199 200 197 189 185 174 161 146 128 108  89  78  68  60  51  49  44  43  42  41 
 39  38  39  41  42  42  39  37  37  40  45  46  43  40  35  32  33  33  32  29  25  24  24  24  25  25  24  23  24  48 103 173 
228 216   0   0 
  0   0  26  29  31  31  30  28  27  25  24  24  23  23  23  23  24  24  24  25  25  25  25  25  26  28  29  30  31  31  31  33 
 40  51  68  87 107 120 129 144 163 179 191 195 197 201 201 196 189 171 153 140 125 106  86  74  63  56  50  49  44  42  41  40 
 38  38  39  41  43  43  40  38  39  42  46  47  44  41  37  33  33  34  33  29  25  24  24  24  25  26  24  24  24  49 103 173 
228 219   0   0 
  0   0  27  29  31  32  30  29  28  27  26  25  24  23  23  24  25  25  25  25  25  25  25  25  26  27  29  30  30  30  30  34 
 41  54  72  90 105 113 118 131 154 175 186 187 188 192 195 195 188 167 147 137 126 108  87  75  62  54  49  50  44  42  41  39 
 37  38  40  41  42  42  40  39  41  45  49  49  46  43  39  35  34  34  32  29  25  24  23  24  25  25  24  23  24  48 102 173 
228 219   0   0 
  0   0  28  30  32  32  30  29  28  28  27  27  25  25  24  25  25  24  24  24  24  24  24  25  25  27  28  29  29  29  30  34 
 43  56  73  87  98 103 106 122 147 168 177 177 179 186 190 194 187 166 146 140 132 116  96  84  69  55  50  50  45  44  43  40 
 37  37  39  41  41  40  38  38  42  47  51  51  48  45  42  37  35  34  32  28  25  24  24  24  25  26  25  24  25  49 103 173 
228 217   0   0 
  0   0  29  31  32  32  31  29  29  28  28  27  26  25  25  26  26  24  24  23  23  23  24  25  25  27  28  29  29  29  30  36 
 45  57  70  81  92  97 103 119 143 162 170 172 178 187 192 197 192 175 157 151 144 129 107  93  77  60  52  51  47  44  43  40 
 38  38  39  40  40  38  36  36  40  46  51  52  50  47  44  39  36  34  31  28  25  24  24  25  27  28  27  27  28  51 105 174 
229 217   0   0 
  0   0  29  31  32  32  31  30  30  29  28  28  27  26  26  27  27  26  25  24  24  24  25  25  26  27  29  29  30  30  33  39 
 47  56  66  78  91  99 105 122 143 160 171 176 184 193 198 200 196 182 167 159 151 135 111  95  80  64  55  52  48  45  43  41 
 39  39  40  41  40  38  36  36  38  43  49  52  51  49  45  40  36  34  31  27  24  24  25  26  29  30  30  30  31  55 108 176 
229 219   0   0 
  0   0  29  31  33  33  32  31  31  30  30  29  28  27  27  28  28  28  27  27  26  26  26  26  27  28  29  30  31  32  35  40 
 47  53  62  76  91 101 109 125 145 160 173 180 190 196 198 197 193 180 168 158 148 132 106  86  75  63  54  52  48  44  42  41 
 40  39  41  42  41  39  37  36  38  42  48  52  52  51  46  40  36  35  32  28  25  24  25  27  30  31  31  32  34  58 110 177 
229 221   0   0 
  0   0  30  32  33  33  32  32  32  32  31  30  29  29  28  28  29  29  29  28  28  28  27  27  28  29  29  30  31  32  34  39 
 46  53  62  77  92 102 113 130 149 162 172 181 190 194 195 194 190 177 162 148 137 122  96  76  67  59  51  50  47  42  40  40 
 40  39  41  42  41  39  37  37  38  43  48  53  53  52  46  39  35  35  33  30  26  25  26  28  30  31  31  32  33  58 110 177 
229 219   0   0 
  0   0  31  33  33  33  31  31  32  32  31  30  30  30  28  28  28  29  29  29  29  28  28  28  28  29  29  30  31  31  33  37 
 44  55  65  79  92 104 119 137 154 163 170 176 184 186 187 188 184 170 154 138 126 111  88  69  62  55  48  49  46  41  39  39 
 39  39  40  42  40  38  37  37  38  43  47  52  51  51  44  38  34  35  34  31  27  26  27  29  30  30  30  31  32  56 108 176 
229 215   0   0 
  0   0   0   0   0   0   0   0   0   0   0   0   0   0   0   0   0   0   0   0   0   0   0   0   0   0   0   0   0   0   0   0 
  0   0   0   0   0   0   0   0   0   0   0   0   0   0   0   0   0   0   0   0   0   0   0   0   0   0   0   0   0   0   0   0 
  0   0   0   0   0   0   0   0   0   0   0   0   0   0   0   0   0   0   0   0   0   0   0   0   0   0   0   0   0   0   0   0 
  0   0   0   0 
  0   0   0   0   0   0   0   0   0   0   0   0   0   0   0   0   0   0   0   0   0   0   0   0   0   0   0   0   0   0   0   0 
  0   0   0   0   0   0   0   0   0   0   0   0   0   0   0   0   0   0   0   0   0   0   0   0   0   0   0   0   0   0   0   0 
  0   0   0   0   0   0   0   0   0   0   0   0   0   0   0   0   0   0   0   0   0   0   0   0   0   0   0   0   0   0   0   0 
  0   0   0   0 
