P2
100 100
255
  0   0   0   0   0   0   0   0   0   0   0   0   0   0   0   0   0   0   0   0   0   0   0   0   0   0   0   0   0   0   0   0 
  0   0   0   0   0   0   0   0   0   0   0   0   0   0   0   0   0   0   0   0   0   0   0   0   0   0   0   0   0   0   0   0 
  0   0   0   0   0   0   0   0   0   0   0   0   0   0   0   0   0   0   0   0   0   0   0   0   0   0   0   0   0   0   0   0 
  0   0   0   0 
  0  53 120 143 119  96  86  84  87  90  85  72  54  36  33  49  78 108 124 117 105 113 139 165 180 184 185 187 189 194 199 198 
199 207 230  25  86 131 154 169 176 164 154 160 161 155 158 159 159 163 165 164 149 118  92  97 133 154 124  61 253 210 223  22 
 60  69  68  51  12 215 161 123 116 119 139 193   1  55  99 131 141 139 139 119  57 228 163 147 170 189 183 164 168   8 209 193 
 89 191  50   0 
  0 120 164 152 139 111  96  98 109 119 117 104  84  57  50  75 105 126 132 125 107 114 139 162 178 185 187 188 190 199 210 212 
210 213 241  45  92 107 100  98 117 137 149 159 158 148 147 151 157 163 164 162 150 125 100 107 140 141 107  46 244 204 235  28 
 44  53  54  40  12 229 179 123 114 119 156 237  48  95 128 142 143 139 137 119  74 246 164 144 172 181 174 155 168  80  72  19 
 91 185 169   0 
  0 151 160  24  62  45  22  29  44  48  55  63  65  45  39  59  66  51  13  40  19  33  56  50  23   4   3   3   8  25  16  13 
 14  22  84 133  85  32 103 138 129  67  27  22  25  18  20  13  20   5   3   9  45  63  31  50  66  51 141 137 105  22  93  95 
 47  40  38  65  76 102 112  38   5  11  93 171 155 107  72  24  10   4   7  92 186 171  75  37  58  18  42  40  70  42 237 230 
137 153  85   0 
  0 147 166   9  57  51  24  28  37  28  31  54  58  41  39  55  54  38   7  38  24  25  52  51  26   7   1  10  14  33  30  10 
  6  36 114 155  77  67 115 106 134 114  65  29  36  31   4  14  27   9   8  13  41  54  26  45  37  76 143 121  84  13  82  78 
 58  51  47  55  49  87 109  50  19  21 117 199 163  97  46  15  13   5  20 107 197 171  63  43  57  22  36  34  78  49 238 226 
124 151  74   0 
  0 141 169  22  47  55  25  21  25  14  19  45  44  31  39  49  43  28   8  34  24  24  47  49  26   7   2  14  10  26  31  20 
 19  64 154 178  82 138 151  56 119 160 108  34  46  42  16  20  32  14  13  19  42  47  21  37  12  87 131 108  76   5  58  69 
 69  54  34  23  27  74 102  63  44  47 149 216 156  78  27  31  18  21  49 126 199 161  52  43  57  27  25  30  80  53 236 221 
122 148  70   0 
  0 136 170  37  30  52  25  17  12  11  24  32  28  26  41  43  34  21  11  29  25  20  38  49  29   8   7  16   7  17  20  14 
 25  97 195 188  69 190 184  35 109 189 140  30  50  42  26  25  38  21  21  27  47  47  22  29   2  84 113 106  88  29  28  60 
 74  57  31  16  31  65  93  69  57  77 179 214 131  56  24  46  32  52  96 147 181 140  42  35  52  32  15  23  81  53 232 216 
130 145  75   0 
  0 131 168  44  16  44  24  13   4  15  22  19  11  25  38  34  25  18  14  27  29  19  24  50  37  14  16  22  15  18  14   7 
 27 119 224 191  49 221 200  31 113 197 154  24  55  35  24  27  41  25  24  29  49  49  29  20   7  70  94 103  98  56  33  45 
 71  70  61  31  36  59  84  66  53  97 196 195  96  33  30  57  51  88 138 161 152 109  31  27  42  31  13  12  85  51 227 213 
145 144  89   0 
  0 123 163  50   7  35  21   5  19  31  25  14   6  23  26  23  22  21  19  24  25  21  11  50  47  25  21  29  22  23  20  18 
 34 126 231 193  38 237 206  26 120 193 155  19  60  32  17  27  42  24  23  29  49  52  36  12   8  58  80 101 106  76  49  24 
 71  83  83  36  29  52  79  58  37 111 198 164  59  17  34  67  71 119 164 150 115  74  18  25  34  25  12   3  93  49 221 212 
162 145 107   0 
  0 114 158  55   4  34  31  23  35  41  28  20  18  28  27  25  24  21  18  18  26  34  18  54  55  34   7  21  14  21  18  17 
 34 121 225 202  28 239 214  35 125 188 149  22  65  38  15  26  39  23  21  28  48  58  44   5   5  52  84 112 114  83  45  12 
 74  88  90  41  15  40  81  57  28 125 196 134  31  12  42  79  88 137 173 128  77  41  11  27  32  21   8   8 102  46 216 212 
175 147 122   0 
  0 109 157  60   5  41  43  27  32  35  21  22  19  30  34  36  33  23  11  24  48  55  38  67  65  41  14  18   8  19   9   4 
 27 116 217 218  28 229 225  57 123 185 144  29  67  54  22  29  36  22  18  26  50  67  52   6   4  49  97 126 119  77  26  24 
 70  87  88  44   8  28  82  60  32 137 196 113  14  20  58 100 105 138 163 117  62  16  21  27  33  22   7  13 106  41 212 213 
184 148 131   0 
  0 109 159  61   5  48  53  17  20  31   3  18  13  22  32  41  41  27   4  40  70  67  44  79  75  44  16  18  15  27  21   9 
 23 112 214 237  58 201 236  90 111 181 141  36  62  68  34  32  33  21  14  24  53  74  60  10  16  52 101 128 120  67   7  31 
 59  84  84  44  18  19  80  64  34 143 196 104   7  32  82 132 127 131 136 105  65   8  25  24  37  27   4  13 105  36 209 216 
190 148 134   0 
  0 112 161  57   8  47  59  15  20  37  19  18  13  22  32  40  43  28   8  53  83  68  37  85  88  53  11  15  13  21  28  16 
 19 105 212 251 103 155 234 125  97 169 138  46  49  73  44  34  31  23  18  25  55  79  71  32  41  72  89 104 119  73  15  34 
 43  80  82  40  27   7  75  69  31 144 196 100   9  45 111 166 143 119 106  86  61   8  19  22  43  32   2  11 103  33 209 220 
190 148 131   0 
  0 115 163  53  12  41  60  18  20  38  32  23  16  21  30  35  41  29  12  59  87  71  24  83  99  74  20  19  20   8  21  20 
 20  96 206   3 145 107 220 147  86 150 128  54  34  68  49  34  30  25  22  27  57  82  84  64  67  85  70  58 107  88  23  32 
 30  76  84  33  28   5  68  72  25 144 197  98  13  61 140 191 145  96  77  67  47   8   7  20  49  35   5  10 101  33 211 222 
183 148 123   0 
  0 117 163  50  15  31  56  15   8  22  27  20  15  15  24  27  40  36  17  57  86  75  10  70 100  91  50  36  24  10   9  20 
 36  91 197   6 173  66 195 148  63 126 117  60  26  59  48  28  29  27  26  29  58  88 101  91  84  70  37  14  85  98  25  29 
 29  74  89  30  20  10  62  75  22 145 198  97  22  83 165 205 136  66  53  49  30  10   7  19  52  36   7  10 100  37 213 220 
172 148 113   0 
  0 119 161  46  15  23  52  20   6  10  12   9  13  13  15  15  35  42  26  49  79  76  13  51  84  92  82  77  54  32   9  29 
 56  90 186   0 182  31 171 141  21 111 117  65  23  51  47  22  31  32  31  32  61  97 117 105  87  49   8  15  70 103  29  32 
 34  75  93  28  12   6  63  75  27 148 195  90  43 111 183 206 119  46  43  38  17  13  14  20  54  36   8   9 103  45 215 215 
159 149 104   0 
  0 120 159  43  13  18  48  29  14  17  11  12  10  13   8   3  21  34  25  37  68  75  19  34  55  65  74  83  79  66  27  41 
 66  86 168 236 183  30 157 138   4 111 129  70  19  44  51  28  38  34  31  34  66 109 127 105  81  50  39  25  73 108  30  42 
 42  75  90  17   4   7  74  77  42 155 189  75  75 144 194 194 102  41  42  35  19  18  17  24  53  37   8   8 113  57 216 206 
143 151  96   0 
  0 120 155  40  14  12  44  39  17  16  13  23  14  14  14  11   8  17  12  23  58  71  21  27  32  23  31  48  79  92  56  52 
 64  77 142 210 193  55 135 114  35 107 131  71  11  32  49  39  46  35  29  31  68 118 130  99  73  48  36  31  88 109  21  57 
 51  70  79   6  14  28  90  80  59 166 183  56 109 175 197 170  85  39  39  33  27  29  20  31  53  41   9  10 128  72 215 190 
123 152  87   0 
  0 119 148  37  18   5  40  45  22  10  16  31  20  12  13  16  15  13   6  18  53  66  20  30  31  17  28  21  62 100  77  61 
 54  68 123 183 197  72  88  76  80  97 108  65   4  12  34  39  42  30  25  29  71 121 129  89  60  33  21  42 101 101  13  71 
 59  63  62   9  36  64 110  76  78 173 174  49 140 191 186 138  65  35  34  32  33  30  22  37  57  46  13  22 145  83 208 170 
104 152  79   0 
  0 116 141  34  21   7  35  45  27  10  15  35  26  12   8  12  16  18  16  23  53  65  18  36  35  21  43  29  52  99  86  62 
 39  58 112 158 186  83  33  39  70  53  61  63  40  27   2  17  18   9  11  27  80 124 130  87  57  34  24  51 108  82  31  81 
 64  58  38  33  68  99 118  63  98 168 161  73 157 192 170 107  45  28  27  26  34  23  25  45  63  47  17  35 158  84 195 153 
 94 152  77   0 
  0 112 136  32  22   8  30  44  28  12  13  36  28  14   3   4  12  15  15  24  53  65  16  41  35  18  51  32  50  96  86  55 
 26  47 104 140 169  91  33  30  24  47  85 110  98  86  63  38  31  28  25  41  95 132 142 101  69  50  38  56 109  56  58  85 
 59  45   8  64  98 117 104  51 108 148 145  98 153 176 156  86  33  25  17  15  35  10  29  53  67  46  20  45 165  80 183 143 
 96 152  82   0 
  0 108 132  33  23  10  28  44  29  12  15  36  26  13   5   4  15  14  13  24  53  64   9  46  34  20  54  30  51  93  80  47 
 16  39  99 129 152  86  57  75  92 135 145 153 139 132 118  94  81  70  67  77 114 138 151 110  68  52  44  56  99  28  88  85 
 46  27  23  90 113 115  72  51 102 118 124  95 122 150 146  72  27  20   8   5  39   8  28  56  69  46  22  50 166  77 179 141 
107 151  91   0 
  0 105 129  35  25   9  30  46  32  12  22  38  22  10   7   7  20  14   9  25  56  64   4  51  33  22  60  30  54  92  75  47 
 24  38  88 117 138  69  54  73 103 153 141 150 140 146 147 138 132 119 110 107 120 130 140  97  46  40  41  46  76   9 105  78 
 24   7  44  99 114 106  42  58  85  84  96  63  75 123 142  64  14   9  11   7  41  18  25  56  70  46  21  47 160  76 185 146 
118 149  98   0 
  0 104 129  37  27  10  34  50  33   7  26  42  21   5   7  11  24  19   4  28  59  63   4  56  35  20  67  35  54  91  78  56 
 33  36  72 102 128  55  42  40  79 133  89 108 105 125 137 142 152 151 137 114  99  97 111  83  40  43  41  33  45  27 105  58 
 17  33  50  93 108 105  36  60  71  58  70  34  35 105 150  76   3   1  14  15  38  31  21  56  69  46  20  40 151  75 194 155 
123 148 100   0 
  0 106 134  42  30  14  37  52  38  17  24  40  21   4   4   8  22  22   5  30  59  61   5  59  38  16  71  40  49  87  84  67 
 36  31  60  86 118  47  28  10  73 128  32  58  51  74  81  90 111 128 127 105  66  51  84  86  63  62  47  30   9  41  86  29 
 55  59  45  77 101 108  41  56  68  48  57  34   7  83 158 100  14   5  10  23  28  40  14  55  67  46  24  41 149  69 195 161 
124 148 100   0 
  0 110 142  47  30  13  34  46  39  34  31  33  17   0   5  10  18  19   7  29  57  58   8  58  37  15  72  43  44  80  83  74 
 49  41  61  78 109  40  15  13  73 132  29  34  13  45  31  11  24  55  81  89  61  18  59  96  95  79  40  38  25  47  55  31 
 83  71  49  56  96 111  47  50  71  49  49  38  15  50 151 119  24   9   4  27  17  42   8  53  66  51  42  66 156  57 182 158 
125 148 101   0 
  0 110 145  50  24   3  31  35  20  24  31  31  19  11   3  15  17  13   4  29  57  53  12  54  36  13  72  44  41  72  70  68 
 62  64  81  85 104  35  11  17  67 121  36  34  31  74  73  71  64  40  18  57  72  45  37 100 114  85  28  42  48  56  26  66 
 97  65  67  38  90 111  51  44  75  50  42  33  24  27 135 127  34  15   4  27   9  39   7  53  70  68  71  89 157  38 162 149 
126 148 103   0 
  0 105 139  53  31  15  31  37  17  12  13  19  12  17   4  19  20  11   8  32  59  49  15  52  36  11  71  44  39  65  55  47 
 48  71 107 102 102  27  17  14  67 101  22  49  61 102  92  82  93  85  42   4  53  62  41  95 111  81  27  34  57  70   7  98 
103  50  78  36  78 107  52  40  75  52  43  30  25  20 128 129  39  18  10  24   7  34  13  60  86  93  94  95 142  17 146 141 
123 149 103   0 
  0 101 130  46  30  13  29  46  29  35  37  32  12  15   7  19  22  11  11  34  59  49  15  52  36   9  69  44  37  62  51  35 
 31  80 136 124  98  24  27   4  78  86  10  61  67  98  72  49  81  88  60  41  13  43  49  88  93  67  29  25  55  77   4 118 
110  36  76  36  60 101  50  36  70  58  57  51  47  41 135 132  39  14  13  27  15  32  22  73 103 108  97  78 117   1 138 138 
118 152 101   0 
  0 102 126  39  27  11  27  51  27  20  36  43  32   6   7  16  19  12   9  31  57  54  11  51  35   8  66  43  36  63  56  43 
 45 100 160 139  86  32  35   8  91  80  31  78  72  84  47  26  69  76  48  53  30   8  51  80  75  53  21  22  48  74  14 128 
116  28  69  33  43  96  45  33  61  65  84  77  59  64 153 134  36   8  13  29  19  28  28  82 112 107  79  52  99 248 136 140 
118 155 102   0 
  0 110 132  36  22  10  24  47  34  10  16  31  35  17   4   9  13  13   1  23  54  63  16  46  33   8  62  41  35  64  64  52 
 55 113 170 141  69  56  45   9  93  80  29  91  96  81  28  30  62  67  34  46  48  39  61  73  64  50  22  30  41  65  26 127 
119  16  66  37  33  90  42  33  48  68 109  91  41  87 173 130  32   3  15  26  16  20  30  86 109  94  62  40  93 243 136 144 
123 157 107   0 
  0 124 144  33  15   4  21  36  32  22  14  23  28  21  10   6   9  13   7  11  42  64  27  38  32   8  59  40  30  62  69  57 
 59 118 172 141  59  81  66  11  76  78  49  97 113  72  10  38  47  54  38  50  69  76  78  75  62  48  26  41  39  57  36 114 
115   3  73  46  33  83  49  35  29  67 125  96  12 110 183 120  30   9  24  23  20  11  36  87 104  85  56  37  93 243 136 147 
129 159 113   0 
  0 139 157  27  15   7  21  25  22  21  17  26  24  17  11   7   8  11  12   6  32  57  28  32  34  15  57  47  24  54  65  56 
 68 128 182 157  62  91  96  27  52  67  90 121 108  42  39  51  31  25  29  45  92 110  95  82  60  40  24  43  41  58  42  92 
107   4  81  53  31  74  59  37  13  66 133  91  15 128 176 103  26   2  26  18  21   2  42  86 101  82  54  37  94 243 136 148 
133 160 117   0 
  0 150 167  25  25  25  27  19  14  14  12  23  15  10  10   9   7  10  14   0  31  53  24  32  39  21  55  59  32  43  51  43 
 67 134 196 183  83  77 116  45  34  61 119 139  91  28  66  56  37  28  20  29 104 133 110  85  52  27  20  34  45  58  42  70 
 97   6  85  60  24  62  67  49  20  71 140  80  34 136 151  82  36  39  42  22  26   6  42  82 100  83  55  39  93 241 136 148 
132 160 116   0 
  0 156 175  26  21  36  38  19  12  11  11  20   9   7  11  11   7   9  12   4  33  52  21  34  46  21  39  59  43  39  34  20 
 53 127 202 204 108  56 120  49   7  61 126 123  80  79  86  54  38  52  62  57  97 133 121  84  35  17  15  25  37  54  41  50 
 88   4  87  69  32  47  69  67  24  86 147  68  65 137 115  70  70  77  66  43  36   5  37  81 100  84  57  40  93 241 135 146 
130 159 114   0 
  0 159 180  29  10  39  46  19  11  10  13  19   6   4  12  13   8   7   9   2  33  52  22  31  51  31  16  42  39  32  24  11 
 43 115 189 203 119  80 143  83  59  88 135  90  63 114  99  55  43  55  67  67  78 115 124  85  25  13  12  28  24  53  43  36 
 80  15  86  77  46  32  69  82  15 103 148  52  88 127  83  78  92  92  74  68  48   8  35  84 100  83  59  41  95 244 134 141 
131 157 116   0 
  0 160 183  32   5  44  47  17   8   9  13  16   3   2  11  13  10   7  10   4  27  51  29  26  51  37  11  25  25  11  10  16 
 54 108 167 178 104 121 179 121 110 138 173 112  57 120  98  53  60  58  36  41  55  98 115  79  28   7  15  28  21  60  50  27 
 73  34  83  80  52  19  78  91   4 115 144  38  93 110  74  84  84  72  76  97  63  14  40  88  99  80  59  43  98 249 135 136 
130 156 117   0 
  0 160 184  35   6  47  46  15   5   8  10  14   5   7  10   8  10   8  10  10  17  45  34  31  50  38  14  19  25  14  17  33 
 67 101 142 142  74 141 175  93  98 143 191 155 101 127 101  45  58  71  18  19  46  91 102  66  30   5  18  24  24  68  61  24 
 65  47  73  71  49   6  85  94   1 119 143  43  80  98  81  75  58  44  83 118  74  10  48  90  96  76  56  45 102 255 137 133 
123 156 111   0 
  0 160 184  37   5  49  48  13   3   7   8  15   8   7   4   3   8  10  12  12   9  33  31  34  48  36  11  22  34  27  24  56 
 76  93 125 115  44 140 141  20  50  93 158 158 132 143 113  65  55  80  38  32  47  83  87  50  31  21  26  25  21  75  77  30 
 58  51  52  51  45   5  83  92   4 117 149  67  63  88  77  64  49  45  90 122  79  11  52  88  92  73  54  43 104   4 139 132 
114 156 102   0 
  0 160 185  40   7  52  52  13   2   3  10  17   8   4   1   2   4  11  14  10   4  19  22  30  42  28   9  24  38  36  14  63 
 79  96 125 107  22 128 107  46  63  39  84 111 112 125  98  75  69 100  66  51  39  67  73  41  31  24  30  33  19  76  91  38 
 44  43  25  31  45   7  75  86  15 116 159  89  50  71  62  61  54  56  94 117  81  18  50  86  89  73  54  40 103   6 141 133 
108 156  96   0 
  0 160 187  43   6  55  57  14   2   7  14  17   8   5   5   8  12  15  13   5   1   7  11  19  32  18  13  24  36  39   2  49 
 69 100 138 118  20 112  82  77  78  55  27  36  53  76  56  59  74 106  62  52  23  48  63  38  32  19  21  35  36  73  91  38 
 21  31   9  18  43   8  66  75  21 121 164  94  28  49  49  58  51  58  96 112  82  25  47  87  90  76  54  37 100   4 143 135 
104 156  93   0 
  0 161 189  44   9  56  62  15  13  17  19  18  12  12  13  15  17  17  13   8   5   5   7  13  24  16  12  24  31  35  12  29 
 47  91 148 133  29  92  56  77  63  62  55  38  37  54  33  21  61  87  37  50  21  29  54  45  43  17  10  35  50  68  72  27 
 17  22   7  15  38   4  61  61  21 126 161  83  14  50  61  67  50  52  90 108  87  33  44  90  95  80  56  36  96   0 144 136 
102 156  93   0 
  0 164 191  43  14  51  66  24  18  20  21  22  20  20  21  22  20  18  17  17  13   6   5   9  17  15  10  24  23  25  24  19 
 33  82 154 141  31  75  37  75  55  54  66  67  71  66  46  15  56  73   5  45  23  13  41  55  57  14  29  41  52  55  45  10 
 17  10  10  19  31   4  60  50  29 131 153  67  24  65  85  88  61  42  73 102  93  40  40  94 102  84  56  34  93 252 143 136 
104 156  96   0 
  0 167 192  42  20  41  64  29  18  20  21  26  27  27  24  21  19  17  18  18  19  11   4   8  11  13  15  27  14  10  28  30 
 35  82 157 142  34  68  32  72  54  39  49  56  82  67  42  26  57  77  24  35  20   3  25  57  70  27  45  50  39  34  22   5 
  8   5  18  19  22  12  60  43  40 134 144  54  34  83 116 109  70  43  49  93  98  48  35  98 111  87  52  31  92 249 141 136 
108 156 100   0 
  0 168 191  43  29  31  59  31  18  20  24  29  29  29  25  20  17  16  16  13  20  17   8  10   8   3  23  36  23  24  20  26 
 32  84 156 142  46  70  47  59  49  23  13  51  94  62  26  26  52  84  45  28  16   3   8  47  77  43  49  47  24  17  12  14 
 12  18  25  23  18  20  61  39  47 138 138  45  41 100 146 119  65  52  25  84 101  55  30 102 119  88  48  29  92 248 140 137 
109 157 101   0 
  0 168 189  44  37  22  52  28  17  20  25  31  28  29  26  20  17  16  14  12  17  14   9   9   9   7  34  45  32  50  34   2 
 20  84 155 147  62  68  64  34  37  26  29  68  94  45  13  30  48  87  60  22  14  12  13  28  72  42  41  36  15  13  12  14 
 15  22  28  26  22  31  65  40  52 143 135  41  48 118 170 120  44  65   7  77 104  60  27 103 124  88  44  29  93 249 140 138 
103 159  95   0 
  0 167 187  44  41  15  45  23  13  18  23  31  26  23  24  15  10   8   7  13  15  11   8   7  11  13  46  50  19  52  57  28 
 28  88 158 159  76  43  62  22  20  28  41  61  71  29  22  29  33  86  67   9   7  23  24  10  60  28  26  25  10  16  15  11 
 10  17  28  28  26  40  73  46  55 150 132  35  54 130 181 118  26  74  13  74 108  63  25 101 127  88  41  31  96 251 139 136 
 93 159  85   0 
  0 165 185  44  42  11  40  18   6  12  19  32  26  16  23  15   7   4   1  12  15  10   8   7  16  15  50  56  26  25  51  40 
 39  90 158 168  97  22  49  35  12  21  33  38  50  41  26  11  10  87  72   5   4  30  28   4  56  19  20  17   4  18  13  10 
  8  17  37  32  17  42  80  52  59 159 128  29  58 136 181 114  24  78  20  76 111  64  23 100 128  89  41  32  98 252 137 132 
 88 157  80   0 
  0 163 184  45  42  10  39  17   5  12  25  34  25  10  27  19   7   4   4  10  16   8   5   5  16   8  42  59  48  14  24  31 
 41  85 139 159 128  84  63  41  18  20  27  14  31  37  29  22  42  90  68  17   8  32  24   9  60  24  28  18   4  20   7  27 
 29  31  54  43   4  56  89  51  71 168 123  22  63 139 173 103  27  75  21  80 113  64  21  99 129  93  43  31  97 253 135 128 
 93 156  85   0 
  0 160 184  48  43   9  42  22   8  20  36  32  17  12  30  20   4   6   5   9  18   9   5   5  16   5  22  47  55  35  11  16 
 44  81 101 120 135 118  83  46  24  21  29  18   9  27  52  51  59  90  62  37  20  30  13  20  66  31  41  28   9  15  22  52 
 47  46  71  53  24  80  97  38  92 174 116  13  69 139 163  91  28  69  18  82 115  65  20  96 130  97  44  31  98 255 132 125 
102 156  94   0 
  0 157 183  50  44   6  42  26   6  31  39  20  16  32  36  23  10  10   4  18  17  10  12  17  27  28   9  24  48  42  22  18 
 53  80  58  65 104 110  85  55  27   6  16  10  18  38  66  55  50  76  48  50  34  25   5  28  66  26  46  37  12  11  42  67 
 50  55  82  61  42  97  90  20 115 174 105   4  76 134 152  83  29  64  13  82 116  68  18  92 127  96  49  41 106   4 130 124 
104 156  96   0 
  0 156 180  48  45   3  36  25  16  34  26  19  46  58  56  40  29  18  29  37  25  12  24  32  41  46  38   3  36  39  23  20 
 56  75  26  26  58  83  83  75  48  21  35  23  20  42  65  42  43  71  35  50  41  20  12  31  58  16  48  41  10  22  54  67 
 33  53  78  60  49  96  65  39 134 166  86  18  82 124 138  77  29  60   8  83 116  71  14  86 118  90  62  65 127  17 135 124 
 95 155  87   0 
  0 156 176  44  48   6  29  22  16  19  18  52  74  77  69  59  54  44  58  52  41  21  34  42  40  49  57  27  22  34  18   5 
 52  71  13  24  25  62  82  87  63  21  19  33  38  55  62  28  41  69  33  45  36  15  14  31  48  18  44  32  13  34  59  57 
 14  50  66  47  39  80  38  68 142 148  59  41  89 111 120  71  26  56   4  84 115  70  13  76 100  75  60  74 146  38 150 129 
 86 153  76   0 
  0 156 173  41  52  17  25  26  16   5  39  72  78  67  56  59  64  63  69  55  55  32  40  50  36  46  67  46   5  28  24   9 
 48  74  23  19  22  56  76  81  64  50  34  22  34  66  65  27  42  60  23  34  23  12  11  26  39  20  34  13  21  38  52  39 
 17  50  57  34  29  64  28  80 137 125  31  67 102 103 104  61  28  52   8  84 112  65  15  67  83  53  36  59 147  55 174 145 
 91 152  75   0 
  0 155 172  42  58  30  26  31  29  29  53  71  58  35  29  42  53  60  60  48  60  44  45  51  27  37  63  58  21  21  36  25 
 42  78  33   2  37  55  61  59  54  70  78  65  44  62  60  35  51  51  13  24  18  14   8  16  31  15  21   5  20  28  38  26 
 33  55  56  30  31  53  23  80 127 104  22  90 110  96  86  46  33  49   8  84 108  59  16  64  78  41  10  29 129  61 196 168 
110 152  85   0 
  0 152 172  49  67  39  25  32  44  54  68  67  39  14  10  22  34  43  41  38  55  48  46  43  18  31  52  60  36  17  45  34 
 28  78  48  24  44  48  45  35  33  59  78  79  64  56  44  40  56  40   9  16  16  16  12   4  25   9  15  15  19  22  33  28 
 41  53  47  21  31  48  15  75 114  84  36 105 108  79  61  26  38  46  10  85 103  51  18  64  78  36   8  13 107  59 211 189 
132 152  97   0 
  0 149 171  57  75  40  12  17  43  70  83  66  29  10   8  11  17  27  22  28  41  41  39  33  14  34  49  59  38  17  46  33 
 28  84  63  36  39  34  35  23  15  34  36  50  48  41  21  35  55  37  27   8   8  15  19   8  25  11  12  17  17  19  29  22 
 33  41  34  13  28  43   9  70 102  65  49 107  96  57  36  12  41  37  14  86  96  42  22  66  73  29  14  18  92  55 218 203 
144 152 101   0 
  0 148 169  60  78  36  14  20  47  79  87  63  24  12  13   8  11  20  10  19  27  31  31  20  17  42  52  58  33  20  42  25 
 47  93  66  32  25  20  32  26  15  35   7  18  22  25  17  27  46  20  28  22  14  14  31  19  22  10   5  15  10  11  24  12 
 24  33  29  15  23  37   5  66  90  49  57 103  78  36  24  30  48  26  26  85  87  35  26  67  61  18  18  17  88  53 221 209 
141 151  94   0 
  0 149 168  57  74  31  40  57  77  88  80  55  23  12  13   8   9  15   3   8  13  18  18  14  26  48  57  59  32  27  41  14 
 53  87  50  14  14  14  34  34  13  35   9   7  16  23  34  56  65  42  26  27  20  10  36  28  15  10   4  11   8   9  24  12 
 21  28  25  17  17  33   1  60  79  42  65  97  60  15  23  41  44  17  42  82  77  27  31  64  48   8  17  14  89  53 223 210 
132 150  83   0 
  0 152 167  48  65  34  65  78  90  83  62  42  20  12  14  10   5   8   6   4   1   5   5  15  30  50  63  65  33  36  46   8 
 50  80  47  26  26  22  35  42  37  43  23  17  24  34  63 100 104  89  64  26  15  12  29  35  21  17  10   4   8  11  24  12 
 20  25  21  15  13  32  10  53  72  48  69  87  45   5  27  38  24  36  57  75  65  17  37  55  35  10  18  14  91  57 225 211 
131 151  80   0 
  0 154 165  38  50  46  83  80  74  55  35  26  18  14  14   8   4   3   6   4   5   2   7  16  27  47  66  73  32  39  54  21 
 47  78  60  43  41  36  42  59  74  71  54  39  36  59  96 120 105  93  80  41   5  18  15  32  27  21  18   8   7  14  24  11 
 20  23  19  14  14  34  19  44  66  59  68  69  32  18  39  32  17  65  57  56  49  26  45  39  18  17  20  14  94  63 227 211 
140 151  88   0 
  0 152 163  32  34  56  82  56  39  20  10  18  20  16  14  10  10   4   2   7   7   2   7  14  22  43  65  80  54  53  61  32 
 41  69  60  50  49  44  48  72  91  83  70  51  52  87 114 104  64  66  81  57  17  16   7  20  24  24  28  25   9  20  27  14 
 22  23  22  21  20  34  23  28  54  63  60  48  23  21  48  31  41  75  38  33  39  39  47  19  10  23  22  15  99  66 227 211 
154 149 100   0 
  0 148 160  27  22  55  65  21   8   4   7  20  25  19  13   8  12   9  11  13   8   5   7  12  19  37  58  80  81  76  60  27 
 30  48  41  43  51  46  48  68  71  59  65  45  65 101 104  65  21  58  70  53  40  27  15  19  27  30  37  45  25  31  36  24 
 29  27  27  31  26  26  18  12  34  50  47  33  18  21  51  38  50  65  18  22  28  32  33  23  28  26  26  20 104  65 226 215 
166 147 107   0 
  0 144 155  23  13  49  50  10   7   3   3  19  29  23  13   1   8   9  13  12   9   8   7  10  15  28  47  70  82  77  51  24 
 40  34  13  32  48  47  44  56  39  36  58  29  76  93  71  26  38  60  44  38  51  46  31  36  38  41  48  61  43  48  50  36 
 38  32  32  35  29  17  12  19  26  33  34  24  18  23  49  45  45  43   9  19  16  23  12  39  41  24  23  24 110  64 226 221 
169 145 104   0 
  0 141 149  21   9  45  43  11  12  14  15  17  28  23  14   2   8  15  15  12   8   8   4   7  12  20  34  48  54  51  42  49 
 57  26  18  25  38  41  31  37  11  35  52  10  72  64  40  22  51  54  16  18  29  41  37  49  48  50  51  68  58  62  53  38 
 41  34  34  34  28  18  12  25  35  24  24  20  16  20  41  49  43  25   8  31  24  32  16  40  43  21   7  15 115  63 224 225 
164 144  95   0 
  0 140 143  17  14  46  49  29  29  29  29  24  28  23  15  11  15  18  13   8   8  10   6   9  10  13  18  21  19  21  45  72 
 66  17  36  26  25  33   9  29  38  49  54  32  76  76  75  67  63  50  23  24  13  14  38  55  53  52  47  64  65  69  52  41 
 41  32  32  34  31  26  26  32  42  24  21  21  14  16  28  43  44  31  24  40  24  35  21  27  41  30  13  22 122  61 218 223 
153 145  85   0 
  0 139 138  11  18  50  60  39  33  31  31  30  30  25  20  17  16  11   7   8   9   8   4   4   4   7  12  18  20  22  50  79 
 67  10  41  27  32  44  40  61  76  80  83  80 107 120 121 110  85  61  49  54  48  28  46  51  42  45  43  54  59  63  49  48 
 45  36  36  39  39  39  43  44  46  30  28  26  18  26  31  40  44  42  34  32  10  32  26  14  37  34  22  31 128  59 209 216 
143 147  79   0 
  0 137 136   5  18  52  61  31  20  19  19  19  20  14   6   7   7  12  19  23  25  24  25  27  29  34  43  50  49  41  48  71 
 61   8  32  27  52  66  71  87 100 106 111 111 124 132 132 129 108  81  66  66  68  68  70  52  21  24  26  34  42  44  40  48 
 49  43  41  45  47  50  51  48  46  33  34  34  29  39  41  43  45  47  38  22   8  32  25   5  27  24  14  27 126  53 203 212 
142 149  81   0 
  0 133 134  10  23  47  50  18  14  18  19  20  23  29  38  45  51  56  58  58  58  60  62  59  54  53  58  61  54  40  32  51 
 50  24   8  33  63  73  81  90  95  99 104 100 104 108 108 111 103  85  67  60  66  85  88  72  44  21   7   7  21  26  29  38 
 42  42  39  43  48  53  52  47  41  30  33  35  34  41  40  40  39  40  34  22  22  31  22  21  26  17   3  18 120  49 205 217 
149 150  87   0 
  0 121 129  21  17  35  42  45  55  60  62  61  63  70  77  84  89  87  79  70  68  69  66  56  42  35  38  33  24  20   7  38 
 52  45  27  47  65  69  76  74  68  70  76  70  68  73  71  76  80  72  54  44  58  84  86  86  76  54  34  21  20  13  10  21 
 26  31  33  38  43  45  42  38  31  24  28  29  27  33  31  26  23  28  26  19  27  32  31  38  37  27  22  28 117  52 216 229 
159 149  91   0 
  0  99 118  39  10  24  52  67  69  69  69  66  66  73  80  82  78  67  52  38  31  26  23  27  14   9  19  21  34  41  40  52 
 65  67  65  70  65  61  68  63  52  57  67  60  53  59  54  55  66  65  48  37  53  75  72  82  89  75  58  50  48  39  24  13 
  5   5  14  21  26  28  27  24  20  19  23  23  15  22  21  10  12  26  21  14  29  39  43  47  43  39  39  42 113  59 232 243 
169 147  93   0 
  0  73 100  58  40  26  35  40  33  26  24  24  24  34  34  26  17  15  23  24  30  41  48  53  48  46  52  58  63  62  56  56 
 64  83  97  99  74  57  62  60  55  65  75  68  65  71  59  54  65  69  58  44  54  67  58  66  80  75  64  63  63  58  48  41 
 36  29  19   7   8   7  11  11   9  13  17  19  11  14  18   7  14  23  14  19  29  38  42  39  35  36  40  44 110  67 248 255 
178 144  95   0 
  0  49  75  62  65  51  25  17  25  34  39  39  37  43  43  46  58  67  70  68  69  76  81  78  66  59  60  61  60  53  41  33 
 44  84 119 125  86  55  59  61  64  78  83  70  69  77  62  53  64  72  68  58  62  64  46  51  66  60  51  54  59  59  53  49 
 48  47  42  31  24  17  12   8   1   5  11  18  16  13  13   7  13  21  22  27  26  27  27  24  23  26  31  34 107  76   6   7 
184 141  97   0 
  0  33  53  53  68  67  58  62  65  66  68  69  68  74  80  87  92  88  81  72  68  68  66  57  46  41  40  38  32  22  11  14 
 42  88 129 139  91  50  55  63  70  84  83  51  50  72  50  38  49  60  62  59  67  64  41  42  55  44  36  39  45  47  40  36 
 37  42  47  43  42  37  28  19  12   1   4  11  13  13  17  16  17  24  27  27  22  19  16  13  13  16  18  16 106  82  14  11 
187 140  99   0 
  0  26  38  36  54  60  61  66  62  57  55  55  56  65  77  82  77  67  55  44  39  35  28  20  14  11   8   4   3   7  18  35 
 61  97 129 136  89  45  54  68  72  81  74  29  42  69  40  27  41  53  59  61  74  70  43  42  50  32  21  26  32  34  26  19 
 20  28  38  41  46  45  37  30  26  12   5   5   4   8  14  14  13  15  16  17  16  15  12   9  10  12   8   2 108  82  15  12 
189 140 101   0 
  0  23  32  24  35  35  40  43  40  35  31  31  33  38  45  45  38  29  21  15   9   4   0   5   8  13  20  24  26  26  33  49 
 73 102 125 125  82  43  57  75  74  79  69  23  46  64  41  38  50  62  71  79  92  88  53  46  51  26  12  21  28  30  23  12 
  9  14  24  31  37  39  34  33  35  24  17  15  11  13  16  11   4   5   5   8   8  11  11   9  13  11   4   8 108  77  11  11 
194 139 105   0 
  0  21  29  19  24  18  24  27  27  23  18  16  15  14  11   5   2   4   7  10  14  17  19  20  22  26  30  31  31  29  34  51 
 76 102 122 115  72  38  56  78  81  90  73  37  56  69  62  60  62  69  76  91 117 115  72  54  54  21   8  21  26  29  24  13 
  7   9  15  20  27  31  25  28  35  30  27  23  17  20  19  14   7   5   5   9   3   5   8   8  12   9  11  13 110  73   6   9 
203 137 112   0 
  0  19  27  17  19  13  15  13  11   8   4   3   4   8  16  23  26  25  24  24  25  28  30  27  22  23  27  27  28  27  30  47 
 78 104 121 108  62  35  56  84  99 108  83  59  73  84  74  59  54  56  59  75 122 135  89  67  59  17   5  20  25  29  25  14 
  8  10  14  16  22  29  21  21  29  32  33  29  25  27  24  20  17  13  11  12   5   4   4   4   8   7  12  20 113  73   6   9 
208 136 116   0 
  0  17  25  16  14   5   5   7  12  14  16  18  18  24  32  37  38  36  30  23  22  24  24  22  17  18  24  22  22  23  23  42 
 80 108 122 104  55  33  62  96 115 117  80  57  71  83  71  41  34  37  29  49 117 142  95  75  64  17   0  16  23  27  25  13 
  5  10  10  12  20  29  20  16  24  30  32  30  29  29  25  21  19  17  17  16  12   8   4   4   7   7   3  16 113  76  11  12 
202 136 110   0 
  0  18  26  19  20  16  18  23  27  27  26  26  25  29  33  31  29  27  22  14  14  14  12  12  11  14  21  19  12  14  14  36 
 79 112 125 106  54  36  70 104 118 111  72  47  56  76  79  48  40  38  19  43 116 144 101  81  65  20   0  13  21  25  28  16 
  4  12   9   7  17  29  19  13  20  25  26  28  28  28  25  21  18  17  20  19  14  11   8   7   8  11   6   6 110  79  15  16 
190 137  97   0 
  0  24  35  28  29  25  24  25  27  24  20  17  17  24  22  14  10  13  15   7  10  11   7   7   5  11  20  20  11  10   8  32 
 77 116 131 112  61  42  72 103 111 103  72  49  46  72  90  77  73  62  43  55 113 147 122  90  62  26   2  10  22  26  31  18 
  1  15  14   4  16  27  16   9  14  18  24  29  30  27  22  18  15  14  18  21  15  12  13  12  10  11   8   7 105  79  17  19 
178 139  84   0 
  0  33  45  29  28  21  20  20  17  12   8   6   9  16  12   0   7  12  12   2   8   9   1   6   1  11  20  20   8   5   4  29 
 75 120 136 119  67  39  66  97 108 106  83  56  40  60  84  97 106  88  63  67 107 151 153 107  61  35   4   4  23  31  31  18 
  3  15  16   2  16  24  13   7  14  13  21  32  34  28  21  16  15  13  15  21  18  14  15  16  14  14  10   7 101  77  18  20 
166 140  73   0 
  0  43  53  27  25  19  19  18  12   7   4   2   8  12   8   7  12  15   9   3   8   6   2   5   0  13  20  19   8   3   4  28 
 74 122 139 123  68  34  61  96 118 121  95  63  42  51  69  89 112  99  66  63  92 143 173 127  67  43  13   4  20  36  30  18 
  4  12  16   4  15  22  13   4  17  18  22  35  40  33  24  18  17  17  17  19  17  18  19  19  17  18  14   9 100  75  16  19 
156 140  64   0 
  0  51  59  23  23  17  14  13  11  10   5   3   7   9   5   8  14  14   5   7   8   4   0   3   3  14  20  17   8   4   7  27 
 73 121 140 123  68  34  59 104 139 136  97  58  39  42  49  61  99 107  81  66  82 131 176 144  81  52  24   2  16  39  30  16 
  7   9  17   7  14  23  15   4  23  25  20  33  44  37  27  20  20  21  23  25  18  20  22  23  21  21  18  14  99  72  13  16 
147 140  56   0 
  0  58  65  23  23  16  11   8  10  11   7   6   5   6   4   9  13   8   3   9   8   3   0   1   5  15  19  16  10   7   8  24 
 68 118 140 122  69  36  59 113 154 142  88  38  16  18  21  29  77 107 100  85  90 127 171 150  91  60  36   6  14  38  28  13 
  8  11  18   7  14  24  16   5  27  31  15  25  43  39  28  19  20  22  24  28  17  14  16  21  21  22  20  15  97  69  11  13 
138 141  50   0 
  0  68  74  27  26  18  12  10  10  11   8   8   6   0   5   7   8   5   5  10   8   4   3   2   7  14  17  16  11   5   5  22 
 62 112 137 122  75  45  65 119 157 141  85  31   3   8  10   2  40  86 101  93  99 131 164 144  93  65  45  19  17  31  23  13 
  8  12  15   5  14  24  16   5  28  33  14  18  38  40  30  17  17  18  22  26  14   5   5  11  15  20  16  13  96  67   8  11 
134 143  49   0 
  0  80  87  30  27  16  10  11  11  11   8   7   5   5   3   4   7   7   7   8   8   5   6   6  10  13  16  15  11   4   5  24 
 60 104 128 121  89  70  95 139 157 134  83  34  17  17   4  15   8  50  86  97 113 145 155 127  90  69  51  29  20  21  18  13 
  7   8  12   4  13  24  17   4  27  34  16  12  31  38  30  12   8   9  20  28  16   4   1   5   8  16  14  10  97  65   4   7 
136 144  53   0 
  0  91  99  27  22  16  14  12  11  10   7   5   7   7   7   8   8   8   8  10   9   8   8  11  14  16  18  14  10   5   8  27 
 60  99 121 123 111 110 136 161 155 124  86  55  53  58  48  24   9  41  88 116 138 158 142 106  84  75  55  31  20  13  15  13 
  7   5  12   7   9  22  18   4  24  33  19   6  25  36  31  11   1   3  17  28  17   4   2   4   7  15  16  13 100  63   0   1 
142 144  62   0 
  0  98 107  20  15  14  17  15  14  10   5   4   5   7   9  12  15  16  16  17  15  12  10  11  15  18  18  14  10   5   8  29 
 62 100 125 137 138 137 148 153 134 111  91  74  76  87  91  72  45  60 100 131 150 158 129  93  79  77  54  29  22  11  12  14 
  9   5  11   8   3  18  20   7  19  32  21   5  24  35  32  11   4   3  16  28  19   4   1   4   8  14  18  16 101  61 251 251 
154 144  77   0 
  0 101 112  20  12   8  14  14  16  13   8   7   6   7   8   9  12  15  16  15  13  11   9   8  14  15  14  11   7   5   8  32 
 67 106 135 152 146 122 122 134 116  96  75  45  36  47  71  74  69  98 117 131 149 157 125  91  80  71  44  27  24  11  11  13 
 10   4  11  12   5  15  21  10  16  31  22   7  24  32  32  12   5   4  17  29  20   4   0   3   5   8  12  10 100  60 245 246 
170 144  94   0 
  0 104 115  19  10   5  12  12  14  15  13  12   8   5   4   7   7   8   8   7   5   4   4   5  11  12  10   7   2   0  10  37 
 74 114 143 151 126  92 113 153 149 112  64  40  44  31  18  44  93 139 127 115 135 156 127  93  77  59  30  24  28  11  10  14 
 10   5  12  13   6  11  18   9  22  34  25  15  26  31  34  18   6   4  19  30  20   5   2   5   6   4   8   0 100  59 242 245 
181 144 105   0 
  0 108 117  17  10   5  12   9  10  12  13  13  11   7   6   8   4   1   1   3   4   4   3   4   9  12  10   7   7   7  15  44 
 80 121 139 130 101  86 116 168 181 132  75  69  73  65  40  33 109 160 118  84 118 157 136 106  91  58  20  21  29  13  13  17 
  7   9  13  10   7  14  14   5  27  36  25  20  28  31  36  25   8   7  21  29  19   6   0   6   6   3   8   2 100  57 242 246 
182 144 106   0 
  0 112 120  16   8   6  12   8   5   7   8  11  11   8   8   8   4   4   5   7   8   7   5   4   8  12   9   5   4   4  21  52 
 85 116 122 110  87  72  97 165 185 130  72  57  55  48  30  13 107 160 114  83 121 168 154 130 124  81  26  21  28  14  16  21 
  9   8  13   8   9  18  17  17  34  37  19  15  27  30  36  30  14  13  23  27  17   5   3   8  11  11  14  15 100  55 240 244 
177 145 102   0 
  0 115 123  13   5   5  11   8   7   7   5   8  10   7   7   8  10   9   5   3   0   3   6   4   8  12   8   4   3   8  30  59 
 82  99 103  99  74  46  86 159 170 114  49  31  58  59  45  29  98 153 123  96 119 166 156 127 132  99  40  25  28  15  16  20 
 11   8  10   4   8  16  11  17  38  44  25   4  21  27  35  33  19  18  25  26  15   2   5  14  18  17  20  23 100  53 235 238 
173 147 102   0 
  0 116 124  13   5   5  10   8   8  10   8  10  11   8   8   8  10  14  15  14  13  11   8   7  10  12   8   7   8  17  37  57 
 68  79  94 102  83  58  94 153 154 111  63  59  76  61  32  11  75 120  98  71  97 159 162 124 118  96  44  25  29  20  15  15 
 10   7  11   7  12  16   9   9  31  44  35   7  14  26  38  36  22  19  27  27  14   1   8  17  18  13  16  20 102  52 228 229 
173 148 108   0 
  0 117 125  14   7   5   8   7   9  12  12  11  11  10   8   7   8  12  15  16  16  14  10   8  11  10   7   7   8  15  32  50 
 57  65  92 113  96  72 102 149 141 107  75  67  64  35  14  27  72 109  99  90 114 173 188 138 106  87  45  24  31  26  15   8 
  7   4  11   4  12  16  10   5  25  41  39  15  10  26  44  40  20  15  27  29  17   5  12  18  15   5   5  11 103  50 222 222 
173 148 112   0 
  0 120 128  13   4   5   6   0   4   7   8   8   8  10   5   3   3   4   7   9  10   9   8   7   8   5   5   8   7  12  29  48 
 59  68  95 116 100  88 118 149 129  90  71  69  58  42  41  42  78 119 126 124 135 181 194 132  87  75  41  21  33  29  14   8 
  5   4  12   2  13  15   8   4  24  39  39  18   4  27  50  42  17   8  22  29  21   8  14  17  11   4   5  10 103  50 221 222 
167 148 106   0 
  0  96 134 127 131 131 129 128 128 127 124 120 117 115 113 113 115 116 115 113 112 111 109 109 112 115 117 120 124 129 140 161 
190 221   8  63 114 159 211  20  83 135 176 213 243   5  10   5 240 199 143  88  37 235 155  69  16 240 212 198 187 172 162 160 
159 159 163 166 163 156 150 149 157 174 194 207 211 204 187 161 144 138 131 120 108 102 105 112 119 123 125 128 173  89  67  13 
 94 189 172   0 
  0  43 100 130 132 130 126 125 127 127 124 121 120 118 114 112 113 115 116 116 115 113 112 112 113 115 117 120 123 126 134 151 
180 220   9  60 111 163 224  36  96 138 167 194 218 231 236 235 214 166 104  44 245 181 102  33 248 220 200 192 182 167 158 156 
156 157 161 164 160 153 149 149 156 171 189 202 205 197 177 154 141 138 134 123 111 106 109 115 119 120 121 124 153   7 207 187 
 81 185  48   0 
  0   0   0   0   0   0   0   0   0   0   0   0   0   0   0   0   0   0   0   0   0   0   0   0   0   0   0   0   0   0   0   0 
  0   0   0   0   0   0   0   0   0   0   0   0   0   0   0   0   0   0   0   0   0   0   0   0   0   0   0   0   0   0   0   0 
  0   0   0   0   0   0   0   0   0   0   0   0   0   0   0   0   0   0   0   0   0   0   0   0   0   0   0   0   0   0   0   0 
  0   0   0   0 
