P2
100 100
255
205 205 205 205 205 205 205 205 205 205 205 205 205 205 205 205 205 205 205 205 205 205 205 205 205 205 205 205 205 205 205 205 
205 205 205 205 205 205 205 205 205 205 205 205 205 205 205 205 205 205 205 205 205 205 205 205 205 205 205 205 205 205 205 205 
205 205 205 205 205 205 205 205 205 205 205 205 205 205 205 205 205 205 205 205 205 205 205 205 205 205 205 205 205 205 205 205 
205 205 205 205 
205 205 205 205 205 205 205 205 205 205 205 205 205 205 205 205 205 205 205 205 205 205 205 205 205 205 205 205 205 205 205 205 
205 205 205 205 205 205 205 205 205 205 205 205 205 205 205 205 205 205 205 205 205 205 205 205 205 205 205 205 205 205 205 205 
205 205 205 205 205 205 205 205 205 205 205 205 205 205 205 205 205 205 205 205 205 205 205 205 205 205 205 205 205 205 205 205 
205 205 205 205 
205 205  30  23  19  22  30  36  36  31  25  22  21  20  20  20  17  13   8   6   9  17  26  32  31  28  30  36  43  47  47  47 
 49  50  50  50  50  50  50  55  70  85 100 108 113 114 113 108 106 104 103 102 102 102 104 105 106 103  94  86  86  95 102  97 
 80  61  50  52  62  73  78  81  81  73  58  40  28  23  22  27  39  59  79  95 103 108 109 108 101  83  56  35  28  33  39  39 
 36  34 205 205 
205 205  28  20  16  19  27  35  38  35  29  26  26  27  29  29  25  19  13  10  14  21  29  34  33  29  29  34  41  45  47  47 
 49  50  51  53  54  53  52  57  72  86  94  93  93  96 104 105 105 104 103 102 102 103 104 105 106 103  95  88  89  96  99  91 
 71  54  47  51  61  70  75  78  78  71  57  41  28  23  22  28  44  68  89 102 107 109 109 108  99  79  52  32  27  32  37  36 
 33  33 205 205 
205 205  28  19  14  16  24  34  39  38  32  29  29  32  34  34  30  23  17  15  18  25  31  34  33  30  29  33  39  44  47  48 
 48  48  49  52  54  54  54  61  79  93  95  82  74  78  92 102 106 105 104 103 104 104 105 106 106 103  96  90  92  96  96  84 
 64  50  45  48  56  64  69  72  73  68  57  43  31  24  23  30  50  76  98 109 110 110 109 106  95  73  46  27  24  30  34  34 
 31  32 205 205 
205 205  30  20  14  14  22  32  39  40  36  32  32  34  35  35  30  25  21  20  23  28  33  35  34  31  30  34  39  44  47  48 
 48  46  46  48  51  51  55  68  91 105 101  79  63  66  84 100 108 108 107 106 106 106 106 107 107 104  97  93  94  97  94  79 
 61  48  44  45  50  57  61  66  68  66  59  49  37  29  27  36  59  85 105 113 112 109 108 103  90  66  40  23  20  26  31  32 
 32  33 205 205 
205 205  34  23  14  14  21  31  39  42  40  36  34  35  35  33  29  25  23  24  27  32  35  37  35  32  32  34  40  45  48  48 
 47  45  45  47  48  48  54  74 103 118 108  80  61  63  81  99 110 111 110 109 109 109 108 109 109 105  99  95  95  97  93  79 
 64  52  45  42  42  48  54  62  67  67  63  56  45  37  36  46  70  95 110 115 112 108 103  95  79  57  34  19  17  22  29  32 
 33  34 205 205 
205 205  39  25  15  13  19  29  37  42  41  38  37  36  34  31  27  26  26  28  31  35  37  39  38  35  34  34  39  45  49  49 
 48  46  46  47  48  47  54  79 111 126 114  83  62  64  82 101 112 113 113 112 112 112 111 112 112 107 101  96  96  97  93  83 
 70  58  47  40  36  40  49  60  69  71  69  63  54  46  47  59  83 103 114 115 112 106  96  81  63  44  28  17  15  20  27  32 
 34  35 205 205 
205 205  45  29  16  13  17  26  34  40  41  40  38  36  32  28  26  26  28  31  34  37  40  41  41  39  36  35  38  44  50  51 
 50  48  49  50  50  48  56  82 115 129 116  84  63  67  85 103 114 115 114 115 115 115 115 115 115 111 104  98  96  96  93  85 
 73  60  47  37  30  35  45  60  71  75  75  70  60  53  56  72  94 111 116 116 112 104  89  67  46  30  20  15  14  20  27  33 
 36  37 205 205 
205 205  51  32  17  12  15  23  32  38  41  39  36  33  29  25  23  25  27  31  35  39  43  45  44  42  37  34  36  43  50  53 
 53  52  52  53  53  51  59  83 116 131 119  87  66  70  89 107 116 117 116 116 117 117 117 118 118 113 106  99  96  96  93  84 
 72  58  44  34  29  34  46  61  73  79  79  74  63  56  62  80 102 116 118 116 112 102  83  58  34  20  14  12  14  20  28  34 
 37  39 205 205 
205 205  54  35  18  12  13  22  31  38  40  37  33  30  25  21  20  22  25  29  34  40  45  48  46  41  34  30  33  41  48  52 
 52  52  54  55  56  53  60  83 116 135 125  94  72  75  93 111 119 120 119 118 119 119 120 120 121 116 108  99  95  95  93  84 
 69  52  40  32  29  35  47  61  74  81  82  76  64  57  65  86 107 118 118 115 109  97  77  53  30  16  10  11  15  22  29  35 
 38  40 205 205 
205 205  57  39  20  13  14  22  31  38  39  35  31  27  23  19  18  20  24  27  33  39  45  49  46  38  29  25  28  37  45  49 
 50  51  53  55  56  53  59  80 113 137 133 104  80  79  97 115 123 124 122 121 121 121 121 122 122 118 109  99  94  94  93  83 
 67  49  37  31  31  36  47  61  73  81  83  77  65  59  68  88 109 119 118 113 103  88  69  48  29  16  10  10  16  23  30  35 
 39  41 205 205 
205 205  62  44  24  15  15  23  32  38  38  35  31  28  25  20  19  20  24  28  33  39  45  48  45  35  24  18  23  33  43  48 
 50  50  51  53  54  52  56  76 109 138 140 117  91  87 100 118 127 128 126 125 124 124 123 124 124 120 111 101  94  90  87  79 
 66  49  38  32  33  38  47  59  71  79  82  78  66  60  68  90 110 120 118 111  96  76  57  40  27  16  10  11  17  24  30  35 
 39  41 205 205 
205 205  67  49  28  17  16  24  32  38  39  37  33  31  29  24  22  22  25  29  33  39  45  48  44  33  21  14  18  29  41  50 
 52  51  50  51  51  50  54  73 106 138 147 129 104  96 105 121 129 131 130 129 127 127 126 126 126 123 114 103  93  84  77  71 
 63  52  42  35  36  41  48  59  70  77  82  78  67  60  69  90 111 120 117 107  88  65  45  32  23  15  10  12  17  24  31  36 
 38  40 205 205 
205 205  70  51  29  17  15  23  31  38  40  38  35  34  32  28  25  25  26  29  33  37  43  46  43  33  20  13  14  25  37  47 
 51  50  50  50  50  51  55  73 105 139 152 140 116 107 112 125 132 134 133 131 130 130 129 129 129 126 117 105  92  77  67  62 
 61  55  47  39  39  44  52  60  70  77  81  79  68  61  69  90 112 121 116 102  80  56  37  26  19  14  11  12  17  24  31  36 
 38  39 205 205 
205 205  68  47  26  15  14  22  31  37  40  39  36  34  33  30  28  27  27  29  31  34  39  43  41  32  21  12  12  20  30  37 
 42  45  47  49  50  53  60  77 107 141 156 147 123 112 115 127 134 136 135 134 133 132 133 133 133 129 120 105  90  74  62  59 
 61  58  51  42  40  47  55  64  73  78  82  79  67  61  69  91 112 120 113  96  72  49  32  22  17  14  13  14  17  24  31  36 
 37  39 205 205 
205 205  64  41  21  13  14  21  30  37  40  40  36  32  30  29  28  28  29  30  31  32  35  38  37  31  21  13  12  17  23  26 
 29  34  42  48  52  57  65  82 109 140 154 147 123 110 113 127 137 140 138 137 136 136 137 137 137 133 122 106  90  74  65  63 
 64  59  51  42  41  48  57  67  75  80  82  77  65  59  68  91 111 116 106  86  64  42  27  18  14  13  13  14  17  24  31  35 
 36  38 205 205 
205 205  61  37  18  11  14  21  29  36  41  40  35  30  28  27  28  29  31  32  32  32  33  35  35  30  21  14  13  17  19  19 
 19  24  35  45  53  60  68  84 106 133 148 142 121 109 113 128 139 143 142 142 141 141 141 141 141 136 125 108  91  78  71  69 
 68  60  50  41  42  50  59  68  76  80  81  74  60  55  66  90 108 110  95  74  53  35  22  14  11  11  12  13  16  23  31  35 
 36  39 205 205 
205 205  59  35  17  11  14  20  28  35  40  41  36  29  26  25  27  30  32  34  34  34  34  35  34  30  22  15  14  18  21  19 
 15  18  29  42  52  60  66  80  99 123 138 137 124 118 122 133 141 145 145 146 146 146 146 145 144 139 127 109  94  81  75  73 
 70  60  49  42  44  53  62  70  76  79  76  67  53  50  64  89 105 103  84  62  43  28  17  11   8   8   9  10  15  23  31  36 
 37  42 205 205 
205 205  57  34  17  12  14  20  27  34  40  41  36  30  26  25  27  30  33  35  36  36  37  37  36  31  23  16  16  21  23  21 
 16  17  27  40  51  59  63  74  91 113 128 134 131 131 134 138 142 145 146 147 148 149 149 149 147 140 127 109  94  82  76  72 
 68  58  48  43  49  59  67  73  76  74  67  55  43  44  60  84  98  94  74  53  34  22  14   9   6   6   6   9  15  24  32  37 
 40  47 205 205 
205 205  55  33  17  12  15  19  26  33  39  41  37  30  26  25  27  31  33  36  37  38  39  40  38  33  25  18  19  24  26  23 
 17  18  28  40  49  56  58  69  86 105 120 130 134 138 138 135 134 136 139 143 146 148 149 149 148 140 124 106  89  77  71  68 
 64  55  46  46  55  66  73  76  75  68  56  42  33  39  55  76  87  82  65  45  27  17  11   8   6   5   5   8  14  24  32  37 
 42  51 205 205 
205 205  54  32  17  12  14  18  24  32  38  40  36  30  26  26  28  31  33  35  37  39  40  41  40  34  26  20  21  27  29  24 
 18  20  30  42  49  54  57  67  83 102 115 124 127 128 124 118 115 118 123 130 136 141 144 145 144 135 119 100  82  68  64  63 
 59  51  45  49  61  72  77  77  73  62  45  31  26  35  49  64  73  71  57  39  22  13  10   8   7   6   5   8  14  24  32  37 
 42  52 205 205 
205 205  54  32  16  11  13  17  23  31  38  39  35  29  25  25  28  31  33  35  37  39  41  43  41  35  26  20  23  29  31  26 
 19  21  31  43  50  55  57  67  82  98 109 116 115 113 105  96  94  98 106 114 122 128 134 134 133 124 110  92  75  63  60  58 
 55  48  45  52  66  76  79  77  71  57  39  26  23  32  43  53  62  62  52  35  18  10   9   9   9   8   6   8  14  23  31  36 
 41  49 205 205 
205 205  53  32  17  12  13  17  24  32  38  39  35  27  24  24  27  31  33  34  36  39  42  44  42  35  26  21  23  30  32  27 
 19  21  31  43  51  58  61  69  82  95 105 110 107 102  90  79  76  81  88  95 101 108 115 118 118 113 102  89  75  63  58  55 
 51  47  47  56  69  77  77  74  68  54  37  24  22  30  39  46  55  59  53  37  18   9   9  10  10   9   7   8  13  22  30  35 
 38  46 205 205 
205 205  51  31  17  13  14  19  25  33  39  40  35  28  24  24  27  30  32  33  35  38  41  44  42  35  26  20  24  31  33  28 
 20  20  30  41  51  60  63  71  82  93 102 107 105  98  85  72  68  72  76  80  84  89  95  98 102 102  98  90  79  66  58  52 
 48  48  51  59  69  73  71  70  65  53  36  23  21  29  37  43  52  60  57  42  23  11   9  10  10   9   8   8  13  21  29  34 
 38  45 205 205 
205 205  49  30  17  14  16  21  28  37  42  43  38  32  28  27  28  30  32  33  35  37  40  42  41  35  26  21  24  31  33  28 
 20  20  29  39  49  58  62  71  81  91 100 105 104  99  86  72  67  69  73  76  78  80  81  83  88  94  96  93  84  69  56  48 
 45  48  54  61  66  65  62  63  62  53  36  22  20  29  37  42  50  59  60  48  28  14  10  10  10   9   8   8  13  21  29  35 
 40  49 205 205 
205 205  48  30  17  13  15  21  29  38  43  43  40  35  33  32  32  32  33  33  35  37  39  41  39  34  26  21  24  31  33  28 
 20  20  28  37  44  52  57  68  80  91  99 105 105 101  89  75  69  71  76  82  85  84  80  77  79  85  91  92  85  69  55  45 
 43  47  56  63  63  57  52  56  59  51  35  22  20  29  37  41  48  57  60  50  31  16  11  10   9   9   7   8  13  21  30  38 
 47  58 205 205 
205 205  49  30  17  12  14  19  27  36  41  42  38  35  34  35  36  35  34  34  35  37  40  41  38  32  25  20  24  31  33  28 
 21  20  27  35  40  45  51  65  81  93 101 105 104 100  89  77  72  76  84  93  97  95  88  80  75  77  83  87  81  67  54  45 
 43  48  58  64  61  50  43  49  54  48  33  21  20  30  38  41  47  56  59  51  33  18  11  10   9   9   7   8  14  23  34  45 
 56  66 205 205 
205 205  51  32  18  13  13  17  24  33  39  40  36  31  30  32  35  36  35  35  36  38  41  42  38  32  25  20  24  31  33  29 
 21  20  28  35  39  43  48  65  85  98 105 106 104  97  86  77  77  83  94 103 108 106  97  86  78  74  76  78  74  63  54  46 
 45  49  59  65  60  46  37  42  49  45  32  21  21  30  38  42  50  59  62  53  34  19  12  11  10  10   9  11  17  27  41  54 
 65  73 205 205 
205 205  52  34  21  16  15  18  24  32  38  39  34  28  26  27  30  34  35  35  37  39  42  42  39  33  25  20  24  31  33  29 
 21  21  28  36  41  45  52  71  92 105 109 107 104  96  83  73  77  87  99 107 111 108 101  91  83  77  74  72  67  58  52  46 
 46  50  60  66  60  43  33  36  44  42  31  22  21  30  37  44  55  67  68  56  34  19  13  13  12  11  11  14  21  33  48  61 
 70  76 205 205 
205 205  51  35  24  19  18  20  25  32  38  39  35  29  25  24  26  30  33  35  38  39  41  43  41  36  28  22  24  30  33  29 
 21  20  28  37  44  49  58  79 101 113 113 108 104  95  81  70  75  89 104 111 111 109 102  95  88  81  75  68  61  53  48  44 
 44  50  60  65  58  41  30  33  41  41  31  23  22  30  37  46  61  74  73  57  34  19  14  13  13  13  13  17  25  38  52  64 
 72  76 205 205 
205 205  51  37  27  23  22  25  29  34  38  39  36  31  27  25  26  29  32  35  37  39  40  42  43  39  33  26  26  31  33  28 
 21  20  27  37  45  52  63  85 109 120 119 109 103  96  83  72  76  91 108 114 112 108 103  98  92  84  75  65  56  47  42  39 
 41  48  57  61  56  40  30  33  42  43  34  27  26  32  37  47  63  77  73  55  31  18  13  13  12  12  14  18  27  40  54  65 
 72  76 205 205 
205 205  51  37  28  26  26  29  33  36  38  38  36  33  29  28  28  30  33  35  37  39  40  42  43  42  36  28  28  32  34  30 
 23  21  27  35  43  50  62  86 111 126 125 114 104  98  89  81  84  97 111 114 110 106 104 103  99  89  75  62  51  41  36  35 
 38  44  52  56  53  40  31  34  44  46  40  33  32  34  36  46  63  74  69  49  27  16  12  11  11  12  13  18  28  41  54  64 
 71  76 205 205 
205 205  50  37  29  28  29  32  36  40  40  38  35  33  30  29  30  32  34  36  37  39  40  42  43  42  36  29  29  33  37  34 
 28  25  28  34  40  45  56  80 109 129 132 120 108 102  98  96 101 109 114 111 104 100 100 102 100  90  74  58  45  35  32  32 
 34  38  44  50  49  39  31  35  46  51  47  42  38  36  37  48  64  72  63  44  26  17  14  13  12  13  15  19  28  40  53  64 
 71  76 205 205 
205 205  50  37  30  29  30  34  39  43  43  40  35  32  31  29  30  32  34  36  38  39  41  42  43  41  35  29  28  34  39  39 
 34  31  32  36  38  41  50  73 103 128 134 125 112 105 106 110 119 122 119 109  99  94  93  93  92  86  73  55  40  31  30  31 
 31  32  38  46  47  39  31  35  47  54  55  50  44  39  40  53  68  71  59  41  28  24  22  20  18  17  17  20  27  39  53  64 
 72  76 205 205 
205 205  49  36  30  29  30  34  41  46  45  41  35  32  31  30  30  32  34  36  38  39  41  42  43  40  34  28  27  33  39  42 
 39  38  38  40  39  41  47  68  98 123 130 121 107 102 107 118 130 133 125 111  99  91  84  80  80  78  70  54  39  30  30  31 
 29  28  35  45  47  40  32  36  48  57  60  56  47  40  44  59  72  72  58  43  37  36  34  30  25  20  17  18  25  37  51  63 
 71  76 205 205 
205 205  51  37  30  29  30  34  41  46  46  41  35  33  32  31  31  32  34  35  37  39  40  42  43  41  36  30  28  32  39  43 
 42  42  41  42  41  43  49  68  94 116 119 107  91  88  97 113 129 134 128 115 103  92  81  73  71  71  66  52  39  31  31  31 
 27  26  34  45  48  42  35  39  51  60  63  59  48  41  46  63  75  72  59  50  48  49  47  39  30  21  15  15  22  35  49  61 
 70  76 205 205 
205 205  54  39  30  28  29  34  41  46  45  40  35  33  32  31  31  33  35  36  37  38  39  41  42  42  38  33  31  34  40  44 
 44  42  41  41  42  47  54  72  93 109 107  90  74  72  82  99 117 125 122 112 103  94  83  73  69  67  63  50  38  32  31  30 
 26  25  33  45  50  46  41  44  54  63  65  59  48  40  46  63  76  75  66  60  60  60  55  45  32  19  12  12  21  34  48  60 
 69  76 205 205 
205 205  59  42  30  26  28  34  41  45  45  40  36  34  33  32  32  34  36  37  37  38  38  40  42  42  40  36  35  38  43  46 
 45  42  38  37  40  48  57  74  92 103  98  80  65  64  71  84 100 108 108 101  95  91  84  74  69  66  61  49  38  33  33  30 
 26  24  33  45  53  53  49  50  57  63  65  59  47  39  45  62  77  80  76  72  71  67  59  47  32  19  10  11  20  34  47  59 
 68  75 205 205 
205 205  63  46  31  25  27  33  41  46  45  41  36  34  33  33  33  35  36  37  37  37  38  40  42  42  41  38  39  42  46  48 
 46  42  37  34  37  46  56  72  90 100  94  78  68  69  72  77  84  90  91  85  83  82  77  68  64  63  60  50  41  37  36  33 
 27  25  33  46  56  58  55  54  57  62  64  59  47  39  45  62  80  87  85  82  78  72  61  48  33  19  11  11  20  34  47  58 
 67  74 205 205 
205 205  67  50  34  25  26  33  41  46  46  41  36  34  34  34  34  35  37  37  37  37  39  40  41  42  41  40  42  44  48  49 
 47  42  37  33  35  42  50  67  86  98  94  82  77  81  81  78  77  78  78  74  71  71  66  59  58  60  60  52  45  40  40  37 
 31  28  35  47  58  61  58  55  57  61  63  59  48  41  47  66  84  92  91  87  82  75  63  50  34  20  11  11  20  34  47  59 
 68  74 205 205 
205 205  69  53  37  28  27  34  42  46  46  41  37  35  35  35  36  37  38  38  38  39  41  42  42  42  41  42  43  45  47  48 
 47  42  37  34  35  38  44  61  83  97  95  86  85  91  91  85  80  77  75  69  65  62  56  51  53  57  60  55  48  42  40  38 
 36  35  40  50  58  61  58  56  56  60  62  58  49  43  52  70  88  95  93  87  81  73  63  50  35  22  12  11  20  34  48  60 
 69  75 205 205 
205 205  71  57  41  31  30  35  42  47  47  43  38  37  37  38  38  39  40  41  41  42  42  43  43  43  42  42  42  44  46  47 
 46  43  39  37  36  37  42  59  81  96  95  89  89  97  99  94  89  84  79  71  65  59  52  47  49  55  59  56  50  42  39  39 
 41  43  47  52  57  59  57  56  57  60  62  58  49  46  55  74  91  96  91  83  75  67  58  49  36  23  13  12  21  35  49  61 
 70  76 205 205 
205 205  73  59  43  33  31  36  42  48  49  46  42  39  40  41  42  42  43  44  44  44  44  45  45  44  43  42  42  44  45  46 
 45  42  41  40  40  40  44  61  83  97  96  91  93 101 105 103  98  91  83  74  67  60  53  47  49  53  58  57  52  45  40  40 
 45  50  53  55  57  58  57  57  59  61  62  57  49  47  58  76  92  96  89  78  66  57  51  46  37  24  14  13  22  36  51  63 
 71  77 205 205 
205 205  74  60  44  33  31  36  42  48  51  49  45  42  42  43  45  46  47  47  47  47  47  48  48  46  44  42  43  44  45  44 
 41  40  41  43  44  44  48  65  87 100 100  95  96 104 109 107 101  92  82  74  70  65  58  52  51  54  58  58  55  49  44  44 
 48  53  56  57  58  58  58  59  60  62  62  57  49  48  59  78  92  96  87  72  56  46  44  44  38  26  15  14  23  38  52  63 
 72  77 205 205 
205 205  75  61  44  33  31  36  42  48  52  51  48  44  44  45  48  49  50  50  50  49  49  49  49  47  45  43  44  45  46  43 
 38  35  38  44  46  46  51  68  91 106 107 102 100 104 108 105  98  87  78  74  73  71  65  59  55  56  58  58  57  54  50  48 
 51  55  57  58  59  59  60  61  63  65  64  58  49  48  60  79  93  96  86  68  48  37  38  42  38  27  16  15  24  39  52  63 
 71  77 205 205 
205 205  76  61  44  33  31  35  41  48  52  52  49  46  46  48  50  53  54  54  52  51  51  50  49  47  45  44  44  46  46  43 
 36  31  33  39  44  45  51  68  92 111 115 110 105 104 105 100  92  82  75  75  78  77  72  64  59  58  58  59  58  57  54  52 
 54  56  58  59  60  61  62  64  66  68  68  60  50  49  61  80  95  97  86  66  45  33  35  41  39  28  16  15  25  39  52  63 
 71  77 205 205 
205 205  77  62  44  33  31  35  40  47  52  53  50  48  48  49  52  55  57  56  53  51  51  51  50  48  46  45  45  47  47  44 
 37  30  29  34  39  41  48  65  89 110 118 113 107 103 102  97  90  83  78  78  81  80  74  66  59  59  58  58  58  57  55  54 
 55  58  59  60  61  61  61  64  68  72  71  62  51  50  62  81  95  96  85  65  44  33  35  41  40  29  17  15  24  39  52  63 
 71  77 205 205 
205 205  78  62  44  33  30  35  40  47  52  52  50  48  48  49  52  56  58  57  53  51  50  50  50  48  46  46  46  48  49  47 
 41  34  30  31  34  37  44  59  81 101 110 108 105 101 101  96  92  89  85  82  81  77  71  64  58  58  58  59  58  56  54  53 
 55  58  59  61  61  59  58  62  68  73  71  60  49  49  63  82  95  95  84  65  44  34  36  42  40  29  17  16  24  39  52  63 
 71  77 205 205 
205 205  78  61  43  32  29  34  40  47  52  53  50  47  47  50  54  57  58  57  53  51  51  51  51  49  47  46  47  48  49  49 
 45  40  35  32  32  35  43  55  70  85  94  97  98  98  97  93  92  91  89  84  78  71  64  58  55  56  58  59  58  55  51  50 
 53  57  58  60  57  54  53  59  67  72  67  55  45  48  64  84  96  95  84  65  45  36  38  44  41  30  18  16  24  38  53  64 
 72  78 205 205 
205 205  75  58  40  30  28  33  39  47  53  54  50  46  47  51  55  57  56  54  52  51  51  51  51  48  47  46  45  45  47  48 
 47  44  39  35  34  37  45  54  62  69  76  84  90  94  94  91  91  91  88  81  74  65  57  52  50  55  59  59  56  52  48  48 
 52  56  58  57  52  48  48  55  64  68  61  48  42  48  67  86  96  94  83  65  46  37  39  45  42  30  18  15  23  37  51  62 
 71  78 205 205 
205 205  71  54  37  29  28  33  38  46  53  54  51  48  50  53  55  53  50  48  47  48  49  49  48  46  46  45  42  40  41  46 
 48  47  42  38  37  42  49  56  58  59  64  74  85  93  96  95  94  91  86  78  71  63  55  48  47  53  59  59  54  50  46  47 
 51  56  56  53  46  41  42  51  59  62  55  44  41  51  71  88  96  93  82  65  47  38  40  45  42  30  17  14  22  34  47  57 
 65  74 205 205 
205 205  66  49  35  28  28  32  38  46  53  55  52  51  52  54  51  46  40  38  39  43  45  44  42  43  45  44  39  34  35  42 
 47  48  44  41  40  44  51  57  56  55  59  69  81  92  98 100 100  94  86  76  70  63  55  48  47  53  58  58  54  50  47  48 
 52  56  54  49  42  38  40  48  55  57  51  43  43  56  76  90  95  90  79  64  47  38  41  46  43  31  18  14  21  32  41  49 
 56  66 205 205 
205 205  62  46  34  29  29  33  38  46  53  56  55  53  53  50  44  36  30  28  30  35  37  36  35  38  43  43  36  30  31  37 
 44  47  46  42  41  44  50  55  55  54  58  68  79  89  95 100 101  97  87  77  69  63  56  50  49  53  58  58  54  52  50  51 
 52  54  50  45  39  37  39  47  54  56  51  45  47  60  79  90  91  83  73  59  45  38  41  46  42  31  18  15  21  30  38  43 
 48  57 205 205 
205 205  57  44  34  29  29  33  39  47  55  59  59  56  52  47  38  29  22  21  24  27  28  28  28  33  38  39  33  28  28  34 
 41  46  47  44  40  41  46  52  53  55  60  70  79  85  87  91  94  93  87  77  69  62  55  50  49  53  56  57  55  53  52  53 
 52  52  47  43  39  39  42  50  56  57  53  48  51  63  80  88  85  74  63  52  41  36  40  45  42  31  18  15  21  30  37  41 
 43  49 205 205 
205 205  52  42  33  29  30  34  40  48  58  63  63  60  54  45  34  25  20  19  19  21  21  21  23  28  33  33  30  26  26  31 
 38  45  48  44  38  37  41  49  54  58  64  72  78  80  77  78  81  83  81  75  68  61  54  50  49  51  53  55  54  54  54  54 
 53  51  47  44  42  42  47  54  59  59  55  50  53  65  79  84  78  66  55  46  37  35  39  45  42  31  19  16  22  31  38  41 
 42  44 205 205 
205 205  47  40  33  29  30  34  41  50  60  66  67  64  57  45  32  23  19  18  17  17  17  18  19  23  27  27  25  24  25  31 
 38  45  48  44  38  36  42  51  58  62  66  73  78  77  72  70  70  73  73  71  68  63  57  53  51  51  51  53  54  55  55  55 
 54  53  50  47  45  46  50  56  60  60  55  51  54  65  78  80  72  59  49  42  36  35  40  45  42  31  19  17  23  32  39  41 
 41  41 205 205 
205 205  44  39  33  30  30  35  41  51  60  66  67  64  56  44  31  22  19  17  16  16  16  16  17  19  22  22  22  22  25  32 
 39  46  48  44  39  39  45  55  61  64  67  73  77  77  72  69  67  69  69  68  68  65  61  59  55  51  50  51  55  57  55  55 
 55  55  53  49  47  47  51  55  58  59  55  52  55  65  76  76  67  55  48  43  39  39  43  46  41  30  20  19  24  33  38  39 
 40  40 205 205 
205 205  43  39  34  31  31  36  42  50  59  63  62  58  50  39  29  21  18  17  16  16  16  16  16  17  18  19  19  21  26  33 
 41  48  49  45  41  43  50  59  63  65  66  72  76  77  73  69  67  67  66  65  65  62  59  58  55  51  48  50  55  58  56  54 
 55  55  53  50  47  47  50  54  57  57  55  52  55  64  73  72  63  52  47  46  44  45  47  48  41  30  20  20  26  33  37  38 
 38  39 205 205 
205 205  42  39  34  31  32  37  42  49  55  56  52  46  39  32  25  20  17  17  17  16  16  17  17  17  17  17  19  21  26  34 
 43  51  52  46  41  44  51  59  61  62  64  69  74  74  71  68  67  66  64  60  56  51  48  51  52  50  48  50  54  57  56  54 
 54  55  53  50  47  47  50  53  56  57  55  52  54  62  69  67  58  49  45  48  50  51  50  47  39  29  21  21  26  33  37  37 
 37  38 205 205 
205 205  41  38  34  31  32  38  42  47  51  48  42  35  30  26  22  19  17  17  17  17  17  18  18  18  17  17  19  21  26  33 
 44  53  54  47  41  41  47  53  56  57  61  66  68  67  64  63  64  64  60  52  43  35  34  40  46  49  49  50  53  55  54  53 
 54  55  53  50  47  47  50  53  56  56  54  51  51  56  62  60  53  46  44  49  53  54  50  43  36  28  23  23  27  33  36  36 
 35  35 205 205 
205 205  38  35  32  30  32  37  42  45  45  40  33  27  25  23  21  18  17  16  16  17  17  18  18  18  17  17  19  21  24  31 
 41  50  51  45  38  36  41  46  49  52  56  60  59  55  52  53  58  59  53  42  30  24  24  32  43  49  51  51  52  53  52  51 
 52  54  52  49  46  47  50  52  54  54  52  49  48  50  53  52  49  43  43  49  55  54  47  40  35  31  28  28  31  34  34  33 
 33  33 205 205 
205 205  34  31  28  28  31  37  41  43  41  35  28  25  24  24  22  19  17  15  15  16  17  17  17  17  17  17  18  19  22  27 
 34  41  42  38  34  34  38  42  44  46  51  53  50  44  41  45  52  52  44  33  23  20  23  31  40  47  50  50  51  50  48  47 
 49  51  51  47  44  45  48  50  51  51  50  48  46  45  45  45  44  41  42  48  53  53  46  39  36  35  34  34  34  33  31  29 
 30  31 205 205 
205 205  30  29  26  27  30  36  40  41  39  33  28  26  26  25  23  20  17  15  14  15  16  16  15  15  15  16  17  18  19  22 
 26  29  30  29  30  34  38  40  41  42  47  49  43  36  36  42  48  45  35  25  20  21  26  31  37  41  45  47  47  45  43  42 
 44  47  47  43  40  41  45  47  47  47  48  48  46  42  39  40  40  39  39  44  48  49  45  40  38  37  37  37  36  32  27  25 
 26  28 205 205 
205 205  30  29  27  27  30  36  39  40  38  33  29  27  26  25  23  21  18  16  15  15  14  14  13  14  15  16  16  16  17  17 
 18  19  20  22  27  35  41  41  39  39  43  45  39  33  34  41  46  40  29  22  20  23  28  31  33  36  39  42  42  39  36  35 
 37  41  41  38  36  38  42  43  42  44  47  48  46  41  37  37  38  37  37  39  42  44  43  41  38  36  36  37  36  31  25  23 
 24  26 205 205 
205 205  31  31  29  28  31  35  38  38  36  31  27  24  22  21  21  19  17  15  14  13  13  12  12  13  14  15  15  15  15  14 
 13  14  15  19  27  38  44  43  38  37  41  42  38  34  37  43  47  42  33  27  26  28  32  33  34  35  36  36  34  31  29  28 
 30  33  33  31  31  35  38  39  39  41  44  46  44  39  35  35  36  35  35  35  36  38  39  38  35  32  33  36  36  32  27  24 
 25  28 205 205 
205 205  33  34  32  31  32  35  36  36  33  28  22  19  17  17  17  16  15  14  13  12  11  10  11  13  14  14  14  14  14  13 
 13  14  15  19  28  40  46  44  39  37  41  45  43  42  45  51  54  52  46  41  38  37  38  38  38  38  36  32  27  23  21  21 
 22  24  24  25  27  31  34  35  36  38  41  42  40  36  33  32  33  34  33  32  31  33  35  35  32  30  31  35  38  35  30  27 
 29  32 205 205 
205 205  34  36  35  33  33  34  35  34  29  23  17  14  13  13  12  12  12  12  11  10  10  10  12  14  15  15  15  16  16  16 
 17  19  20  23  30  40  46  45  41  41  46  52  54  55  59  64  68  68  64  59  55  50  47  45  46  45  39  31  23  18  15  15 
 15  16  17  18  22  26  29  30  32  34  35  35  33  30  28  29  31  32  31  28  26  27  28  29  29  29  32  37  39  38  33  31 
 32  36 205 205 
205 205  33  35  35  34  33  34  35  32  27  20  15  13  13  12  12  12  13  14  13  13  14  16  17  19  20  21  21  22  23  24 
 26  27  26  27  32  39  44  44  44  47  53  60  66  70  74  78  83  84  80  76  70  64  58  54  53  52  45  34  24  18  14  12 
 11  11  12  14  17  21  23  25  27  28  29  28  27  25  24  25  27  28  26  23  21  21  22  24  26  28  33  37  39  37  34  32 
 33  36 205 205 
205 205  31  32  32  31  30  31  32  31  27  22  18  18  19  18  18  19  21  22  22  23  24  26  27  28  30  31  30  29  29  31 
 33  33  30  29  31  35  39  42  46  53  60  68  76  82  86  90  94  95  91  86  81  74  67  62  60  57  50  40  31  24  18  14 
 11  10  10  11  13  15  17  20  21  22  22  22  21  21  20  22  24  25  23  19  17  17  18  21  23  27  31  34  35  33  31  31 
 31  32 205 205 
205 205  26  26  26  25  24  25  28  30  29  28  28  29  30  30  29  29  31  33  35  36  36  36  36  36  37  37  35  32  30  32 
 33  32  28  25  25  28  32  39  48  58  66  74  82  88  93  97 101 101  97  92  87  80  73  67  63  60  54  46  39  32  26  20 
 16  14  12  11  11  13  14  15  16  16  16  16  17  17  18  19  21  22  21  18  15  16  18  21  23  25  27  29  29  27  26  26 
 27  26 205 205 
205 205  20  20  19  18  17  18  22  28  33  36  38  39  40  39  38  37  38  41  43  43  42  39  37  35  35  34  31  27  25  26 
 27  25  21  18  17  19  25  35  49  62  71  79  87  94  99 104 108 109 104  97  92  85  78  72  67  63  57  52  46  41  34  28 
 24  22  18  16  15  15  16  15  14  13  13  13  14  15  16  18  19  21  21  18  16  16  19  21  21  21  22  23  22  21  21  21 
 21  20 205 205 
205 205  15  14  13  12  10  11  16  24  32  38  40  40  40  38  37  36  37  39  41  40  37  33  30  28  26  24  21  19  17  18 
 18  16  13  11  11  13  19  33  51  67  77  84  91  98 105 112 117 118 112 104  98  92  85  78  72  67  62  56  51  46  40  35 
 32  30  26  23  22  21  21  18  16  14  13  13  14  14  15  16  17  19  20  18  16  17  18  20  19  18  17  18  17  17  16  16 
 15  14 205 205 
205 205  12  11  10   8   7   7  11  19  27  32  34  34  32  30  29  28  28  30  31  29  25  22  20  17  15  13  12  11  11  11 
 11  10   9   9  10  12  19  34  54  71  82  88  95 103 111 119 125 125 118 109 103  98  92  85  79  73  66  60  54  49  44  40 
 38  35  32  29  28  28  27  24  21  18  17  16  15  14  14  14  15  17  17  16  15  15  16  16  15  14  14  15  15  15  14  13 
 12  11 205 205 
205 205   9   8   7   6   5   6   9  14  19  23  24  23  22  20  19  19  19  19  19  17  15  13  12  11   9   8   8   8   8   9 
  9   9   9  10  12  16  24  39  58  74  84  91  98 106 115 123 129 128 120 111 105 101  96  89  83  76  69  61  55  50  45  42 
 40  39  35  33  31  31  31  29  26  24  22  20  18  16  14  14  14  15  15  14  13  13  13  13  12  12  12  13  14  14  13  12 
 11  11 205 205 
205 205   8   7   6   4   4   5   7  11  15  17  17  16  16  15  14  13  12  12  11  10   9   8   8   8   8   7   8   8   9  10 
 11  12  11  12  16  22  31  45  62  77  86  93 100 109 118 126 130 128 120 112 108 105 101  96  89  81  72  63  56  49  45  42 
 41  40  37  34  33  33  33  32  31  29  27  25  23  19  16  15  15  15  15  13  12  11  11  11  11  10  11  12  13  12  12  12 
 12  13 205 205 
205 205   9   8   5   4   3   4   7   9  12  13  13  12  12  11  11  10   9   9   8   7   7   7   8   9   9  10  10  11  12  14 
 15  16  15  16  20  27  37  51  67  80  88  94 102 111 121 130 133 131 124 118 115 113 110 105  99  90  79  66  56  49  44  42 
 41  41  38  36  34  34  34  34  34  33  31  29  26  22  20  18  17  17  16  13  11  11  11  11  10   9  10  11  12  11  10  11 
 13  14 205 205 
205 205  12  10   6   4   3   4   6   8  10  10  10   9   9  10  10  10  10  10  10  10  10  10  11  12  13  13  14  14  15  17 
 19  20  19  20  23  31  42  57  72  84  91  95 102 114 126 136 140 138 133 128 125 121 117 114 109 100  85  69  57  49  44  41 
 41  41  39  37  35  35  36  36  36  35  33  31  28  26  23  22  21  19  17  15  13  12  12  12  10   9  10  10  11  10   9   9 
 11  13 205 205 
205 205  15  12   8   4   3   3   5   6   8   9   9   9   9  10  11  11  12  13  14  15  15  14  14  15  16  17  17  17  17  20 
 22  23  22  23  25  33  45  61  76  87  93  98 106 119 133 144 149 148 144 138 132 126 121 118 114 104  89  71  58  50  44  41 
 41  42  40  38  36  36  37  38  38  37  35  32  30  28  28  26  25  23  20  17  15  14  14  13  12  11  10  11  11  10   9   8 
 10  12 205 205 
205 205  16  14   9   5   3   4   5   6   9  10  11  12  13  14  14  15  16  18  19  20  20  18  17  17  18  19  19  18  18  21 
 23  25  25  25  27  34  46  63  78  90  96 101 111 125 138 148 155 156 152 144 135 127 121 118 114 105  89  73  59  50  43  41 
 41  42  41  39  37  36  37  39  39  39  36  33  31  31  31  30  28  26  23  20  18  17  16  15  13  12  12  11  11  10   9   9 
  9  10 205 205 
205 205  16  14  10   7   5   5   7   9  11  13  14  16  17  17  17  18  19  21  22  23  22  20  18  18  19  20  20  19  19  21 
 24  27  27  26  28  34  46  63  80  93 100 106 117 130 142 152 160 163 160 152 141 132 125 121 115 106  92  75  60  50  43  41 
 41  42  41  39  37  36  37  39  40  40  37  34  33  34  34  33  31  28  25  22  20  18  17  16  15  14  13  13  12  11  10  10 
  9  10 205 205 
205 205  14  13  11   9   8   8  10  13  15  16  17  18  19  19  18  19  20  22  23  23  21  20  18  18  19  20  20  19  20  22 
 25  27  27  27  28  34  46  63  82  96 104 110 120 132 144 155 163 167 167 160 152 144 135 128 123 114  99  80  62  50  44  41 
 41  42  41  39  37  36  36  39  40  40  37  35  34  35  36  36  33  30  27  24  22  20  19  18  17  15  15  14  14  13  12  11 
 10  10 205 205 
205 205  12  13  13  12  11  11  13  16  18  19  20  20  20  19  18  19  20  22  22  21  20  19  18  18  19  20  20  19  20  22 
 25  27  28  27  29  34  47  64  83  97 106 112 121 134 148 161 168 172 172 170 165 157 145 135 128 120 106  85  65  51  45  42 
 41  41  41  39  37  36  36  39  40  40  38  35  34  36  38  38  37  33  29  26  23  21  20  19  18  17  16  16  16  15  13  12 
 11  11 205 205 
205 205  11  13  14  14  13  14  15  18  20  21  21  21  21  19  18  19  20  21  21  20  18  17  18  19  19  20  20  20  21  23 
 25  27  28  28  29  34  47  65  84  98 106 112 122 137 153 167 175 179 179 178 175 167 154 140 132 124 111  91  70  55  47  43 
 41  41  41  39  37  36  37  39  40  40  38  35  34  36  39  41  40  36  32  28  25  24  22  21  20  19  19  19  18  17  15  14 
 13  12 205 205 
205 205  12  14  15  16  16  15  17  19  22  23  23  22  21  20  19  19  19  20  20  19  17  17  18  19  20  20  20  20  21  23 
 26  28  29  29  30  35  47  64  83  97 105 111 122 139 158 173 181 183 184 183 181 173 161 147 137 129 116  97  75  59  49  44 
 41  40  40  39  37  36  37  39  41  41  39  36  34  36  40  43  43  40  35  31  28  27  25  24  22  21  21  21  21  19  18  16 
 15  14 205 205 
205 205  12  14  16  17  17  18  19  21  23  24  24  23  22  21  20  19  19  19  19  18  17  17  18  19  20  20  20  21  22  24 
 26  28  29  30  31  35  46  62  81  96 105 111 122 139 158 173 181 183 183 183 182 178 169 158 147 137 122 102  80  62  51  45 
 41  39  39  38  37  37  38  40  42  42  39  36  35  37  41  44  45  42  38  34  31  29  28  27  24  23  22  23  22  21  19  18 
 17  16 205 205 
205 205  13  15  17  19  20  21  22  24  26  26  25  23  23  22  21  20  19  19  19  18  17  17  18  20  21  21  21  21  23  24 
 26  28  30  30  31  36  46  61  79  94 105 114 127 145 163 177 184 185 183 180 178 177 173 164 152 139 122 101  80  64  53  46 
 40  38  38  38  38  38  39  41  43  42  40  37  35  37  41  44  46  44  40  36  32  31  30  28  26  23  22  23  23  22  20  19 
 18  17 205 205 
205 205  14  16  18  20  22  24  26  28  28  28  26  24  23  22  21  20  20  20  19  19  19  18  19  20  21  22  22  22  24  25 
 27  29  30  30  32  37  46  61  77  93 108 123 139 156 171 182 188 189 185 180 176 175 172 165 152 135 116  97  78  64  53  45 
 40  38  38  39  39  38  39  41  42  42  40  37  36  37  41  44  46  45  41  37  33  32  31  29  27  24  23  23  23  22  21  20 
 20  19 205 205 
205 205  15  17  19  21  23  25  28  30  31  29  28  26  24  22  21  20  20  20  21  21  20  20  21  22  22  23  23  24  25  27 
 29  30  30  31  33  38  48  62  79  97 116 135 154 170 183 191 197 199 196 189 183 178 172 162 146 127 107  89  74  62  52  44 
 39  38  39  39  39  38  39  40  41  42  41  38  36  37  40  44  45  44  41  36  33  32  31  30  27  24  23  23  23  23  23  22 
 22  22 205 205 
205 205  17  18  20  22  24  26  29  31  32  31  29  27  25  23  22  21  21  21  22  22  23  23  23  24  24  24  25  25  27  29 
 30  31  31  31  33  38  49  65  84 105 125 143 160 177 190 199 205 207 206 202 194 185 173 159 142 123 101  83  68  58  49  43 
 39  38  39  39  39  38  38  39  41  42  42  40  37  37  40  44  45  44  40  36  33  32  32  30  28  25  23  23  23  24  24  23 
 23  24 205 205 
205 205  18  19  20  22  24  26  29  32  33  32  30  28  26  24  23  22  22  22  23  24  24  24  25  25  25  25  25  26  28  29 
 31  31  31  32  34  40  51  68  89 110 126 139 154 172 188 199 204 206 207 207 201 189 171 153 136 118  98  78  62  53  46  42 
 39  38  38  39  38  38  38  39  41  43  43  41  39  39  42  46  47  45  41  37  34  33  32  31  28  25  23  22  23  24  24  24 
 24  24 205 205 
205 205  20  20  22  23  25  27  30  32  33  32  30  28  27  26  24  23  23  23  24  24  24  25  25  25  25  25  25  26  27  29 
 30  31  31  31  34  41  54  72  92 109 120 128 141 162 182 193 195 196 199 202 199 188 168 149 134 119 100  80  63  52  45  41 
 39  38  39  39  38  37  37  39  41  42  42  41  40  41  45  49  50  48  44  40  36  33  32  30  27  24  22  22  23  24  24  24 
 24  24 205 205 
205 205  22  22  23  25  26  28  30  32  33  32  30  29  28  27  26  25  24  24  24  25  24  24  24  24  24  24  25  25  27  28 
 29  29  29  30  34  43  57  73  90 102 109 115 130 153 173 183 186 188 193 199 198 188 168 150 137 125 109  90  72  60  49  42 
 39  39  39  39  37  37  37  39  41  41  40  39  39  42  47  51  52  50  47  43  38  34  32  29  26  23  21  22  23  24  25  25 
 25  25 205 205 
205 205  24  24  25  26  27  29  31  32  33  32  30  29  28  28  27  25  25  25  25  25  24  23  23  23  23  24  24  25  27  28 
 29  29  29  31  36  45  57  71  85  96 103 111 126 148 166 177 181 186 194 201 202 194 178 162 150 139 123 103  84  68  54  44 
 39  38  38  38  37  37  37  39  40  40  38  37  37  40  45  50  52  52  49  45  40  36  32  29  26  23  21  22  24  26  27  28 
 28  28 205 205 
205 205  27  26  26  26  27  29  31  32  33  32  31  30  29  28  27  26  26  26  26  26  26  25  24  24  24  25  25  26  27  29 
 30  30  31  33  39  47  56  68  81  94 104 113 128 148 166 178 185 192 200 206 206 199 185 171 159 146 129 107  86  70  56  46 
 40  38  38  38  37  37  38  40  41  40  38  36  36  38  43  48  52  53  51  47  42  37  33  29  25  22  21  22  25  27  29  30 
 31  32 205 205 
205 205  29  27  26  26  27  29  31  33  33  33  32  32  31  30  28  27  27  27  27  27  27  27  27  26  26  26  26  27  28  29 
 30  31  32  35  41  47  54  64  78  93 105 116 131 151 168 181 189 197 204 206 203 196 183 170 157 144 125 102  80  64  54  46 
 40  38  38  38  38  38  39  41  42  42  40  38  36  38  42  47  52  54  52  48  42  37  33  30  26  23  21  23  26  29  30  31 
 33  35 205 205 
205 205  31  28  26  26  27  29  31  33  33  33  33  33  32  31  30  29  28  28  28  28  29  29  28  28  28  27  27  28  28  29 
 30  31  32  35  40  46  54  65  79  94 107 120 137 155 170 181 189 197 202 202 199 192 179 163 147 132 114  91  69  55  48  43 
 40  38  37  38  38  38  39  41  42  42  40  38  37  38  42  47  52  55  53  48  41  36  33  31  28  24  23  24  27  29  30  31 
 33  35 205 205 
205 205  31  28  26  26  28  30  32  33  33  33  32  32  32  31  30  30  29  28  28  28  28  29  29  29  28  28  28  28  29  29 
 30  31  31  33  37  45  55  67  81  95 110 126 144 161 172 179 185 190 193 193 190 185 172 154 137 121 103  82  62  50  44  41 
 39  38  37  38  38  38  39  40  41  41  39  37  37  39  42  47  51  53  52  46  40  35  33  32  29  25  24  25  28  29  30  30 
 32  33 205 205 
205 205 205 205 205 205 205 205 205 205 205 205 205 205 205 205 205 205 205 205 205 205 205 205 205 205 205 205 205 205 205 205 
205 205 205 205 205 205 205 205 205 205 205 205 205 205 205 205 205 205 205 205 205 205 205 205 205 205 205 205 205 205 205 205 
205 205 205 205 205 205 205 205 205 205 205 205 205 205 205 205 205 205 205 205 205 205 205 205 205 205 205 205 205 205 205 205 
205 205 205 205 
205 205 205 205 205 205 205 205 205 205 205 205 205 205 205 205 205 205 205 205 205 205 205 205 205 205 205 205 205 205 205 205 
205 205 205 205 205 205 205 205 205 205 205 205 205 205 205 205 205 205 205 205 205 205 205 205 205 205 205 205 205 205 205 205 
205 205 205 205 205 205 205 205 205 205 205 205 205 205 205 205 205 205 205 205 205 205 205 205 205 205 205 205 205 205 205 205 
205 205 205 205 
