P2
100 100
255
  0   0   0   0   0   0   0   0   0   0   0   0   0   0   0   0   0   0   0   0   0   0   0   0   0   0   0   0   0   0   0   0 
  0   0   0   0   0   0   0   0   0   0   0   0   0   0   0   0   0   0   0   0   0   0   0   0   0   0   0   0   0   0   0   0 
  0   0   0   0   0   0   0   0   0   0   0   0   0   0   0   0   0   0   0   0   0   0   0   0   0   0   0   0   0   0   0   0 
  0   0   0   0 
  0   0   0 192   0 192 192 192 192 192 192 192   0   0   0   0   0   0   0   0   0   0 192 192 192 192 192 192 128 128 128 128 
128 128 128 128 128 128 128  64   0   0 192 128 128 128 128 128 128 128 128 128 128 128 128 128 128 128 192 192 192 192 192 192 
  0  64  64  64  64   0   0   0   0   0  64 128 192 192 192 192 128  64   0 192 128 128 128 128 192   0  64 128 192 192 128 128 
  0   0   0   0 
  0   0 255   0   0   0 192 192 192 192 192 192 192 192 192 192 192   0   0   0   0 192 192 192 192 192 192 192 128 128 128 128 
128 128 128 128  64 128  64  64   0   0 192 192 192 192 128 128 128 128 128 128 128 128 128 128 128 128 192 192 192 192 192 192 
  0  64 128 128  64   0   0   0   0   0  64 128 192 192 192 192 128  64 192 192 128 128 128 128 192   0  64 192 192 192 192 192 
  0   0   0   0 
  0 192   0  51  20  48  67  43  11  43  45  31  35  47  54  57  62  62  49  36  55  67  53  18  19  13  21  48  46  26   8   7 
  9   8  10  13  14  16  26  88 124  92  38  96 140 137  91  34   5   9   8   5   7   9  10   7   9  44  60  28  35  40  31 120 
154 106  30  54  79  65  48  37  39  83 118 114  72  26  20  89 163 189 153  90  41  14   6  43 118 191 191 104  19  43  25  24 
  0   0   0   0 
  0 192   0  56  15  42  72  58  16  31  43  28  26  30  25  28  47  53  43  37  52  57  41  11  17  17  14  41  43  30  14   5 
  5  14  23  25  14   4  38 114 146  90  45  95 105 129 117  59  13  16  17  16  15  12  11   8  12  41  52  24  28  18  51 130 
141  82  20  49  75  72  62  51  39  64  97 106  82  41  33 113 189 197 141  65  21   5  16  59 136 200 187  96  30  48  28  17 
  0   0   0   0 
  0 192   0  67  24  33  71  67  31  20  41  31  20  16   4  20  39  38  29  34  48  49  33  12  19  17  14  36  42  32  15   2 
  8  12  18  26  24  22  67 154 172  96 112 144  63  96 134  91  32  22  25  23  21  18  14  12  17  41  46  21  20   2  66 127 
123  72  18  32  67  77  68  51  23  38  74  99  94  64  62 140 207 193 119  38  16  19  38  86 156 203 176  86  32  52  32   7 
  0   0   0   0 
  0 192 192  82  36  26  68  71  43   7  30  29  18   8   8  26  32  22  19  32  43  41  28  16  24  21  13  30  43  34  15   4 
 11   8   7  13  12  25 101 195 186  78 153 185  66  81 143 112  46  20  24  24  24  23  21  20  24  43  44  20  11   7  68 115 
114  84  42  23  55  76  73  57  21  27  61  91  99  79  88 163 210 171  88  15  27  42  75 129 179 193 154  73  25  51  40  16 
  0   0   0   0 
  0 128 192 100  49  16  63  73  53  17  14  21  15  11  22  30  22   7  19  32  38  34  25  19  27  28  16  20  42  40  18  11 
 16  14  15  14   7  24 124 224 189  43 171 204  72  83 146 119  50  16  18  22  24  25  26  25  30  48  48  25   4  11  57  97 
106  94  69  46  42  70  85  79  44  32  56  83  92  72  98 173 197 138  56  10  37  67 116 168 191 173 122  55  18  49  47  27 
  0   0   0   0 
  0 128 192 119  64   5  55  72  59  29   4  15  16  25  34  32  17   8  18  27  30  31  28  24  27  31  21   8  38  48  28  14 
 22  23  24  23  20  30 133 232 189  21 178 211  72  89 148 117  49  15  14  16  19  21  23  24  30  50  54  32   6  12  48  84 
101 103  88  63  26  63  97  99  61  33  45  73  79  46  96 169 173 103  31  17  47  93 152 189 182 140  86  35  22  52  52  34 
  0   0   0   0 
  0 128 192 134  79   8  46  70  61  34   7  23  29  36  42  35  23  22  26  31  33  34  31  24  24  31  31  17  42  56  38  10 
 10  15  20  21  23  29 128 229 195  27 177 215  78  94 149 112  47  20  18  15  15  17  19  21  28  52  59  41  12  11  46  86 
110 114  94  60   7  67 105 107  72  32  32  68  74  21 102 167 150  71  10  25  59 116 174 196 161 101  52  17  32  55  54  36 
  0   0   0   0 
  0  64 192 144  93  18  40  70  63  35   8  30  34  38  41  31  21  26  30  37  42  42  32  12  28  50  51  34  53  65  48  22 
 11   7  11  11  12  18 119 223 209  47 166 220  96  91 148 109  47  27  25  20  17  16  16  16  24  53  67  51  17  10  45  95 
125 119  86  44  11  69 104 107  78  32  23  71  74  14 113 167 133  48  12  41  82 136 179 187 145  80  27  17  43  56  52  36 
  0   0   0   0 
  0  64 128 151 106  29  36  69  63  31  11  31  31  30  33  21   5  22  29  36  46  47  37   3  42  70  66  44  64  75  54  25 
 11  12  17  14   9  14 109 218 228  81 139 222 123  81 142 108  48  31  31  26  22  18  15  14  21  53  74  60  25  20  49  98 
130 117  73  28  21  64  97 103  80  39  14  70  73  14 117 166 124  37  24  64 114 157 176 164 126  75  22  24  50  55  48  36 
  0   0   0   0 
  0  64 128 156 119  40  33  67  60  27  10  28  29  28  37  31  15  21  30  35  44  48  37   4  52  84  73  40  69  85  64  30 
  8   3  14  18  17  18 100 213 246 123  99 213 148  75 129 107  46  28  32  31  26  23  20  17  22  54  79  71  46  48  70  93 
114 107  71  28  29  58  85  96  78  45   7  65  72  10 119 167 121  31  37  92 149 176 169 136 101  66  19  27  51  54  46  34 
  0   0   0   0 
  0  64 128 159 128  47  28  65  58  29   8  26  28  28  39  39  25  21  27  32  39  46  36   8  56  90  76  26  64  94  81  43 
  7   4   5  12  12  14  92 207   2 160  61 190 159  77 111  99  45  24  27  27  24  24  23  21  24  54  82  84  78  80  87  80 
 77  85  73  38  33  55  74  86  73  46   4  59  72   8 119 169 121  24  55 121 175 184 151 107  76  52  13  27  49  55  47  30 
  0   0   0   0 
  0  64 128 163 132  52  27  65  59  34   3  21  21  18  28  34  25  18  19  26  32  43  42  19  53  89  79  26  52  93  93  69 
 41  25  14   8   5  25  92 199   5 184  39 161 152  62  86  87  42  20  22  23  22  23  26  28  29  55  88 101 106 101  77  49 
 35  61  72  42  29  57  71  78  67  43   6  56  72   6 118 171 121  15  77 148 190 179 130  82  54  33   9  24  46  56  48  27 
  0   0   0   0 
  0  64 128 171 129  48  29  66  61  37   7  17  22  15  17  19  14  12  14  17  21  36  43  30  47  79  78  33  34  76  86  89 
 85  65  40  18  19  44 101 190 252 190  23 134 142  33  65  82  43  22  24  24  24  26  30  32  34  59  97 117 122 106  56   9 
 17  49  66  41  23  60  72  75  61  37   3  60  72  11 121 172 114  21 105 170 194 168 115  68  38  17   5  18  42  56  47  24 
  0   0   0   0 
  0  64 128 174 117  34  33  64  62  41  12  18  31  26  21  14   3   8  15  14   9  19  32  29  37  66  72  35  19  48  56  74 
 89  90  72  44  38  56 102 174 229 182  41 123 142  37  68  93  53  26  30  31  33  34  33  32  35  64 107 128 125  99  56  36 
 31  54  69  39  26  65  74  72  53  28  12  72  77  26 129 171 100  47 137 185 189 155 104  61  31  13   7  16  40  57  46  21 
  0   0   0   0 
  0  64 128 172 105  19  37  60  61  46  17  20  40  31  19  13   8  13  16  15  12   8  13  11  24  56  65  33  14  30  17  30 
 53  83  93  73  57  57  93 153 202 178  70 105 122  38  76  98  58  23  28  35  39  39  36  32  34  68 114 133 121  88  52  37 
 41  70  73  31  36  70  74  67  46  18  35  90  84  42 142 168  83  74 164 190 175 138  92  53  27  20  18  22  43  60  48  21 
  0   0   0   0 
  0  64 192 167  96  13  36  56  59  49  23  18  45  37  17   7  17  19  17  14  15  16  15   9  21  51  61  32  18  30  14  19 
 11  60  96  90  70  55  81 137 184 173  89  58  81  75  92  84  49  18  15  21  27  31  32  30  35  71 119 133 113  77  38  23 
 49  80  70  19  53  78  72  56  31  26  72 114  90  63 155 164  71 101 177 183 155 115  76  43  23  21  22  29  51  64  51  26 
  0   0   0   0 
  0  64 192 160  89  11  32  51  57  51  28  14  45  41  19   4  21  23  19  14  12  16  19  19  28  52  61  31  26  35  20  32 
 16  47  92  92  72  50  70 124 166 161 101  22  37  66  59  33  34  35  26  16   9   8  12  16  35  81 126 134 112  74  40  34 
 58  81  57  17  74  86  68  40   7  56 107 130  86  84 161 158  80 120 177 173 137  93  58  33  15  12  17  34  59  68  52  32 
  0   0   0   0 
  0  64 192 153  84  10  28  45  56  53  31  10  43  42  19   5  22  23  19  15  10  12  14  15  30  54  60  28  31  37  21  38 
 20  46  89  85  63  42  59 113 149 143 104  56  27  21  43  77 101 106  94  74  54  36  22  16  39  95 137 145 126  88  57  47 
 62  74  35  40  89  84  53  17  33  89 129 124  68  95 151 147  97 121 163 161 122  72  40  21  11   4  11  36  63  71  52  38 
  0   0   0   0 
  0  64 192 150  82  12  25  41  56  56  32  11  41  41  17   8  22  21  17  16  14  12  12  11  31  56  58  21  32  36  20  44 
 20  48  88  78  52  32  51 105 138 128  97  72  78 102 136 154 157 152 141 125 105  84  66  60  72 114 147 154 134  87  51  45 
 58  60   9  65  97  73  31  14  60 115 133  97  44  95 127 129  97 100 139 148 110  55  22  11  12  12   8  35  63  71  52  40 
  0   0   0   0 
  0  64 192 149  82  13  23  41  57  58  31  11  42  41  17  13  24  21  15  15  17  17  16  10  32  60  58  14  34  34  16  49 
 20  48  88  77  51  34  50  97 123 111  83  63  80 113 148 157 154 154 153 151 147 137 120 109 106 123 140 141 119  68  33  37 
 48  40  16  83  96  53   4  31  77 126 126  70  29  83  97 100  76  59 110 138 104  41   7   6  12  15   7  31  60  69  52  39 
  0   0   0   0 
  0 128 192 144  79  15  22  43  58  57  29  13  46  43  14  12  26  22  13  14  20  22  20   3  35  63  58  11  38  35  14  51 
 25  46  87  80  61  42  49  87 105  94  68  37  52  87 119 109 102 116 130 144 156 163 156 142 121 105 103 108 105  70  35  35 
 36  15  38  86  80  32  27  42  80 124 121  61  26  71  71  75  61  12  90 140 113  41   2   4   5  12   5  25  56  67  52  36 
  0   0   0   0 
  0 128 192 136  72  13  26  47  61  58  31  21  49  46  22  14  22  20  12  12  19  24  23   7  34  63  58   9  41  36  12  52 
 30  41  83  82  72  47  46  78  90  83  60  21  34  76 103  72  37  58  71  83  99 119 134 136 114  75  55  77 101  89  57  43 
 24  11  48  71  54  42  54  47  68 115 121  61  25  66  57  60  65  18  73 140 129  58   8   3   4   9   4  21  53  65  53  37 
  0   0   0   0 
  0 128 192 129  67   7  28  49  64  58  28  21  46  47  37  30  23  17  10  11  17  20  21  11  31  59  56   8  41  36  12  52 
 32  36  76  78  76  58  57  81  85  77  56  18  25  72 106  75  10  27  33  27  19  26  56  82  90  68  29  49  96 107  80  49 
 18  34  54  49  28  59  68  53  50 105 121  62  27  67  52  52  68  37  48 129 136  72  17   1   4   8   4  21  52  65  58  51 
  0   0   0   0 
  0 128 192 126  68  10  31  53  67  56  22  13  34  30  25  30  29  20  10   8  15  18  17   5  31  54  52   7  41  36  12  51 
 32  31  68  67  68  67  76  97  94  77  54  19  19  65 102  78  25  43  65  73  70  58  36  14  51  72  54  38  91 115  91  47 
  9  50  61  29  31  69  67  60  40  97 116  59  30  69  48  44  64  47  30 116 136  81  24   6   4   8   4  24  54  70  73  78 
  0   0   0   0 
  0 128 192 128  72  13  27  53  69  60  28  18  34  25  10   8  10  13  10   8  13  19  17   7  35  52  49   5  43  36  11  49 
 33  27  62  53  47  54  83 120 112  82  50  13  23  65  92  63  30  69  94  96  89  90  86  57  10  46  63  55  88 106  85  43 
 13  57  64  14  55  80  55  67  40  86 107  52  34  70  46  41  63  48  24 109 134  86  30   8   5   8   8  30  61  85  98 104 
  0   0   0   0 
  0 128 192 129  75  23  17  44  63  59  29  18  40  35  31  34  25   7   2   7  14  21  16  12  38  53  49   4  44  36   9  48 
 34  27  60  48  35  40  90 145 134  88  42  12  34  73  88  41  30  79  94  77  55  67  87  81  49   5  35  54  82  88  69  35 
 15  57  64   7  75  94  43  65  40  72  95  45  35  68  49  52  78  62  44 117 138  87  31  13  12  12  16  40  72 103 117 109 
  0   0   0   0 
  0 128 192 122  74  32  21  37  56  56  28  14  41  33  20  33  40  28  11  10  15  18  14  10  36  55  53   9  41  36   7  48 
 34  28  62  53  42  52 111 168 148  85  33  23  44  83  92  34  53  92  88  53  17  42  71  76  64  40  19  45  74  74  55  27 
 17  58  63   1  89 106  38  55  37  55  82  40  32  64  56  74  99  72  60 136 146  84  26  10  12  13  20  46  81 112 117  95 
  0   0   0   0 
  0 128 192 109  67  35  28  39  50  49  26  12  39  38  17   8  27  30  20  17  16  14  14   2  29  55  60  27  33  34   7  48 
 34  27  66  63  50  63 126 180 150  76  41  41  50  87  97  25  71 113  91  38  12  37  56  62  64  57  50  59  73  69  53  32 
 31  63  60  17  93 109  32  46  32  41  72  40  31  57  61  93 112  57  69 154 150  79  23   4   3   5  20  49  86 111 107  81 
  0   0   0   0 
  0 128 192  98  57  31  32  44  47  39  19   9  31  37  27  14  17  24  22  19  16  12  13   9  15  45  60  35  27  30  10  47 
 34  23  65  68  57  69 132 186 149  66  58  66  55  79  94  46  81 124  88  18  22  33  38  50  67  75  78  79  81  72  54  36 
 42  67  61  31  84 102  28  48  41  37  71  51  38  44  58 103 116  38  87 167 147  72  22   8   7   7  22  53  88 107  99  73 
  0   0   0   0 
  0 128 128  91  45  21  28  39  41  31  11  11  23  28  23  15  18  23  21  16  15  12  12  12   4  32  55  32  20  29  17  48 
 43  22  54  62  59  76 142 197 164  68  63  91  68  68  87  89 112 119  64  11  42  36  17  24  59  92 105  99  92  72  45  31 
 45  67  67  42  69  88  23  53  53  36  70  64  43  26  51 107 110  28 106 167 131  60  19   5   1   9  24  56  89 104  95  70 
  0   0   0   0 
  0 128 128  85  37  12  22  36  40  30  19  21  23  21  16   6  13  18  17  14  13  12  12  11   1  29  52  29  17  34  21  48 
 53  36  42  46  45  72 145 213 194  91  45  99  79  56  74 110 135 107  36  43  59  50  44  38  52  96 122 118  99  63  28  22 
 37  60  70  44  50  74  18  59  64  34  65  71  50  26  53 111  95  12 115 149 104  52  40  36  28  22  25  51  84 102  96  72 
  0   0   0   0 
  0 128 192  80  32   4  19  37  42  27  23  32  30  17  12   4  11  16  16  15  12  12  12   9   4  32  49  28  19  42  23  34 
 51  47  44  32  22  51 130 214 217 119  19  91  77  23  44  97 116  88  65  76  63  49  63  80  79  88 120 127  97  45  10   9 
 21  45  65  40  31  65  16  63  75  39  49  66  56  26  65 117  77  33 117 120  78  74  78  69  52  29  14  41  78 103 100  76 
  0   0   0   0 
  0 128 192  79  30   0  20  42  45  20  20  39  34  15  10   7   8  15  15  15  13  12  12   9   6  33  47  29  17  46  34  16 
 35  39  36  25  16  36 111 200 215 129  62 120 108  64  69  91  72  44  84 100  78  59  62  75  78  72 103 122  93  36   2   5 
 17  32  68  47  20  60  21  65  83  50  31  60  63  18  77 117  58  53 110  92  80  95  97  84  62  36   8  37  79 106 104  80 
  0   0   0   0 
  0 128 128  85  34   3  21  45  48  18  21  42  32  13   8   5   7  14  13  12  13  12  13  12   3  27  45  34  17  43  41  14 
 17  17  11   8  15  42 104 180 189 111  99 162 147 119 135 143  98  32  74  95  84  79  70  46  41  47  84 111  84  32   3  14 
 20  29  75  57  15  55  34  68  86  52  20  61  71   9  86 116  45  58  95  81  87  92  90  87  77  58  27  37  82 107 104  83 
  0   0   0   0 
  0  64 128  99  46   8  25  48  47  17  22  40  28  12   8   5   8  16  14  10   9   8  13  14   4  17  38  35  26  43  42  18 
 12  14  13  14  24  51 104 159 151  76 107 162 125 103 144 173 148 102  95  94  75  73  78  53  23  30  72 100  73  27   8  21 
 21  28  80  68  22  53  50  65  76  44  14  67  76  10  91 121  52  50  87  88  86  74  78  94  98  77  32  38  87 108 103  84 
  0   0   0   0 
  0  64 128 116  64  11  31  52  47  16  21  37  26  12   8   7  11  16  12   5   4   5  10  15   7   9  27  28  30  43  40  17 
 17  26  24  23  43  65 103 143 123  45  98 132  64  32  87 136 150 136 128 117  89  69  74  60  33  30  64  90  63  28  21  30 
 25  27  83  80  38  47  51  48  55  34  15  70  79   8  92 129  75  47  80  84  72  66  83 105 111  86  31  38  91 108 100  83 
  0   0   0   0 
  0  64 128 129  84  18  32  56  50  17  20  37  27  11   5   7   9  13   9   3   1   5  11  14   8   4  17  17  27  36  31  13 
 24  35  30  14  48  74 106 141 118  29  83 102  55  58  45  55  96 115 118 113  96  86  91  76  46  27  51  76  59  34  31  42 
 37  27  82  89  50  30  35  21  35  28  13  67  78   9  94 140  98  48  61  62  58  72  94 112 116  89  33  37  92 108  98  82 
  0   0   0   0 
  0  64 128 132  98  32  30  59  51  18  20  38  27  10   7   9  11  14   9   5   5  11  15  11   6   2   8  12  21  25  19   2 
 26  39  34   6  36  65 107 150 129  34  65  77  64  82  68  31  13  46  64  73  73  82  92  73  45  24  31  63  55  31  22  38 
 43  40  79  88  52  11  23   6  24  25  11  60  71  17 103 148 106  40  37  42  49  73  97 114 117  91  37  35  92 109 100  83 
  0   0   0   0 
  0   0  64 129 104  45  28  57  49  18  19  37  26  13  13  15  17  17  15  15  17  19  17  12   8   5   5   7  12  18  15   7 
 23  37  32  14  17  42  97 155 141  46  45  50  49  67  70  71  52  31  33  42  39  56  69  49  40  32  11  49  54  32  14  19 
 38  55  72  72  43   6  19   5  18  23   8  54  60  21 110 148 101  22  34  51  61  77  91 107 112  92  42  33  92 111 103  84 
  0   0   0   0 
  0   0  64 123 105  48  22  50  48  22  19  38  31  18  20  23  23  22  22  23  23  19  15  12  11  10   7   1   9  15  13   8 
 18  28  26  22  18  26  88 156 146  53  31  31  43  56  56  77  78  67  61  57  45  49  49  19  32  38   7  36  54  43  15  13 
 38  57  59  47  28   8  12   4  17  19  10  52  49  27 114 143  90   2  54  76  86  89  82  87 102  92  44  32  92 113 105  83 
  0   0   0   0 
  0   0  64 120 105  48  13  45  48  28  16  37  36  23  20  23  26  28  27  25  23  21  20  20  18  15  11   4   8  12   8  12 
 22  17   9  22  29  33  88 157 145  56  31  28  45  56  40  57  66  66  67  59  52  57  55  25  23  35  13  25  50  51  28  27 
 43  46  40  28  15   0   5  11  18  14  15  52  41  34 116 137  80  11  75 103 109  95  68  60  88  92  45  32  93 115 105  81 
  0   0   0   0 
  0   0  64 121 108  51  12  44  48  35  11  29  35  23  17  21  25  27  27  25  23  21  19  17  16  18  16   7  10  10   0  20 
 31  24  15  17  22  30  89 159 147  66  46  43  41  48  14  33  60  74  67  45  41  60  69  50  27  28  14  14  39  52  42  34 
 43  36  22  15  10   7  11  17  21  16  22  54  38  40 120 133  73  20  95 129 123  86  50  32  73  91  47  32  95 115 101  79 
  0   0   0   0 
  0   0  64 124 111  52  11  43  49  40  12  20  30  21  17  24  27  27  28  26  21  17  14   9  10  16  15   7  10  10   7  30 
 37  31  41  34  11  21  88 160 155  79  57  60  33  29  15  49  77  84  55  19  31  57  72  60  33  20  10   7  24  41  42  32 
 35  27  15  11  10  12  17  23  27  24  34  62  40  43 123 133  69  28 111 149 127  62  37  14  61  90  49  33  96 112  97  77 
  0   0   0   0 
  0   0  64 128 113  52   9  40  50  44  17  13  26  18  17  22  26  27  26  23  18  10   8   8  12  16  13   7  10  10  12  38 
 46  24  43  53  35  34  93 163 169  92  37  55  31   3  24  56  73  67  32  16  29  44  62  57  28  10   4   1  10  21  26  21 
 25  21  14  11  10   8  13  21  28  27  41  73  45  44 124 134  66  35 121 161 129  41  31  13  53  91  52  33  96 110  96  76 
  0   0   0   0 
  0   0  64 132 115  53   8  38  49  47  21   9  20  11   8  17  25  23  14  18  19   8   2   4  11  16  12   7  11  12  15  41 
 55  31  17  45  44  48  98 164 179 115  25  38  33  17  25  47  53  53  41  27  13  30  54  56  26   3   0   0   7  14  14   3 
 17  17  11  10   2   7  16  28  31  18  42  80  46  47 126 132  60  40 123 163 128  36  32  18  50  92  54  30  95 111  96  76 
  0   0   0   0 
  0   0  64 136 116  55  10  40  49  48  22   8  19   9   6  19  27  22   5  19  23  10   2   1   9  16  10   5  10  11  10  36 
 57  52  22  15  31  46  91 148 174 144  93  67  45  27  28  36  31  41  44  25  22  51  64  58  28  10   4   2  11  19  19  14 
 22  17  11   7  17  27  31  45  43  10  55  89  46  58 133 129  52  44 121 160 123  33  34  18  52  92  54  27  92 113  98  76 
  0   0   0   0 
  0   0  64 139 115  55  12  43  52  50  24  10  24  12  12  26  28  15   6  21  21   8   3   4   9  16  10   2   7  12   7  17 
 41  52  42  18  14  43  79 111 138 148 132  98  61  36  31  28  12  17  31  40  54  71  73  59  31  19  11   3  19  30  27  21 
 29  21  12  18  40  43  42  60  53  24  76  94  36  77 143 125  43  48 119 155 117  31  34  17  56  93  56  24  89 114 101  77 
  0   0   0   0 
  0   0  64 141 112  48  13  43  54  55  28  10  28  11  20  29  19  15  31  35  26  14   9   9  15  17  10  11  19  29  29  11 
 18  40  44  30  25  51  70  70  79 110 123 103  67  30  10  13   8  17  41  58  66  71  64  48  30  35  17  11  29  36  24  19 
 32  22  12  35  55  50  51  72  60  41  87  83  16  99 150 115  32  52 116 148 112  29  31  12  59  96  60  22  86 111 101  81 
  0   0   0   0 
  0   0  64 137 101  38  15  41  54  59  32   8  26  17  25  18  16  46  62  61  50  36  27  29  31  21  11  20  32  40  47  35 
  4  26  39  29  28  52  62  40  29  58  86  96  79  43  17  31  33  35  54  62  60  64  58  33  21  44  21  17  33  31  12  19 
 34  18  20  48  58  40  49  72  56  43  78  58  27 120 149  99  18  58 111 139 108  27  30  10  60  99  64  18  80 100  95  87 
  0   0   0   0 
  0  64 128 127  85  28  16  39  54  60  36   8  22  17  11  15  51  76  82  77  69  58  50  51  47  34  17  26  44  38  48  54 
 28  10  30  24  18  43  51  24  12  24  61  89  88  62  29  17  31  53  69  65  55  59  58  31  18  43  21  17  31  27  16  21 
 28  11  34  53  49  19  42  64  42  25  58  34  52 131 137  75  18  72 109 129 100  23  31   7  60  99  66  14  71  83  78  79 
  0   0   0   0 
  0  64 128 111  70  22  16  38  54  61  41  18  26  20  12  42  73  85  76  67  67  68  66  63  54  50  33  33  52  31  39  58 
 43   9  20  22   4  36  49  28  11  16  57  83  80  63  52  40  24  49  74  70  56  55  53  28  15  36  19  13  24  21  18  17 
 13  16  41  47  32   1  41  59  34  13  45  26  64 128 119  49  47  94 113 119  87  18  33   7  59  97  65  12  63  70  56  52 
  0   0   0   0 
  0  64 128  94  60  18  17  39  55  65  52  30  32  33  36  60  78  73  50  39  49  57  61  58  52  56  45  41  49  26  31  55 
 52  25  10  29  15  35  54  38  14  29  61  74  59  48  70  85  76  60  66  67  58  55  48  24  10  28  22  12  15  12  13  11 
  2  19  35  32  20  23  52  61  34  19  41  22  63 117  99  32  72 107 110 103  71  16  36   8  57  95  63  12  60  65  45  27 
  0   0   0   0 
  0 128 128  77  52  14  19  41  58  72  61  34  32  45  60  79  82  60  29  16  28  38  42  40  44  55  48  44  42  23  26  51 
 54  36   5  37  26  22  51  49  35  43  58  60  35  32  59  82  90  78  63  55  51  53  44  24   5  16  21  14   5   6  10   9 
 11  22  31  28  24  33  53  53  27  20  37  13  60 105  78  31  86 107  95  81  49   9  39  10  56  93  60  14  60  64  40  16 
  0   0   0   0 
  0 128 128  59  44  12  20  43  62  75  62  28  17  42  73  95  86  52  22  11  13  18  20  22  32  46  44  41  33  17  29  52 
 56  39   5  39  28  19  60  65  47  38  46  48  20  21  32  37  52  54  46  35  33  45  45  38  23   3  12  15   9   8   6   5 
 11  22  32  29  20  26  42  39  17  17  34   7  56  95  61  37  90  96  71  54  29  19  39   7  58  90  54  17  59  62  34  11 
  0   0   0   0 
  0 128 128  45  37  13  20  44  62  74  59  26  21  50  82  98  85  48  19  10   5   4   5   8  18  31  34  31  23  17  39  56 
 58  37  10  36  24  35  70  67  40  25  36  42  17  19  31  18  13  22  26  23  21  31  27  27  28  17   9  21  22   8   8   2 
  3  12  25  25  11  16  33  31  18  15  28   3  52  84  48  45  89  80  47  36  34  38  38  14  64  86  46  20  56  55  26  13 
  0   0   0   0 
  0 128 128  37  33  12  22  43  56  66  52  41  62  83  96  93  74  43  17   7   4   1   1   2   5  12  18  18  14  24  47  61 
 62  38  19  37  15  38  66  53  24  16  32  42  23  17  30  21   7  11  23  34  49  59  50  33  27  24   6  25  29   4  13   4 
  4   7  21  24  11  13  28  27  16  10  22   1  47  73  41  52  85  68  25  20  39  43  28  25  70  81  39  22  52  47  20   8 
  0   0   0   0 
  0 128 128  32  31   9  24  41  47  53  44  59  86  99  94  77  56  34  12   2   4   4   5   7   7   3   3   8  14  28  50  67 
 69  40  25  43  12  35  59  47  32  31  38  44  35  39  41  27  15  18  38  63  92 105  95  71  38  16   0  23  27  11  14   7 
  5   5  20  24  12  12  25  25  14   7  20   8  40  66  47  60  79  56  10  20  31  30  18  43  71  70  31  22  47  42  16   8 
  0   0   0   0 
  0 128 128  31  28   7  27  40  38  38  40  69  87  84  66  49  36  23   9   3   2   2   5   5   4   4   3   8  16  26  47  70 
 76  39  22  50  27  38  63  60  49  44  48  49  58  74  73  58  40  37  66  97 114 108  95  85  50  12   7  15  20  14  17  12 
 11   5  20  24  11  13  23  22  14  13  23  18  34  62  60  64  67  43  14  35  22  16  41  55  58  51  31  30  42  32  12  15 
  0   0   0   0 
  0 128 192  36  29  13  30  40  31  24  40  67  70  51  30  20  22  18  10   7   7   5   4   4   4   4   3   7  14  22  43  69 
 81  59  48  59  41  34  53  53  50  51  54  55  74  91  87  74  57  56  90 111  99  64  56  75  63  30   8   7  12  18  24  23 
 23  15  21  27  14  17  22  21  19  20  24  21  24  48  60  58  52  31  24  44  20  26  54  49  37  38  41  41  32  12  17  24 
  0   0   0   0 
  0 192 192  34  24  17  34  40  26  16  37  55  43  18   7  13  21  20  15   8   7   9   7   8  11  11   8   8  12  19  37  61 
 80  83  79  67  36  24  34  32  35  45  48  47  71  76  62  62  50  65 100 101  62  14  40  64  62  45  27  19  22  31  36  35 
 35  27  28  35  25  28  29  25  26  25  18  16  17  32  48  47  38  23  30  47  31  31  51  39  23  26  33  32  17  13  28  30 
  0   0   0   0 
  0 192 192  19  10  14  36  39  21  11  32  44  30  13   8  12  19  22  19  11   0   7  10  13  14  12   8   8  10  15  28  49 
 70  83  82  61  34  34  26  10  18  35  41  37  62  48  35  51  30  68  93  72  24  21  41  44  48  51  46  36  37  46  48  48 
 50  43  41  44  32  34  34  29  32  26  13   9  22  28  29  30  24  19  29  48  44  34  37  29  16   8   8  10  17  32  32  24 
  0   0   0   0 
  0 192 192  14  12  13  34  35  17  12  31  38  26  15  16  17  17  20  19  12   4   7  12  14  12  10   8   7   8  12  19  33 
 50  58  56  46  51  54  29  11  11  25  33  29  48  19  31  46   4  61  71  40  21  38  37  24  24  32  39  44  52  58  57  56 
 60  57  55  50  36  36  34  31  30  28  21  10  28  36  21  18  17  16  22  39  47  40  29  24  23  18  15   6  21  40  31   5 
  0   0   0   0 
  0 192 192  19  21  16  27  27  15  17  34  43  39  36  35  31  26  24  19  14  11  12  13  13  10  10   8   7   8   9  12  16 
 19  21  25  45  72  67  26  23  21  13  24   8  35  33  53  56  38  72  87  79  69  59  45  30  21  10  14  39  60  65  61  58 
 63  67  64  52  40  41  35  30  27  31  30  24  35  39  24  19  18  15  18  29  41  42  33  30  32  24  22  14  15  39  36  18 
  0   0   0   0 
  0 192 192  19  25  18  17  17  12  22  42  54  50  43  36  34  33  29  21  16  14  13  12   7  11  11   5   1   1   3   5   9 
 15  21  26  50  78  69  19  26  26  20  40  41  63  80  93  92  89 109 128 128 113  88  64  51  46  36  27  40  53  56  54  55 
 61  65  62  51  46  45  39  34  32  34  38  42  48  45  31  24  20  15  19  29  38  44  42  36  28  13  22  24  13  37  39  27 
  0   0   0   0 
  0 192 192   5  14  11   7  10   7  27  48  55  44  27  19  19  19  15   8   4   7   5  13  22  27  26  25  27  29  32  37  44 
 50  50  44  49  68  62  19  17  23  42  65  72  89 109 118 117 117 128 139 140 130 109  85  67  60  57  62  62  51  37  31  36 
 44  49  48  47  50  49  44  41  40  43  48  53  54  48  36  30  27  25  32  38  41  47  49  41  25  14  30  27   6  26  30  18 
  0   0   0   0 
  0 192 192  15  13  12  11  14  12  29  44  45  27  16  21  22  24  29  35  40  45  51  57  61  61  59  60  62  59  54  54  60 
 61  54  40  32  47  50  31   8  23  56  76  84  94 107 111 110 107 107 113 113 112 104  89  70  57  59  79  85  68  47  27  13 
 15  23  28  34  44  48  48  45  45  48  51  51  47  39  32  31  30  29  37  40  37  39  39  34  26  27  33  25  16  25  21   4 
  0   0   0   0 
  0 192 192  34  36  36  36  35  25  19  33  43  51  62  68  70  69  69  72  78  86  90  87  81  75  70  67  63  54  41  32  33 
 27  21  16  10  38  53  50  34  46  67  77  83  82  81  81  81  74  70  75  77  81  83  75  58  45  50  76  88  83  73  59  42 
 25  12   2  15  28  35  39  42  44  48  50  47  40  32  26  27  26  23  29  31  23  20  22  23  23  30  35  35  38  41  33  26 
  0   0   0   0 
  0 192 192  48  51  52  52  51  41  12  23  54  75  83  84  83  79  73  72  77  81  79  69  54  40  29  20  14  19  18  15  23 
 25  36  44  45  56  67  68  67  76  78  76  77  72  65  63  64  58  57  64  62  65  71  66  53  41  46  64  75  80  82  78  67 
 56  47  34  20  11  11  11  18  28  34  36  34  29  23  19  21  21  15  19  23   8  10  19  17  17  28  38  44  49  48  42  40 
  0   0   0   0 
  0   0   0  48  51  53  55  57  58  44  29  38  45  44  39  34  31  28  29  30  23  15  15  20  26  33  43  53  59  57  53  56 
 60  65  65  58  57  64  78  98 107  93  78  73  69  63  65  69  67  67  75  69  66  72  70  62  50  49  57  62  66  72  75  71 
 67  65  60  50  42  34  25  14   7   8  11  12  13  13  15  17  18  13  12  20   7  11  18  11  16  28  38  44  45  42  40  42 
  0   0   0   0 
  0   0   0  35  38  40  41  47  63  68  55  33  19  22  31  36  36  37  41  46  49  58  69  72  71  74  80  82  77  66  59  60 
 62  60  51  37  31  42  80 123 133 107  78  67  67  67  72  75  68  66  79  73  66  72  76  72  63  59  58  55  52  55  59  57 
 57  59  59  55  52  50  45  40  32  23  16  11   4   4  11  16  20  18  15  17   7  10  16  19  24  28  31  31  28  26  28  32 
  0   0   0   0 
  0   0   0  25  26  25  21  28  53  70  70  64  64  68  72  72  71  70  73  80  87  92  90  82  74  71  68  63  53  44  38  36 
 34  28  17   5  14  39  89 138 145 111  73  60  65  71  74  69  50  48  71  65  53  56  66  68  63  61  59  53  46  44  42  36 
 36  41  44  41  38  39  43  47  46  41  36  27  18   8   2   8  15  17  18  18  14  16  21  26  27  24  21  18  14  12  14  16 
  0   0   0   0 
  0   0   0  17  18  17  12  18  38  54  59  61  67  69  65  61  60  61  65  72  77  75  67  57  47  38  31  23  17  12   8   5 
  1   6   9  18  35  61 101 140 142 106  69  58  64  72  72  59  26  37  66  58  42  45  58  65  65  66  65  57  47  41  32  21 
 18  26  31  25  20  21  26  36  43  44  42  38  34  25  12   4   5   7  10  14  13  16  19  19  17  15  13  13  10  10  10   7 
  0   0   0   0 
  0   0   0  10  13  11   8  16  27  36  38  39  43  43  40  36  34  36  39  41  42  40  32  24  16   8   4   6   9  12  17  21 
 24  26  25  31  49  73 105 134 132  98  65  57  65  74  74  55  20  40  64  55  48  55  67  78  84  86  84  72  56  44  29  16 
  8  17  25  20  13  12  14  22  32  38  39  38  38  35  26  17  12   8   9  13   9   8   8   8  10  10  11  11   9  12  10   3 
  0   0   0   0 
  0   0   0  18  17   9   3  14  20  25  25  26  28  28  26  21  16  13   9   7   7   4   4   8  13  16  20  23  24  24  27  30 
 32  32  32  36  53  76 106 129 123  89  58  54  69  82  83  62  40  55  73  72  70  69  73  83  97 107 109  93  68  48  29  13 
  4  12  21  18  11   9  12  16  20  26  28  29  33  35  32  28  23  17  17  18  10   4   4   4   8   4   8   9   8  11  11  12 
  0   0   0   0 
  0   0   0  28  26  13   1  12  17  20  18  16  15  13  10   5   0   5  11  17  24  30  31  28  25  25  27  28  27  24  25  28 
 29  28  28  30  48  79 108 126 114  80  51  51  78  99  99  79  63  75  88  85  73  62  56  62  80 107 125 112  78  52  32  12 
  0   8  18  17  11   9  12  15  16  20  22  24  27  30  33  33  31  27  25  24  18  13  11  11  12   6   4   5   3   8   7  12 
  0   0   0   0 
  0   0   0  30  32  19   3   9  12  15  12   4   5  11  15  17  17  20  25  31  36  39  38  32  25  22  22  22  20  16  18  24 
 21  20  22  23  43  79 112 125 108  74  49  58  91 113 105  81  62  72  83  78  63  51  36  33  58 100 130 120  85  57  35  11 
  3   5  16  17  11   5  10  10  13  18  23  22  19  22  30  32  31  33  32  28  23  19  16  15  15  12   8   4   3   8   6   4 
  0   0   0   0 
  0   0   0  27  34  24  10  11  14  18  19  17  22  27  30  28  26  27  31  32  32  31  29  25  17  13  14  12  11   9  13  20 
 19  16  17  16  37  76 115 129 111  76  53  68 101 114 100  76  54  58  75  83  76  60  40  32  55  98 128 123  92  63  36   9 
  4   1  13  16  11   1  11   8   8  15  24  21  16  21  25  28  28  29  31  28  23  17  14  15  15  13  11   8   7   8   7   4 
  0   0   0   0 
  0   0   0  22  27  24  18  19  25  30  29  26  26  26  23  20  17  17  20  20  16  11  13  15   8   5   8   5   5   5  11  20 
 22  12   8   8  32  73 116 136 120  83  59  73  99 105  93  77  54  45  70  94  99  90  72  58  67 101 132 133 103  68  36   9 
  4   0  12  16  12   1  12  12   4  12  23  17  12  16  20  25  28  28  28  25  21  17  14  15  17  14  12  12  13  14  12   8 
  0   0   0   0 
  0   0   0  11  18  23  23  25  31  33  29  26  23  18  12   8   5   8  12  11   3   8  13  12   7   4   8   4   4   1  11  20 
 21  10   3   5  29  72 117 142 129  88  60  67  91 101  98  82  57  39  57  91 111 117 102  79  79 108 143 152 120  73  36  12 
  2   2  11  16  12   3  12  15   4  11  21  14   5  12  15  22  31  32  30  25  21  16  14  14  15  14  12  13  15  17  14  11 
  0   0   0   0 
  0   0   0   2  12  19  21  23  28  28  23  20  16  12   7   8   0   8  11   8   8  14  15  11   2   4   7   4   3   3  12  19 
 19  11   3   5  27  72 120 145 132  90  58  62  91 111 112  92  66  50  55  78 101 117 113  85  72  97 144 165 137  83  41  18 
  3   2   9  16  12   3  12  15   4   9  20  15   3  15  15  20  32  38  34  28  22  18  15  14  15  16  17  18  17  18  17  14 
  0   0   0   0 
  0   0   0  10   9  15  18  18  22  24  19  15  12   8   8  10   3   6   8   8   8  14  14   7   5   5   5   3   1   4  12  18 
 18  12   5   7  25  71 121 146 132  89  57  64 100 126 126  98  66  49  48  56  75 104 118  98  75  92 139 169 149  96  51  25 
  9   3   7  15  12   1  12  14   5   8  20  17   3  20  21  18  30  41  40  34  27  25  23  21  19  17  19  20  20  21  21  19 
  0   0   0   0 
  0   0   0  13  11  12  15  17  21  23  18  12  11  10  10  11   7   1   5   7   8  13   8   3   8   7   4   1   1   5  12  18 
 18  12   7   8  24  67 116 144 133  90  57  67 109 139 133  93  47  21  17  23  46  86 115 113  95 102 139 170 156 107  61  32 
 16   7   8  12  10   3  12  15   9  11  21  18   4  23  27  17  23  38  41  36  28  25  25  25  21  15  14  15  17  20  20  18 
  0   0   0   0 
  0   0   0  15  14  13  17  22  24  25  20  12  10  10   9  11   9   5   0   3   5   9   5   4   9   9   5   4   4   8  13  16 
 17  13   7   7  22  62 108 139 134  96  64  73 116 145 135  91  39   8   5  14  23  53  90 107 102 109 142 168 156 112  68  41 
 24   9   7   7   5   7  14  17   9  12  22  18   4  24  28  17  13  32  38  34  25  20  20  22  21  12   6   7  11  15  15  14 
  0   0   0   0 
  0   0   0  17  17  17  21  26  29  29  22  15  14  10   7   8   8   7   4   3   4   7   7   5  10  10   7   7   7  10  13  13 
 16  14   7   6  24  59 101 132 132 107  86 101 138 153 134  90  43  21  20  22  24  28  56  86 102 121 150 164 147 108  72  49 
 29   8   2   3   6   5  12  15   5  11  21  18   3  23  28  19   5  26  34  32  22  14  15  18  21  15   3   2   5  12  13  11 
  0   0   0   0 
  0   0   0  17  17  17  18  22  27  25  19  16  18  15  10   9   8   5   3   5   8  11  12  12  14  11   8   7   9  12  15  17 
 18  13   5   8  27  58  97 126 132 126 126 145 165 161 131  92  61  54  59  50  31  24  49  87 122 148 161 157 132  99  74  52 
 28   6   4   4   4   1  11  12   7   7  19  18   3  20  28  20   2  20  32  32  19   8  12  17  21  16   4   1   3   8  12  13 
  0   0   0   0 
  0   0   0  17  17  17  17  21  21  17  14  17  18  18  16  12   8   5   4   6  10  13  16  18  18  15  12  10  11  14  18  19 
 16  10   5  10  28  60  99 129 145 153 158 162 160 145 117  92  75  74  88  95  80  61  68 105 141 162 163 146 118  91  71  49 
 24   2   4   1   4   1   8  11   8   1  16  21   7  16  28  20   3  18  32  31  17   7   9  16  22  17   5   0   2   7  12  12 
  0   0   0   0 
  0   0   0  14  15  16  16  20  21  14   9  15  17  17  17  14  11   8   8   8  10  12  15  16  15  13  11   9   8  12  17  15 
 11   5   4  10  29  64 106 141 161 162 147 137 136 123  94  66  42  32  50  77  90  91 104 126 146 163 162 141 111  84  63  41 
 20   1   4   2   4   2   5  11  12   5  12  21  14  15  29  21   7  20  32  29  16   7   8  16  22  19   8   2   4   4   5   7 
  0   0   0   0 
  0   0   0  12  14  15  16  20  22  14   4  12  16  15  16  15  12   8   8   8  10   7   6   7   7   5   4   3   4  10  13  12 
  8   2   2  11  33  71 115 151 163 143 116 124 150 150 113  67  44  40  25  24  68 112 138 138 139 151 159 142 104  72  50  31 
 16   2   4   1   5   4   5  13  14   6   7  15  13  21  34  28  19  28  35  32  21  10   9  17  23  20  10   3   7   4   1   3 
  0   0   0   0 
  0   0   0  14  16  17  17  20  20  13   0  12  15  12  12  15  15  12   9   7   7   3   1   3   3   4   4   3   4   9  12  12 
  9   8   8  15  41  80 121 147 145 116 103 127 166 176 135  85  72  70  59  33  58 122 152 134 120 136 158 153 117  79  52  29 
 13   3   4   4   7   4   7  15  12   7  11  11   1  23  36  28  20  31  38  38  30  17  13  20  25  21  10   4   8   5   3   4 
  0   0   0   0 
  0 192 192  15  17  15  15  18  16  11   0  12  13   9   8  11  14  11   8   7   5   3   3   6   8   8   7   5   5   9  12   9 
  7   7   7  20  50  87 117 132 123  97  87 108 159 177 135  82  58  49  47  18  44 117 152 134 121 141 170 174 147 112  80  43 
 15   1   3   7   7   1   8  15   8   9  16  15  14  29  36  22   9  24  34  39  37  26  20  23  24  20   5   8  10  11  12  15 
  0   0   0   0 
  0 192 192  16  13  10  12  16  13   9   0  11  11   8   7   7  10   8   7   8   7   6   8   5   1   0   3   4   4  10  12   9 
  5   5  11  29  57  82 103 115 109  83  65  91 147 162 120  64  37  50  60  39  46 109 145 139 128 140 165 172 147 120  94  58 
 23   4   4   5   5   1   9  13   4   8  14  12  17  34  41  29   8  15  30  39  39  32  27  26  25  19   3  12  16  16  17  20 
  0   0   0   0 
  0 192 192  12   5   5  12  16  13   8   2   8  11  13  13  11  11   8   8   8   8   9  12  15  15  13  11   9   8  11  12  10 
  7   8  16  35  56  68  85 104 108  91  76  98 143 153 119  76  61  70  63  28  32  86 115 109 102 120 156 170 147 116  90  61 
 30   7   0   3   4   5  13  14   8  12  16   9   7  29  40  36  19   8  27  38  40  35  30  29  27  18   1  16  21  18  15  16 
  0   0   0   0 
  0 192 192  14   4   4  12  16  15   8   2   5   8  12  14  15  15  12   9   8   8   9  12  15  16  16  14  10   8   9   8   9 
  7   7  15  34  49  57  74  98 113 105  91 109 143 147 117  81  64  60  37  13  44  85 112 115 117 138 174 189 162 116  79  53 
 29   9   2   0   3   5  12  12   5  11  17  14   4  24  37  39  27   6  25  41  44  35  27  27  29  21   8  19  23  16  10  12 
  0   0   0   0 
  0   0   0   0   0   0   0   0   0   0   0   0   0   0   0   0   0   0   0   0   0   0   0   0   0   0   0   0   0   0   0   0 
  0   0   0   0   0   0   0   0   0   0   0   0   0   0   0   0   0   0   0   0   0   0   0   0   0   0   0   0   0   0   0   0 
  0   0   0   0   0   0   0   0   0   0   0   0   0   0   0   0   0   0   0   0   0   0   0   0   0   0   0   0   0   0   0   0 
  0   0   0   0 
  0   0   0   0   0   0   0   0   0   0   0   0   0   0   0   0   0   0   0   0   0   0   0   0   0   0   0   0   0   0   0   0 
  0   0   0   0   0   0   0   0   0   0   0   0   0   0   0   0   0   0   0   0   0   0   0   0   0   0   0   0   0   0   0   0 
  0   0   0   0   0   0   0   0   0   0   0   0   0   0   0   0   0   0   0   0   0   0   0   0   0   0   0   0   0   0   0   0 
  0   0   0   0 
  0   0   0   0   0   0   0   0   0   0   0   0   0   0   0   0   0   0   0   0   0   0   0   0   0   0   0   0   0   0   0   0 
  0   0   0   0   0   0   0   0   0   0   0   0   0   0   0   0   0   0   0   0   0   0   0   0   0   0   0   0   0   0   0   0 
  0   0   0   0   0   0   0   0   0   0   0   0   0   0   0   0   0   0   0   0   0   0   0   0   0   0   0   0   0   0   0   0 
  0   0   0   0 
  0   0   0   0   0   0   0   0   0   0   0   0   0   0   0   0   0   0   0   0   0   0   0   0   0   0   0   0   0   0   0   0 
  0   0   0   0   0   0   0   0   0   0   0   0   0   0   0   0   0   0   0   0   0   0   0   0   0   0   0   0   0   0   0   0 
  0   0   0   0   0   0   0   0   0   0   0   0   0   0   0   0   0   0   0   0   0   0   0   0   0   0   0   0   0   0   0   0 
  0   0   0   0 
